<svg width="15" height="15" viewBox="0 0 15 15" fill="none" xmlns="http://www.w3.org/2000/svg">
<g clip-path="url(#clip0_232_1049)">
<path d="M0.533796 4.65529L6.77047 11.4215C7.06497 11.741 7.56057 11.7589 7.87742 11.4616C8.19427 11.1642 8.21239 10.6642 7.91789 10.3447L1.68121 3.57849C1.38671 3.25898 0.891115 3.24102 0.574266 3.53838C0.257416 3.83573 0.239298 4.33579 0.533796 4.65529Z" fill="#3A2F45"/>
<path d="M13.3374 3.71086L6.79424 10.3131C6.48827 10.6218 6.48827 11.1223 6.79424 11.4311C7.10021 11.7398 7.59629 11.7398 7.90226 11.4311L14.4454 4.82888C14.7513 4.52014 14.7513 4.01959 14.4454 3.71086C14.1394 3.40212 13.6433 3.40212 13.3374 3.71086Z" fill="#3A2F45"/>
</g>
<defs>
<clipPath id="clip0_232_1049">
<rect width="15" height="15" fill="white" transform="translate(15) rotate(90)"/>
</clipPath>
</defs>
</svg>
