<svg width="28" height="26" viewBox="0 0 28 26" fill="none" xmlns="http://www.w3.org/2000/svg">
<path d="M28 6.875V22.625C28 24.0742 26.8242 25.25 25.375 25.25H2.625C1.17578 25.25 0 24.0742 0 22.625V6.875C0 5.42578 1.17578 4.25 2.625 4.25H7.4375L8.11016 2.45078C8.49297 1.42812 9.47188 0.75 10.5656 0.75H17.4289C18.5227 0.75 19.5016 1.42812 19.8844 2.45078L20.5625 4.25H25.375C26.8242 4.25 28 5.42578 28 6.875ZM20.5625 14.75C20.5625 11.1297 17.6203 8.1875 14 8.1875C10.3797 8.1875 7.4375 11.1297 7.4375 14.75C7.4375 18.3703 10.3797 21.3125 14 21.3125C17.6203 21.3125 20.5625 18.3703 20.5625 14.75ZM18.8125 14.75C18.8125 17.4023 16.6523 19.5625 14 19.5625C11.3477 19.5625 9.1875 17.4023 9.1875 14.75C9.1875 12.0977 11.3477 9.9375 14 9.9375C16.6523 9.9375 18.8125 12.0977 18.8125 14.75Z" fill="white"/>
</svg>
