<svg width="512" height="512" viewBox="0 0 512 512" fill="none" xmlns="http://www.w3.org/2000/svg">
<g clip-path="url(#clip0_4867_24223)">
<path d="M256 386.648C230.4 386.648 206.566 379.586 185.379 365.462C164.193 351.338 148.303 333.683 137.71 311.614L31.779 128C9.71 167.724 0 210.979 0 256C0 320.441 21.186 376.055 62.676 423.724C104.166 471.393 156.248 499.641 218.042 509.352L292.194 380.469C285.131 383.117 271.89 386.648 256 386.648Z" fill="#82D889"/>
<path d="M175.673 150.069C199.507 131.531 225.99 123.586 256.004 123.586H475.811C452.859 84.745 421.963 56.496 383.121 34.427C344.28 11.476 301.907 0 256.004 0C216.28 0 178.321 8.828 143.894 25.6C109.467 42.372 76.8036 67.09 53.8516 98.869L128.004 220.69C135.066 192.441 151.838 168.607 175.673 150.069Z" fill="#E86438"/>
<path d="M492.579 159.779H344.276C369.876 185.379 387.531 218.924 387.531 256C387.531 283.366 379.586 308.083 364.579 331.034L258.648 512C328.386 511.117 388.414 486.4 437.848 436.083C487.282 385.766 512 325.738 512 256C512 223.338 506.703 188.91 492.579 159.779Z" fill="#FCE056"/>
<path d="M256.001 158.897C308.967 158.897 353.104 203.035 353.104 256C353.104 308.965 308.967 353.103 256.001 353.103C203.035 353.103 158.898 308.966 158.898 256C158.898 203.034 203.035 158.897 256.001 158.897Z" fill="#25B9E1"/>
</g>
<defs>
<clipPath id="clip0_4867_24223">
<rect width="512" height="512" fill="white"/>
</clipPath>
</defs>
</svg>
