<svg width="48" height="48" viewBox="0 0 48 48" fill="none" xmlns="http://www.w3.org/2000/svg">
<path fill-rule="evenodd" clip-rule="evenodd" d="M48 24C48 37.2548 37.2548 48 24 48C10.7452 48 0 37.2548 0 24C0 10.7452 10.7452 0 24 0C37.2548 0 48 10.7452 48 24ZM33.34 31.15C32.76 29.76 31.92 29.43 31.27 29.43C31.0662 29.4531 30.8651 29.4967 30.67 29.56C30.4396 29.6584 30.2071 29.8627 29.9198 30.1153C29.0972 30.8383 27.8244 31.957 24.86 32.12H24.38C22.8968 32.1396 21.4345 31.7694 20.1394 31.0463C18.8442 30.3233 17.7617 29.2728 17 28C16.335 26.8083 15.9905 25.4646 16 24.1C15.9954 22.4966 16.4727 20.9288 17.37 19.6C18.4114 17.9257 20.0187 16.6803 21.9 16.09C22.9032 15.7733 23.948 15.6082 25 15.6C27.75 15.6 29 17 29 18.1C29.0057 18.3834 28.9018 18.6581 28.7099 18.8668C28.518 19.0755 28.2529 19.202 27.97 19.22C27.8975 19.2354 27.8225 19.2354 27.75 19.22C27.4878 19.2224 27.2294 19.157 27 19.03C26.9077 18.9702 26.7999 18.9389 26.69 18.94C25.82 18.94 24.62 20.42 24.62 21.67C24.62 22.59 25.28 23.41 27.28 23.41C27.7184 23.3987 28.1558 23.3619 28.59 23.3C29.6424 23.1726 30.6362 22.7458 31.4533 22.0705C32.2704 21.3952 32.8767 20.4996 33.2 19.49C33.3224 19.1021 33.3799 18.6966 33.37 18.29C33.37 17 32.87 15.06 30.44 13.29C28.8306 12.1565 26.8977 11.5742 24.93 11.63C23.439 11.6409 21.9585 11.8804 20.54 12.34C17.7691 13.1657 15.3741 14.9345 13.77 17.34C12.4225 19.3445 11.7019 21.7047 11.7 24.12C11.6911 26.1808 12.222 28.2081 13.24 30C14.378 31.9266 16.0026 33.5201 17.9509 34.6206C19.8991 35.7211 22.1025 36.2899 24.34 36.27H25.04C28.14 36.11 33.48 34.04 33.48 31.75C33.4765 31.5423 33.4288 31.3378 33.34 31.15Z" fill="black"/>
</svg>
