<svg width="73" height="63" viewBox="0 0 73 63" fill="none" xmlns="http://www.w3.org/2000/svg">
<path d="M11.2466 52.0879L12.3042 50.0485L10.7867 48.3239C6.60872 43.5758 4.16873 37.7796 4.16873 31.5246C4.16873 16.5085 18.3536 3.5632 36.8875 3.5632C55.4214 3.5632 69.6063 16.5085 69.6063 31.5246C69.6063 46.5335 55.4345 59.425 36.8922 59.425C32.621 59.425 28.582 58.7583 24.8664 57.5082L23.7727 57.1402L22.6838 57.5223C17.3088 59.4084 12.4043 59.4432 7.01786 59.426C7.01214 59.4128 7.00625 59.3987 7.00021 59.3837C6.96893 59.3063 6.93911 59.2378 6.91636 59.1864C6.91446 59.1822 6.91257 59.1779 6.91068 59.1736C7.59041 57.9802 8.35671 56.7755 9.09965 55.6159C9.15439 55.5305 9.20944 55.4446 9.26468 55.3585C9.99569 54.2186 10.7589 53.0285 11.2466 52.0879Z" fill="#3A2F45" stroke="#3A2F45" stroke-width="6.71563"/>
</svg>
