<svg width="73" height="64" viewBox="0 0 73 64" fill="none" xmlns="http://www.w3.org/2000/svg">
<path d="M10.6476 52.6322L11.8599 50.5426L10.2641 48.729C6.08614 43.9809 3.64615 38.1847 3.64615 31.9297C3.64615 16.9136 17.831 3.96829 36.3649 3.96829C54.8988 3.96829 69.0837 16.9136 69.0837 31.9297C69.0837 46.9459 54.8988 59.8912 36.3649 59.8912C32.1249 59.8912 28.0892 59.1734 24.3438 57.9133L23.2501 57.5453L22.1612 57.9274C16.6898 59.8474 11.9707 59.891 6.52782 59.8727C6.51486 59.8588 6.49539 59.8328 6.47762 59.7888C6.40918 59.6195 6.40664 59.5182 6.40826 59.4857C6.78634 59.0648 7.15517 58.4895 7.59039 57.7892C8.1737 56.8505 9.10942 55.2836 10.6476 52.6322Z" stroke="#3A2F45" stroke-width="6.71563"/>
</svg>
