<svg width="395" height="362" viewBox="0 0 395 362" fill="none" xmlns="http://www.w3.org/2000/svg">
<path d="M74.092 346.312C74.8442 346.627 75.6328 346.78 76.4134 346.78C77.9542 346.78 79.4707 346.188 80.6152 345.067L154.197 273.117H324.548C379.833 273.117 379.833 229.788 379.833 218.284V70.8775C379.833 59.3773 379.833 15.2811 324.548 15.2812C285.163 15.2814 200.604 15.2813 135.5 15.2813L70.416 15.2812C15.8652 15.2812 15.8652 59.3773 15.8652 70.8775V218.284C15.8652 273.117 58.8701 273.117 70.416 273.117V340.8C70.416 343.21 71.8638 345.382 74.092 346.312Z" stroke="black" stroke-width="30"/>
</svg>
