<svg width="18" height="18" viewBox="0 0 18 18" fill="none" xmlns="http://www.w3.org/2000/svg">
<path fill-rule="evenodd" clip-rule="evenodd" d="M15.2016 8.25C14.8964 5.69821 13.0537 3.61881 10.6263 2.96475C10.8604 3.32521 11.0933 3.72892 11.3043 4.18528C11.7864 5.22813 12.1502 6.52922 12.2325 8.25H15.2016ZM8.9947 1.25C8.99517 1.25 8.99563 1.25 8.99609 1.25C8.99652 1.25 8.99695 1.25 8.99738 1.25C13.277 1.2507 16.7461 4.72022 16.7461 9C16.7461 13.279 13.2782 16.7481 8.99963 16.75C8.99766 16.75 8.9957 16.75 8.99374 16.75C4.71461 16.7487 1.24609 13.2794 1.24609 9C1.24609 4.72026 4.71514 1.25075 8.9947 1.25ZM2.79063 8.25C3.10004 5.66283 4.98993 3.56123 7.46716 2.93836C7.34049 3.15831 7.20871 3.4012 7.07701 3.66501C6.49794 4.82496 5.90808 6.41395 5.7769 8.25H2.79063ZM2.79063 9.75C3.10004 12.3372 4.98992 14.4388 7.46716 15.0616C7.34048 14.8417 7.20871 14.5988 7.07701 14.335C6.49794 13.175 5.90808 11.586 5.7769 9.75H2.79063ZM10.568 15.0507C13.0241 14.4144 14.8939 12.3222 15.2016 9.75H12.2324C12.1498 11.4636 11.7854 12.7317 11.3019 13.7573C11.0768 14.2349 10.8216 14.6638 10.568 15.0507ZM9.94276 4.81472C10.3325 5.65787 10.6505 6.74722 10.7306 8.25L7.28137 8.25C7.40929 6.71188 7.90902 5.3567 8.41907 4.33499C8.62733 3.91783 8.83536 3.56018 9.01661 3.27297C9.34227 3.71964 9.66214 4.2077 9.94276 4.81472ZM8.41907 13.665C7.90902 12.6433 7.40929 11.2881 7.28137 9.75H10.7304C10.6503 11.2408 10.3332 12.2943 9.94512 13.1177C9.65368 13.736 9.33056 14.2184 8.99536 14.6932C8.81919 14.4119 8.61923 14.066 8.41907 13.665Z" fill="#12131B"/>
</svg>
