<svg width="360" height="440" viewBox="0 0 360 440" fill="none" xmlns="http://www.w3.org/2000/svg">
<g clip-path="url(#clip0_4773_22492)">
<path fill-rule="evenodd" clip-rule="evenodd" d="M64 53C62.3431 53 61 54.3431 61 56V60C61 61.6569 62.3431 63 64 63H168C169.657 63 171 61.6569 171 60V56C171 54.3431 169.657 53 168 53H64ZM64 109C62.3431 109 61 110.343 61 112V116C61 117.657 62.3431 119 64 119H180C181.657 119 183 117.657 183 116V112C183 110.343 181.657 109 180 109H64ZM194 109C192.343 109 191 110.343 191 112V116C191 117.657 192.343 119 194 119H211C212.657 119 214 117.657 214 116V112C214 110.343 212.657 109 211 109H194ZM222 112C222 110.343 223.343 109 225 109H290C291.657 109 293 110.343 293 112V116C293 117.657 291.657 119 290 119H225C223.343 119 222 117.657 222 116V112ZM64 261C62.3431 261 61 262.343 61 264V268C61 269.657 62.3431 271 64 271H123C124.657 271 126 269.657 126 268V264C126 262.343 124.657 261 123 261H64ZM134 264C134 262.343 135.343 261 137 261H150C151.657 261 153 262.343 153 264V268C153 269.657 151.657 271 150 271H137C135.343 271 134 269.657 134 268V264ZM164 261C162.343 261 161 262.343 161 264V268C161 269.657 162.343 271 164 271H241C242.657 271 244 269.657 244 268V264C244 262.343 242.657 261 241 261H164ZM61 180C61 178.343 62.3431 177 64 177H168C169.657 177 171 178.343 171 180V184C171 185.657 169.657 187 168 187H64C62.3431 187 61 185.657 61 184V180ZM179 180C179 178.343 180.343 177 182 177H227C228.657 177 230 178.343 230 180V184C230 185.657 228.657 187 227 187H182C180.343 187 179 185.657 179 184V180ZM182 53C180.343 53 179 54.3431 179 56V60C179 61.6569 180.343 63 182 63H227C228.657 63 230 61.6569 230 60V56C230 54.3431 228.657 53 227 53H182ZM238 180C238 178.343 239.343 177 241 177H283C284.657 177 286 178.343 286 180V184C286 185.657 284.657 187 283 187H241C239.343 187 238 185.657 238 184V180ZM241 53C239.343 53 238 54.3431 238 56V60C238 61.6569 239.343 63 241 63H283C284.657 63 286 61.6569 286 60V56C286 54.3431 284.657 53 283 53H241ZM61 152C61 150.343 62.3431 149 64 149H204C205.657 149 207 150.343 207 152V156C207 157.657 205.657 159 204 159H64C62.3431 159 61 157.657 61 156V152ZM218 149C216.343 149 215 150.343 215 152V156C215 157.657 216.343 159 218 159H294C295.657 159 297 157.657 297 156V152C297 150.343 295.657 149 294 149H218ZM273 84C273 82.3431 274.343 81 276 81H296C297.657 81 299 82.3431 299 84V88C299 89.6569 297.657 91 296 91H276C274.343 91 273 89.6569 273 88V84ZM64 233C62.3431 233 61 234.343 61 236V240C61 241.657 62.3431 243 64 243H262C263.657 243 265 241.657 265 240V236C265 234.343 263.657 233 262 233H64ZM273 236C273 234.343 274.343 233 276 233H296C297.657 233 299 234.343 299 236V240C299 241.657 297.657 243 296 243H276C274.343 243 273 241.657 273 240V236ZM64 205C62.3431 205 61 206.343 61 208V212C61 213.657 62.3431 215 64 215H85C86.6569 215 88 213.657 88 212V208C88 206.343 86.6569 205 85 205H64ZM161 208C161 206.343 162.343 205 164 205H294C295.657 205 297 206.343 297 208V212C297 213.657 295.657 215 294 215H164C162.343 215 161 213.657 161 212V208ZM143 81C141.343 81 140 82.3431 140 84V88C140 89.6569 141.343 91 143 91H262C263.657 91 265 89.6569 265 88V84C265 82.3431 263.657 81 262 81H143Z" fill="url(#paint0_linear_4773_22492)"/>
<rect x="96" y="205" width="57" height="10" rx="3" fill="#C6F0D4"/>
<rect x="61" y="53" width="110" height="10" rx="3" fill="#C6F0D4"/>
<rect x="61" y="81" width="71" height="10" rx="3" fill="#2A2B34"/>
<rect x="179" y="53" width="51" height="10" rx="3" fill="#C6F0D4"/>
<rect x="238" y="53" width="48" height="10" rx="3" fill="#C6F0D4"/>
<rect x="61" y="81" width="71" height="10" rx="3" fill="#C6F0D4"/>
<g opacity="0.8" filter="url(#filter0_f_4773_22492)">
<ellipse cx="169.582" cy="457.489" rx="124.091" ry="30.1491" transform="rotate(-27.7096 169.582 457.489)" fill="#6AE394"/>
</g>
<path d="M333.558 367.291C342.403 386.42 335.206 410.912 316.131 435.124C297.075 459.312 266.254 483.09 228.177 500.697C190.1 518.303 152.021 526.384 121.25 525.236C90.4477 524.087 67.126 513.706 58.2808 494.577C49.4355 475.448 56.6327 450.956 75.708 426.744C94.7642 402.556 125.585 378.778 163.662 361.171C201.739 343.565 239.818 335.484 270.589 336.632C301.391 337.782 324.713 348.162 333.558 367.291Z" stroke="white" stroke-opacity="0.08"/>
<path d="M286.522 389.513C292.304 402.018 287.618 418.07 275.08 433.99C262.561 449.887 242.303 465.522 217.264 477.1C192.225 488.677 167.191 493.985 146.971 493.227C126.72 492.468 111.456 485.641 105.674 473.136C99.8912 460.63 104.577 444.579 117.115 428.658C129.634 412.762 149.892 397.127 174.931 385.549C199.97 373.971 225.004 368.663 245.224 369.421C265.475 370.181 280.739 377.007 286.522 389.513Z" stroke="white" stroke-opacity="0.08"/>
<path d="M249.009 406.863C252.354 414.098 249.662 423.435 242.317 432.762C234.991 442.064 223.125 451.225 208.448 458.012C193.771 464.798 179.106 467.905 167.273 467.461C155.41 467.016 146.552 463.019 143.207 455.785C139.862 448.551 142.554 439.213 149.899 429.886C157.225 420.584 169.09 411.423 183.768 404.637C198.445 397.85 213.11 394.743 224.942 395.187C236.806 395.632 245.663 399.629 249.009 406.863Z" stroke="white" stroke-opacity="0.08"/>
<path d="M389.916 341.707C402.397 368.7 392.205 403.218 365.347 437.284C338.508 471.326 295.118 504.785 241.529 529.564C187.94 554.343 134.344 565.73 91.0245 564.129C47.6738 562.526 14.7731 547.934 2.29191 520.941C-10.1893 493.949 0.00312055 459.431 26.8611 425.364C53.6998 391.323 97.09 357.864 150.679 333.085C204.268 308.306 257.864 296.919 301.183 298.52C344.534 300.122 377.435 314.715 389.916 341.707Z" stroke="white" stroke-opacity="0.08"/>
<g filter="url(#filter1_di_4773_22492)">
<circle cx="268.635" cy="373.635" r="7.63483" fill="#C6F0D4"/>
</g>
<g filter="url(#filter2_di_4773_22492)">
<circle cx="213.762" cy="342.762" r="1.76188" fill="#C6F0D4"/>
</g>
<g filter="url(#filter3_di_4773_22492)">
<circle cx="97.7619" cy="308.762" r="1.76188" fill="#C6F0D4"/>
</g>
<g filter="url(#filter4_di_4773_22492)">
<circle cx="80" cy="374" r="4" fill="#C6F0D4"/>
</g>
<g filter="url(#filter5_di_4773_22492)">
<circle cx="193.762" cy="400.762" r="1.76188" fill="#C6F0D4"/>
</g>
</g>
<rect x="37.5" y="18.5" width="285" height="389" rx="7.5" stroke="#414349"/>
<g clip-path="url(#clip1_4773_22492)" filter="url(#filter6_d_4773_22492)">
<mask id="path-20-inside-1_4773_22492" fill="white">
<path fill-rule="evenodd" clip-rule="evenodd" d="M89.4142 96.4139C88.6332 95.6329 87.3668 95.6329 86.5858 96.4139L82 101H33C28.5817 101 25 104.581 25 109V129C25 133.418 28.5817 137 33 137H143C147.418 137 151 133.418 151 129V109C151 104.581 147.418 101 143 101H94L89.4142 96.4139Z"/>
</mask>
<path fill-rule="evenodd" clip-rule="evenodd" d="M89.4142 96.4139C88.6332 95.6329 87.3668 95.6329 86.5858 96.4139L82 101H33C28.5817 101 25 104.581 25 109V129C25 133.418 28.5817 137 33 137H143C147.418 137 151 133.418 151 129V109C151 104.581 147.418 101 143 101H94L89.4142 96.4139Z" fill="#1D1E26"/>
<path d="M86.5858 96.4139L87.2929 97.121V97.121L86.5858 96.4139ZM89.4142 96.4139L90.1213 95.7068V95.7068L89.4142 96.4139ZM82 101V102H82.4142L82.7071 101.707L82 101ZM94 101L93.2929 101.707L93.5858 102H94V101ZM87.2929 97.121C87.6834 96.7305 88.3166 96.7305 88.7071 97.121L90.1213 95.7068C88.9497 94.5352 87.0503 94.5352 85.8787 95.7068L87.2929 97.121ZM82.7071 101.707L87.2929 97.121L85.8787 95.7068L81.2929 100.293L82.7071 101.707ZM33 102H82V99.9997H33V102ZM26 109C26 105.134 29.134 102 33 102V99.9997C28.0294 99.9997 24 104.029 24 109H26ZM26 129V109H24V129H26ZM33 136C29.134 136 26 132.866 26 129H24C24 133.97 28.0294 138 33 138V136ZM143 136H33V138H143V136ZM150 129C150 132.866 146.866 136 143 136V138C147.971 138 152 133.97 152 129H150ZM150 109V129H152V109H150ZM143 102C146.866 102 150 105.134 150 109H152C152 104.029 147.971 99.9997 143 99.9997V102ZM94 102H143V99.9997H94V102ZM88.7071 97.121L93.2929 101.707L94.7071 100.293L90.1213 95.7068L88.7071 97.121Z" fill="#6AE394" mask="url(#path-20-inside-1_4773_22492)"/>
<rect x="31" y="107" width="24" height="24" rx="5" fill="#1D1E26"/>
<path fill-rule="evenodd" clip-rule="evenodd" d="M39 111.75C37.4812 111.75 36.25 112.981 36.25 114.5V115.5C36.25 117.019 37.4812 118.25 39 118.25H47C48.5188 118.25 49.75 117.019 49.75 115.5V114.5C49.75 112.981 48.5188 111.75 47 111.75H39ZM37.75 114.5C37.75 113.81 38.3096 113.25 39 113.25H47C47.6904 113.25 48.25 113.81 48.25 114.5V115.5C48.25 116.19 47.6904 116.75 47 116.75H39C38.3096 116.75 37.75 116.19 37.75 115.5V114.5ZM39 119.75C37.4812 119.75 36.25 120.981 36.25 122.5V123.5C36.25 125.019 37.4812 126.25 39 126.25H43C44.5188 126.25 45.75 125.019 45.75 123.5V122.5C45.75 120.981 44.5188 119.75 43 119.75H39ZM37.75 122.5C37.75 121.81 38.3096 121.25 39 121.25H43C43.6904 121.25 44.25 121.81 44.25 122.5V123.5C44.25 124.19 43.6904 124.75 43 124.75H39C38.3096 124.75 37.75 124.19 37.75 123.5V122.5Z" fill="#C7C7CA"/>
<path fill-rule="evenodd" clip-rule="evenodd" d="M100 111.25C97.3766 111.25 95.25 113.377 95.25 116V122C95.25 124.623 97.3766 126.75 100 126.75H106C108.623 126.75 110.75 124.623 110.75 122V116C110.75 113.377 108.623 111.25 106 111.25H100ZM96.75 116C96.75 114.205 98.2051 112.75 100 112.75H106C107.795 112.75 109.25 114.205 109.25 116V122C109.25 123.795 107.795 125.25 106 125.25H100C98.2051 125.25 96.75 123.795 96.75 122V116ZM101.5 115.75C100.534 115.75 99.75 116.534 99.75 117.5V120.5C99.75 121.466 100.534 122.25 101.5 122.25H104.5C105.466 122.25 106.25 121.466 106.25 120.5V117.5C106.25 116.534 105.466 115.75 104.5 115.75H101.5ZM101.25 117.5C101.25 117.362 101.362 117.25 101.5 117.25H104.5C104.638 117.25 104.75 117.362 104.75 117.5V120.5C104.75 120.638 104.638 120.75 104.5 120.75H101.5C101.362 120.75 101.25 120.638 101.25 120.5V117.5Z" fill="#C7C7CA"/>
<rect x="61" y="107" width="24" height="24" rx="5" fill="#373840"/>
<path fill-rule="evenodd" clip-rule="evenodd" d="M69 112.752C67.4812 112.752 66.25 113.983 66.25 115.502V125.002C66.25 125.305 66.4327 125.579 66.713 125.695C66.9932 125.811 67.3158 125.747 67.5303 125.532L69.8107 123.252H77C78.5188 123.252 79.75 122.021 79.75 120.502V115.502C79.75 113.983 78.5188 112.752 77 112.752H69ZM67.75 115.502C67.75 114.812 68.3096 114.252 69 114.252H77C77.6904 114.252 78.25 114.812 78.25 115.502V120.502C78.25 121.192 77.6904 121.752 77 121.752H69.5C69.3011 121.752 69.1103 121.831 68.9697 121.972L67.75 123.191V115.502ZM71 117.252C70.5858 117.252 70.25 117.588 70.25 118.002C70.25 118.416 70.5858 118.752 71 118.752H75C75.4142 118.752 75.75 118.416 75.75 118.002C75.75 117.588 75.4142 117.252 75 117.252H71Z" fill="#F4F4F4"/>
<path fill-rule="evenodd" clip-rule="evenodd" d="M137.53 115.53C137.823 115.237 137.823 114.763 137.53 114.47C137.237 114.177 136.763 114.177 136.47 114.47L133 117.939L129.53 114.47C129.237 114.177 128.763 114.177 128.47 114.47C128.177 114.763 128.177 115.237 128.47 115.53L131.939 119L128.47 122.47C128.177 122.763 128.177 123.237 128.47 123.53C128.763 123.823 129.237 123.823 129.53 123.53L133 120.061L136.47 123.53C136.763 123.823 137.237 123.823 137.53 123.53C137.823 123.237 137.823 122.763 137.53 122.47L134.061 119L137.53 115.53Z" fill="#74757A"/>
</g>
<g filter="url(#filter7_d_4773_22492)">
<path fill-rule="evenodd" clip-rule="evenodd" d="M72.8205 139.45C72.9708 139.586 73.0746 139.683 73.3952 139.987C73.7093 140.286 73.8612 140.427 74.0001 140.545C74.058 140.593 74.1074 140.724 74.1269 140.918C74.143 141.077 74.1374 141.255 74.1179 141.427C74.1112 141.486 74.1047 141.529 74.1009 141.549C74.0591 141.778 74.2334 141.989 74.466 141.992C74.6753 141.994 74.8366 141.996 75.2634 142.004C75.3702 142.006 75.3702 142.006 75.4774 142.008C76.6377 142.028 77.2303 142.022 77.6556 141.969C78.1102 141.912 78.5784 141.363 78.9831 140.674C79.3261 141.283 79.8018 141.879 80.2821 141.956C80.4347 141.98 80.6194 141.988 80.8333 141.983C80.9929 141.979 81.1617 141.969 81.332 141.954C81.4605 141.942 81.5629 141.931 81.624 141.923C81.8499 141.893 81.9978 141.671 81.9374 141.451C81.9244 141.404 81.9034 141.317 81.8823 141.207C81.8578 141.08 81.8401 140.956 81.832 140.843C81.8269 140.771 81.8259 140.706 81.8292 140.65C81.8348 140.553 81.8366 140.498 81.8393 140.371C81.8404 140.324 81.8404 140.324 81.8418 140.283C81.847 140.148 81.8652 140.02 81.9238 139.741C81.949 139.62 82.0711 139.388 82.2634 139.101C82.3207 139.015 82.3833 138.926 82.4504 138.834C82.5776 138.659 82.7145 138.482 82.8514 138.313C82.9335 138.212 82.9969 138.136 83.0322 138.095C83.3285 137.671 83.6443 136.976 83.7604 136.57C83.8718 136.179 83.9609 135.46 84.0157 134.754C84.0457 134.353 84.0568 134.03 84.0568 133.523C84.0569 133.434 84.0569 133.434 84.057 133.36C84.0573 133.24 84.0573 133.195 84.0569 133.138C84.0558 132.985 84.0514 132.833 84.0365 132.444C84.0046 131.631 83.5587 131.105 82.9017 131.003C82.3427 130.917 81.6623 131.381 81.6623 131.381C81.6623 131.381 81.5108 130.858 81.4086 130.697C81.2424 130.438 80.8144 130.107 80.4872 130.043C80.1507 129.977 79.7518 129.985 79.3855 130.049C79.0647 130.107 78.7451 130.393 78.5603 130.702C78.4281 130.923 78.5524 130.691 78.4202 130.463C78.2371 130.149 77.8108 129.867 77.4049 129.784C77.061 129.713 76.6669 129.74 76.307 129.847C75.8439 129.986 75.7702 130.338 75.7518 130.237C75.6902 129.899 75.6845 129.921 75.6461 129.68C75.5036 128.785 75.344 128.165 75.1021 127.625C75.116 127.656 75.0135 127.422 74.9762 127.342C74.9116 127.203 74.8471 127.077 74.7762 126.955C74.5577 126.582 74.3073 126.302 73.9931 126.143C73.4475 125.867 72.6297 126.001 72.242 126.454C71.8571 126.903 71.7929 127.655 71.8898 128.586C71.9268 128.947 72.0566 129.606 72.1743 130.094C72.2159 130.263 72.2523 130.417 72.3192 130.702C72.3307 130.751 72.3307 130.751 72.3423 130.799C72.394 131.015 72.4394 131.192 72.4935 131.387C72.4878 131.367 72.5905 131.731 72.6124 131.812C72.6197 131.839 72.6197 131.839 72.6269 131.866C72.6677 132.02 72.7076 132.185 72.77 132.462C72.8041 132.614 72.8374 132.777 72.87 132.949C72.9588 133.419 72.9592 133.321 72.8737 133.221C72.8147 133.152 72.7591 133.089 72.7054 133.031C72.6057 132.923 72.5139 132.834 72.4269 132.763C71.7925 132.244 71.4037 132.015 70.8701 131.964C69.9946 131.88 69.1639 132.499 69.0389 133.333C68.9621 133.845 68.9869 134.08 69.2236 134.533C69.3538 134.777 69.5742 135.072 69.9853 135.58C70.0105 135.611 70.0105 135.611 70.0356 135.642C70.5402 136.264 70.5952 136.333 70.7152 136.507C71.0396 136.978 71.8292 138.329 71.9727 138.51L72.8205 139.45Z" fill="#2A2B33"/>
</g>
<path fill-rule="evenodd" clip-rule="evenodd" d="M70.6184 135.169C70.5935 135.139 70.5935 135.139 70.5687 135.108C70.1914 134.642 69.9845 134.365 69.8871 134.182C69.7343 133.89 69.726 133.811 69.7811 133.444C69.8458 133.012 70.3129 132.664 70.7994 132.711C71.136 132.743 71.43 132.916 71.9528 133.344C72.0093 133.39 72.0776 133.456 72.1556 133.541C72.2018 133.591 72.2508 133.646 72.3036 133.708C72.383 133.801 72.6507 134.128 72.6112 134.081C72.6694 134.151 72.711 134.205 72.7585 134.271C72.8526 134.406 72.9055 134.48 72.9772 134.576C72.9436 134.531 73.1919 134.874 73.2445 134.924C73.5231 135.19 73.9266 134.966 73.9013 134.612C73.8971 134.553 73.8832 134.489 73.8541 134.377C73.7392 133.558 73.6991 133.295 73.6073 132.81C73.5733 132.63 73.5383 132.459 73.5021 132.298C73.4378 132.012 73.3958 131.838 73.3522 131.673C73.3444 131.644 73.3444 131.644 73.3367 131.616C73.3136 131.531 73.2094 131.161 73.2163 131.186C73.165 131.001 73.1218 130.832 73.072 130.624C73.0607 130.577 73.0607 130.577 73.0494 130.529C72.9829 130.246 72.9455 130.088 72.9034 129.916C72.7934 129.461 72.6691 128.829 72.6363 128.509C72.5608 127.784 72.6129 127.174 72.8121 126.942C72.9676 126.76 73.4085 126.688 73.6548 126.812C73.8159 126.894 73.9768 127.074 74.1292 127.334C74.1868 127.433 74.2409 127.538 74.2962 127.658C74.3298 127.73 74.4292 127.956 74.418 127.931C74.6283 128.401 74.7728 128.962 74.9059 129.798C74.9453 130.045 74.994 130.326 75.0565 130.669C75.0751 130.771 75.0751 130.771 75.0938 130.872C75.3951 132.508 75.3731 132.384 75.3774 132.514C75.3932 132.99 76.0955 133.001 76.1264 132.526C76.1362 132.375 76.1327 132.241 76.1153 131.855C76.1129 131.8 76.1129 131.8 76.1105 131.746C76.0953 131.39 76.0962 131.185 76.1172 131.068C76.1556 130.856 76.3461 130.618 76.5216 130.566C76.768 130.493 77.038 130.474 77.2543 130.519C77.4613 130.561 77.7029 130.721 77.7722 130.84C77.8558 130.984 77.9274 131.203 77.9823 131.475C78.0266 131.694 78.0571 131.93 78.0786 132.181C78.0852 132.259 78.0896 132.32 78.0963 132.42C78.0991 132.462 78.0991 132.462 78.102 132.496C78.1036 132.513 78.1036 132.513 78.1075 132.541C78.1105 132.56 78.1105 132.56 78.1248 132.608C78.1321 132.746 78.1321 132.746 78.6856 132.797C78.8509 132.598 78.8509 132.598 78.8464 132.563C78.8735 132.444 78.8901 132.312 78.9137 132.064C78.9288 131.903 78.9364 131.824 78.9453 131.742C78.9821 131.402 79.0288 131.186 79.0858 131.091C79.1565 130.972 79.4056 130.808 79.5173 130.788C79.7978 130.738 80.1059 130.733 80.3437 130.779C80.4515 130.8 80.7143 131.003 80.7765 131.1C80.9042 131.302 81.0284 131.951 81.0984 132.596C81.0874 132.638 81.0874 132.638 81.2591 132.884C81.8495 132.816 81.8495 132.816 81.8329 132.71C81.8485 132.672 81.8608 132.628 81.8784 132.56C81.9206 132.4 81.9486 132.307 81.9902 132.203C82.019 132.132 82.0494 132.07 82.0806 132.021C82.2012 131.831 82.5136 131.702 82.7876 131.744C83.0819 131.79 83.2694 132.011 83.2875 132.473C83.302 132.854 83.3063 133 83.3073 133.144C83.3077 133.197 83.3077 133.239 83.3074 133.359C83.3073 133.433 83.3073 133.433 83.3072 133.523C83.3072 134.012 83.2967 134.316 83.2683 134.697C83.2176 135.35 83.1322 136.04 83.0396 136.364C82.9452 136.694 82.6632 137.315 82.4399 137.637C82.424 137.653 82.3561 137.734 82.2692 137.841C82.1246 138.019 81.9799 138.206 81.8444 138.392C81.7718 138.492 81.7037 138.589 81.6407 138.683C81.397 139.047 81.2407 139.344 81.1901 139.587C81.1236 139.904 81.0999 140.072 81.0927 140.254C81.091 140.305 81.091 140.305 81.0899 140.355C81.0873 140.473 81.0858 140.521 81.0808 140.607C81.0756 140.698 81.0771 140.794 81.0843 140.896C81.0947 141.042 81.0843 141.242 81.0843 141.242C81.0843 141.242 80.9577 141.23 80.8165 141.233C80.644 141.237 80.5005 141.231 80.4014 141.215C80.2583 141.192 79.872 140.709 79.6742 140.332C79.3719 139.756 78.6382 139.784 78.3374 140.293C78.0661 140.755 77.6777 141.21 77.5624 141.225C77.1878 141.272 76.6077 141.277 75.4907 141.258C75.3839 141.256 75.3839 141.256 75.2772 141.254C74.8483 141.247 74.8648 141.319 74.8736 141.242C74.8986 141.021 74.8958 141.063 74.8736 140.842C74.8363 140.473 74.7223 140.172 74.4848 139.972C74.3619 139.868 74.215 139.731 73.9198 139.451C73.5826 139.13 73.4769 139.031 73.3468 138.917L72.5455 138.026C72.4575 137.914 71.6855 136.592 71.333 136.081C71.1959 135.882 71.1446 135.818 70.6184 135.169ZM80.1271 135.173V138.632C80.1271 139.132 80.8771 139.132 80.8771 138.632V135.173C80.8771 134.673 80.1271 134.673 80.1271 135.173ZM78.0955 135.173L78.1115 138.646C78.1138 139.146 78.8638 139.142 78.8615 138.642L78.8455 135.169C78.8432 134.669 78.0932 134.673 78.0955 135.173ZM76.8864 138.626L76.8654 135.2C76.8623 134.7 76.1124 134.705 76.1154 135.205L76.1364 138.631C76.1395 139.131 76.8895 139.126 76.8864 138.626Z" fill="#C7C7CA"/>
<g filter="url(#filter8_d_4773_22492)">
<rect x="116.5" y="221.5" width="192" height="37" rx="7.5" fill="#1D1E26"/>
<path d="M130.736 244H131.564L133.868 236.704L136.172 244H136.988L139.568 235.408H138.692L136.916 241.324C136.82 241.648 136.712 242.068 136.58 242.728C136.448 242.176 136.328 241.744 136.196 241.312L134.324 235.408H133.424L131.552 241.312C131.42 241.732 131.3 242.104 131.156 242.728C131.048 242.164 130.94 241.732 130.82 241.312L129.08 235.408H128.18L130.736 244ZM141.434 243.988V240.832C141.434 239.716 142.082 238.792 143.33 238.792C144.23 238.792 144.866 239.272 144.866 240.628V244H145.694V240.448C145.694 238.984 145.01 238.036 143.486 238.036C142.514 238.036 141.806 238.504 141.434 239.2V235.252H140.606V243.988H141.434ZM149.012 244.144C149.996 244.144 150.788 243.712 151.148 242.98L151.256 244H151.952V240.244C151.952 238.708 150.968 238.036 149.624 238.036C148.196 238.036 147.236 238.792 147.236 239.968H147.992C147.992 239.188 148.592 238.732 149.6 238.732C150.452 238.732 151.136 239.092 151.136 240.232V240.424L149.216 240.58C147.86 240.688 147.044 241.36 147.044 242.428C147.044 243.448 147.776 244.144 149.012 244.144ZM149.204 243.472C148.412 243.472 147.884 243.112 147.884 242.404C147.884 241.756 148.328 241.276 149.42 241.18L151.136 241.048V241.36C151.136 242.62 150.428 243.472 149.204 243.472ZM155.921 243.268C155.729 243.34 155.537 243.376 155.369 243.376C154.913 243.376 154.601 243.112 154.601 242.488V238.888H155.993V238.192H154.601V236.356H153.773V238.192H152.861V238.888H153.773V242.548C153.773 243.532 154.253 244.12 155.189 244.12C155.453 244.12 155.741 244.072 156.041 243.976L155.921 243.268ZM162.96 244.144C163.932 244.144 164.748 243.712 165.156 242.812L165.24 244H165.96V235.252H165.132V239.296C164.724 238.456 163.956 238.036 162.996 238.036C161.268 238.036 160.272 239.356 160.272 241.108C160.272 242.848 161.268 244.144 162.96 244.144ZM163.104 243.388C161.844 243.388 161.112 242.428 161.112 241.084C161.112 239.752 161.844 238.78 163.104 238.78C164.376 238.78 165.12 239.752 165.12 241.084C165.12 242.428 164.376 243.388 163.104 243.388ZM167.28 241.096C167.28 242.86 168.528 244.144 170.232 244.144C171.936 244.144 173.184 242.86 173.184 241.096C173.184 239.32 171.936 238.036 170.232 238.036C168.528 238.036 167.28 239.32 167.28 241.096ZM168.12 241.084C168.12 239.74 168.984 238.78 170.232 238.78C171.468 238.78 172.344 239.74 172.344 241.084C172.344 242.452 171.468 243.4 170.232 243.4C168.984 243.4 168.12 242.452 168.12 241.084ZM177.249 246.532C177.513 246.592 177.777 246.616 178.125 246.616C178.953 246.616 179.517 246.244 179.853 245.332L182.517 238.192H181.665L179.829 243.256L177.957 238.192H177.081L179.433 244.348L179.181 245.032C178.893 245.812 178.389 245.848 177.885 245.848H177.249V246.532ZM182.878 241.096C182.878 242.86 184.126 244.144 185.83 244.144C187.534 244.144 188.782 242.86 188.782 241.096C188.782 239.32 187.534 238.036 185.83 238.036C184.126 238.036 182.878 239.32 182.878 241.096ZM183.718 241.084C183.718 239.74 184.582 238.78 185.83 238.78C187.066 238.78 187.942 239.74 187.942 241.084C187.942 242.452 187.066 243.4 185.83 243.4C184.582 243.4 183.718 242.452 183.718 241.084ZM194.046 238.192V241.276C194.046 242.656 193.386 243.4 192.27 243.4C191.346 243.4 190.734 242.908 190.734 241.528V238.18H189.894V241.792C189.894 243.208 190.638 244.144 192.006 244.144C192.918 244.144 193.722 243.688 194.046 243.016L194.154 244H194.874V238.192H194.046ZM202.339 243.268C202.146 243.34 201.955 243.376 201.787 243.376C201.331 243.376 201.019 243.112 201.019 242.488V238.888H202.411V238.192H201.019V236.356H200.191V238.192H199.279V238.888H200.191V242.548C200.191 243.532 200.671 244.12 201.607 244.12C201.871 244.12 202.159 244.072 202.459 243.976L202.339 243.268ZM204.598 243.988V240.832C204.598 239.716 205.246 238.792 206.494 238.792C207.394 238.792 208.03 239.272 208.03 240.628V244H208.858V240.448C208.858 238.984 208.174 238.036 206.65 238.036C205.678 238.036 204.97 238.504 204.598 239.2V235.252H203.77V243.988H204.598ZM210.917 236.596C211.253 236.596 211.541 236.32 211.541 235.984C211.541 235.648 211.253 235.36 210.917 235.36C210.581 235.36 210.305 235.648 210.305 235.984C210.305 236.32 210.581 236.596 210.917 236.596ZM210.509 244H211.337V238.192H210.509V244ZM213.891 244V240.964C213.891 239.656 214.563 238.792 215.751 238.792C216.711 238.792 217.323 239.272 217.323 240.628V244H218.151V240.448C218.151 238.984 217.491 238.036 215.895 238.036C215.055 238.036 214.287 238.456 213.903 239.2L213.783 238.192H213.063V244H213.891ZM220.666 244V242.26L221.794 241.096L223.642 244H224.602L222.358 240.508L224.59 238.192H223.546L220.666 241.192V235.252H219.838V244H220.666ZM230.587 244.144C231.571 244.144 232.363 243.712 232.723 242.98L232.831 244H233.527V240.244C233.527 238.708 232.543 238.036 231.199 238.036C229.771 238.036 228.811 238.792 228.811 239.968H229.567C229.567 239.188 230.167 238.732 231.175 238.732C232.027 238.732 232.711 239.092 232.711 240.232V240.424L230.791 240.58C229.435 240.688 228.619 241.36 228.619 242.428C228.619 243.448 229.351 244.144 230.587 244.144ZM230.779 243.472C229.987 243.472 229.459 243.112 229.459 242.404C229.459 241.756 229.903 241.276 230.995 241.18L232.711 241.048V241.36C232.711 242.62 232.003 243.472 230.779 243.472ZM235.908 244L235.992 242.812C236.4 243.712 237.204 244.144 238.176 244.144C239.868 244.144 240.876 242.848 240.876 241.108C240.876 239.356 239.892 238.036 238.2 238.036C237.216 238.036 236.424 238.468 236.016 239.32V235.252H235.188V244H235.908ZM236.028 241.084C236.028 239.752 236.772 238.78 238.044 238.78C239.304 238.78 240.036 239.752 240.036 241.084C240.036 242.428 239.304 243.388 238.044 243.388C236.772 243.388 236.028 242.428 236.028 241.084ZM241.788 241.096C241.788 242.86 243.036 244.144 244.74 244.144C246.444 244.144 247.692 242.86 247.692 241.096C247.692 239.32 246.444 238.036 244.74 238.036C243.036 238.036 241.788 239.32 241.788 241.096ZM242.628 241.084C242.628 239.74 243.492 238.78 244.74 238.78C245.976 238.78 246.852 239.74 246.852 241.084C246.852 242.452 245.976 243.4 244.74 243.4C243.492 243.4 242.628 242.452 242.628 241.084ZM252.956 238.192V241.276C252.956 242.656 252.296 243.4 251.18 243.4C250.256 243.4 249.644 242.908 249.644 241.528V238.18H248.804V241.792C248.804 243.208 249.548 244.144 250.916 244.144C251.828 244.144 252.632 243.688 252.956 243.016L253.064 244H253.784V238.192H252.956ZM257.921 243.268C257.729 243.34 257.537 243.376 257.369 243.376C256.913 243.376 256.601 243.112 256.601 242.488V238.888H257.993V238.192H256.601V236.356H255.773V238.192H254.861V238.888H255.773V242.548C255.773 243.532 256.253 244.12 257.189 244.12C257.453 244.12 257.741 244.072 258.041 243.976L257.921 243.268ZM265.092 243.268C264.9 243.34 264.708 243.376 264.54 243.376C264.084 243.376 263.772 243.112 263.772 242.488V238.888H265.164V238.192H263.772V236.356H262.944V238.192H262.032V238.888H262.944V242.548C262.944 243.532 263.424 244.12 264.36 244.12C264.624 244.12 264.912 244.072 265.212 243.976L265.092 243.268ZM267.352 243.988V240.832C267.352 239.716 268 238.792 269.248 238.792C270.148 238.792 270.784 239.272 270.784 240.628V244H271.612V240.448C271.612 238.984 270.928 238.036 269.404 238.036C268.432 238.036 267.724 238.504 267.352 239.2V235.252H266.524V243.988H267.352ZM273.67 236.596C274.006 236.596 274.294 236.32 274.294 235.984C274.294 235.648 274.006 235.36 273.67 235.36C273.334 235.36 273.058 235.648 273.058 235.984C273.058 236.32 273.334 236.596 273.67 236.596ZM273.262 244H274.09V238.192H273.262V244ZM275.325 242.368C275.325 243.448 276.141 244.144 277.449 244.144C278.769 244.144 279.657 243.46 279.657 242.416C279.657 241.576 279.201 241.108 278.193 240.856L277.197 240.604C276.561 240.448 276.249 240.136 276.249 239.692C276.249 239.068 276.705 238.72 277.521 238.72C278.301 238.72 278.769 239.116 278.793 239.788H279.597C279.561 238.708 278.769 238.036 277.545 238.036C276.297 238.036 275.445 238.684 275.445 239.704C275.445 240.496 275.937 241.024 276.945 241.276L277.941 241.528C278.625 241.696 278.865 241.972 278.865 242.452C278.865 243.076 278.337 243.46 277.437 243.46C276.621 243.46 276.117 243.04 276.117 242.368H275.325ZM283.336 242.032V241.72C283.336 241.084 283.756 240.688 284.428 240.208C285.136 239.68 285.928 239.068 285.928 237.832C285.928 236.368 284.908 235.252 283.264 235.252C281.752 235.252 280.564 236.416 280.564 237.916H281.404C281.404 236.872 282.22 236.044 283.264 236.044C284.368 236.044 285.076 236.836 285.076 237.856C285.076 238.732 284.488 239.224 283.864 239.704C283.192 240.208 282.556 240.736 282.556 241.72V242.032H283.336ZM283 244.168C283.408 244.168 283.744 243.82 283.744 243.412C283.744 243.004 283.408 242.668 283 242.668C282.58 242.668 282.244 243.004 282.244 243.412C282.244 243.82 282.58 244.168 283 244.168Z" fill="#F4F4F4"/>
<rect x="116.5" y="221.5" width="192" height="37" rx="7.5" stroke="#414349"/>
<rect x="131.5" y="263.5" width="177" height="37" rx="7.5" fill="#1D1E26"/>
<path d="M147.644 278.08C148.904 278.08 149.912 278.68 150.272 279.856H151.208C150.872 278.296 149.468 277.264 147.656 277.264C145.196 277.264 143.516 279.112 143.516 281.74C143.516 284.392 145.196 286.144 147.632 286.144C149.024 286.144 150.104 285.496 150.56 284.644L150.644 286.012H151.328V281.356H147.404V282.124H150.512V282.568C150.512 284.632 149.108 285.328 147.668 285.328C145.736 285.328 144.416 283.972 144.416 281.74C144.416 279.544 145.664 278.08 147.644 278.08ZM155.9 280.12C155.696 280.072 155.54 280.06 155.36 280.06C154.544 280.06 153.932 280.468 153.704 281.092L153.644 280.192H152.864V286H153.692V282.688C153.692 281.584 154.376 280.864 155.444 280.864H155.9V280.12ZM159.214 286.144C160.582 286.144 161.482 285.484 161.794 284.26H161.002C160.786 285.028 160.174 285.436 159.226 285.436C157.978 285.436 157.234 284.62 157.174 283.204H161.794V282.796C161.794 281.152 160.726 280.036 159.154 280.036C157.498 280.036 156.37 281.284 156.37 283.096C156.37 284.92 157.51 286.144 159.214 286.144ZM159.154 280.744C160.246 280.744 160.966 281.488 160.966 282.604H157.198C157.342 281.464 158.062 280.744 159.154 280.744ZM164.727 286.144C165.711 286.144 166.503 285.712 166.863 284.98L166.971 286H167.667V282.244C167.667 280.708 166.683 280.036 165.339 280.036C163.911 280.036 162.951 280.792 162.951 281.968H163.707C163.707 281.188 164.307 280.732 165.315 280.732C166.167 280.732 166.851 281.092 166.851 282.232V282.424L164.931 282.58C163.575 282.688 162.759 283.36 162.759 284.428C162.759 285.448 163.491 286.144 164.727 286.144ZM164.919 285.472C164.127 285.472 163.599 285.112 163.599 284.404C163.599 283.756 164.043 283.276 165.135 283.18L166.851 283.048V283.36C166.851 284.62 166.143 285.472 164.919 285.472ZM171.635 285.268C171.443 285.34 171.251 285.376 171.083 285.376C170.627 285.376 170.315 285.112 170.315 284.488V280.888H171.707V280.192H170.315V278.356H169.487V280.192H168.575V280.888H169.487V284.548C169.487 285.532 169.967 286.12 170.903 286.12C171.167 286.12 171.455 286.072 171.755 285.976L171.635 285.268ZM176.395 288.532H177.223V284.884C177.631 285.724 178.411 286.144 179.395 286.144C181.111 286.144 182.083 284.824 182.083 283.072C182.083 281.32 181.075 280.036 179.395 280.036C178.423 280.036 177.607 280.468 177.199 281.368L177.115 280.192H176.395V288.532ZM177.235 283.096C177.235 281.752 177.979 280.792 179.251 280.792C180.511 280.792 181.243 281.752 181.243 283.096C181.243 284.428 180.511 285.4 179.251 285.4C177.979 285.4 177.235 284.428 177.235 283.096ZM182.995 283.096C182.995 284.86 184.243 286.144 185.947 286.144C187.651 286.144 188.899 284.86 188.899 283.096C188.899 281.32 187.651 280.036 185.947 280.036C184.243 280.036 182.995 281.32 182.995 283.096ZM183.835 283.084C183.835 281.74 184.699 280.78 185.947 280.78C187.183 280.78 188.059 281.74 188.059 283.084C188.059 284.452 187.183 285.4 185.947 285.4C184.699 285.4 183.835 284.452 183.835 283.084ZM190.631 278.596C190.967 278.596 191.255 278.32 191.255 277.984C191.255 277.648 190.967 277.36 190.631 277.36C190.295 277.36 190.019 277.648 190.019 277.984C190.019 278.32 190.295 278.596 190.631 278.596ZM190.223 286H191.051V280.192H190.223V286ZM193.606 286V282.964C193.606 281.656 194.278 280.792 195.466 280.792C196.426 280.792 197.038 281.272 197.038 282.628V286H197.866V282.448C197.866 280.984 197.206 280.036 195.61 280.036C194.77 280.036 194.002 280.456 193.618 281.2L193.498 280.192H192.778V286H193.606ZM201.928 285.268C201.736 285.34 201.544 285.376 201.376 285.376C200.92 285.376 200.608 285.112 200.608 284.488V280.888H202V280.192H200.608V278.356H199.78V280.192H198.868V280.888H199.78V284.548C199.78 285.532 200.26 286.12 201.196 286.12C201.46 286.12 201.748 286.072 202.048 285.976L201.928 285.268ZM204.416 283.42C204.512 282.568 204.572 280.996 204.572 279.436V277.408H203.672V279.436C203.672 280.984 203.72 282.568 203.816 283.42H204.416ZM204.128 286.168C204.524 286.168 204.872 285.82 204.872 285.412C204.872 285.004 204.524 284.668 204.128 284.668C203.708 284.668 203.372 285.004 203.372 285.412C203.372 285.82 203.708 286.168 204.128 286.168Z" fill="#F4F4F4"/>
<rect x="131.5" y="263.5" width="177" height="37" rx="7.5" stroke="#414349"/>
<rect x="131.5" y="305.5" width="177" height="37" rx="7.5" fill="#1D1E26"/>
<path d="M144.908 319.408H144.044V328H144.908V319.408ZM152.425 328.144C153.397 328.144 154.213 327.712 154.621 326.812L154.705 328H155.425V319.252H154.597V323.296C154.189 322.456 153.421 322.036 152.461 322.036C150.733 322.036 149.737 323.356 149.737 325.108C149.737 326.848 150.733 328.144 152.425 328.144ZM152.569 327.388C151.309 327.388 150.577 326.428 150.577 325.084C150.577 323.752 151.309 322.78 152.569 322.78C153.841 322.78 154.585 323.752 154.585 325.084C154.585 326.428 153.841 327.388 152.569 327.388ZM157.561 320.596C157.897 320.596 158.185 320.32 158.185 319.984C158.185 319.648 157.897 319.36 157.561 319.36C157.225 319.36 156.949 319.648 156.949 319.984C156.949 320.32 157.225 320.596 157.561 320.596ZM157.153 328H157.981V322.192H157.153V328ZM159.216 326.368C159.216 327.448 160.032 328.144 161.34 328.144C162.66 328.144 163.548 327.46 163.548 326.416C163.548 325.576 163.092 325.108 162.084 324.856L161.088 324.604C160.452 324.448 160.14 324.136 160.14 323.692C160.14 323.068 160.596 322.72 161.412 322.72C162.192 322.72 162.66 323.116 162.684 323.788H163.488C163.452 322.708 162.66 322.036 161.436 322.036C160.188 322.036 159.336 322.684 159.336 323.704C159.336 324.496 159.828 325.024 160.836 325.276L161.832 325.528C162.516 325.696 162.756 325.972 162.756 326.452C162.756 327.076 162.228 327.46 161.328 327.46C160.512 327.46 160.008 327.04 160.008 326.368H159.216ZM166.579 328.144C167.563 328.144 168.355 327.712 168.715 326.98L168.823 328H169.519V324.244C169.519 322.708 168.535 322.036 167.191 322.036C165.763 322.036 164.803 322.792 164.803 323.968H165.559C165.559 323.188 166.159 322.732 167.167 322.732C168.019 322.732 168.703 323.092 168.703 324.232V324.424L166.783 324.58C165.427 324.688 164.611 325.36 164.611 326.428C164.611 327.448 165.343 328.144 166.579 328.144ZM166.771 327.472C165.979 327.472 165.451 327.112 165.451 326.404C165.451 325.756 165.895 325.276 166.987 325.18L168.703 325.048V325.36C168.703 326.62 167.995 327.472 166.771 327.472ZM170.784 324.928C170.784 326.512 171.792 327.82 173.448 327.82C174.444 327.82 175.248 327.34 175.644 326.524V327.904C175.644 329.116 174.852 329.92 173.664 329.92C172.62 329.92 171.9 329.368 171.72 328.432H170.892C171.12 329.836 172.164 330.676 173.652 330.676C175.356 330.676 176.46 329.548 176.46 327.82V322.192H175.74L175.656 323.356C175.284 322.504 174.516 322.036 173.508 322.036C171.804 322.036 170.784 323.344 170.784 324.928ZM171.612 324.916C171.612 323.74 172.332 322.768 173.58 322.768C174.852 322.768 175.572 323.68 175.572 324.916C175.572 326.164 174.828 327.076 173.568 327.076C172.344 327.076 171.612 326.104 171.612 324.916ZM181.224 322.12C181.02 322.072 180.864 322.06 180.684 322.06C179.868 322.06 179.256 322.468 179.028 323.092L178.968 322.192H178.188V328H179.016V324.688C179.016 323.584 179.7 322.864 180.768 322.864H181.224V322.12ZM184.538 328.144C185.906 328.144 186.806 327.484 187.118 326.26H186.326C186.11 327.028 185.498 327.436 184.55 327.436C183.302 327.436 182.558 326.62 182.498 325.204H187.118V324.796C187.118 323.152 186.05 322.036 184.478 322.036C182.822 322.036 181.694 323.284 181.694 325.096C181.694 326.92 182.834 328.144 184.538 328.144ZM184.478 322.744C185.57 322.744 186.29 323.488 186.29 324.604H182.522C182.666 323.464 183.386 322.744 184.478 322.744ZM190.878 328.144C192.246 328.144 193.146 327.484 193.458 326.26H192.666C192.45 327.028 191.838 327.436 190.89 327.436C189.642 327.436 188.898 326.62 188.838 325.204H193.458V324.796C193.458 323.152 192.39 322.036 190.818 322.036C189.162 322.036 188.034 323.284 188.034 325.096C188.034 326.92 189.174 328.144 190.878 328.144ZM190.818 322.744C191.91 322.744 192.63 323.488 192.63 324.604H188.862C189.006 323.464 189.726 322.744 190.818 322.744ZM195.127 328.132C195.535 328.132 195.883 327.796 195.883 327.4C195.883 326.992 195.535 326.644 195.127 326.644C194.719 326.644 194.371 326.992 194.371 327.4C194.371 327.796 194.719 328.132 195.127 328.132Z" fill="#F4F4F4"/>
<rect x="131.5" y="305.5" width="177" height="37" rx="7.5" stroke="#414349"/>
<path d="M124 259V275M132 325V325C127.582 325 124 321.418 124 317V275M124 275V275C124 279.418 127.582 283 132 283V283" stroke="#414349"/>
</g>
<defs>
<filter id="filter0_f_4773_22492" x="-91.1797" y="243.898" width="521.523" height="427.182" filterUnits="userSpaceOnUse" color-interpolation-filters="sRGB">
<feFlood flood-opacity="0" result="BackgroundImageFix"/>
<feBlend mode="normal" in="SourceGraphic" in2="BackgroundImageFix" result="shape"/>
<feGaussianBlur stdDeviation="75" result="effect1_foregroundBlur_4773_22492"/>
</filter>
<filter id="filter1_di_4773_22492" x="221" y="326" width="95.2734" height="95.2695" filterUnits="userSpaceOnUse" color-interpolation-filters="sRGB">
<feFlood flood-opacity="0" result="BackgroundImageFix"/>
<feColorMatrix in="SourceAlpha" type="matrix" values="0 0 0 0 0 0 0 0 0 0 0 0 0 0 0 0 0 0 127 0" result="hardAlpha"/>
<feOffset/>
<feGaussianBlur stdDeviation="20"/>
<feComposite in2="hardAlpha" operator="out"/>
<feColorMatrix type="matrix" values="0 0 0 0 0.415686 0 0 0 0 0.890196 0 0 0 0 0.580392 0 0 0 1 0"/>
<feBlend mode="normal" in2="BackgroundImageFix" result="effect1_dropShadow_4773_22492"/>
<feBlend mode="normal" in="SourceGraphic" in2="effect1_dropShadow_4773_22492" result="shape"/>
<feColorMatrix in="SourceAlpha" type="matrix" values="0 0 0 0 0 0 0 0 0 0 0 0 0 0 0 0 0 0 127 0" result="hardAlpha"/>
<feOffset/>
<feGaussianBlur stdDeviation="2.78965"/>
<feComposite in2="hardAlpha" operator="arithmetic" k2="-1" k3="1"/>
<feColorMatrix type="matrix" values="0 0 0 0 0.415686 0 0 0 0 0.890196 0 0 0 0 0.580392 0 0 0 1 0"/>
<feBlend mode="normal" in2="shape" result="effect2_innerShadow_4773_22492"/>
</filter>
<filter id="filter2_di_4773_22492" x="201.429" y="330.429" width="24.666" height="24.666" filterUnits="userSpaceOnUse" color-interpolation-filters="sRGB">
<feFlood flood-opacity="0" result="BackgroundImageFix"/>
<feColorMatrix in="SourceAlpha" type="matrix" values="0 0 0 0 0 0 0 0 0 0 0 0 0 0 0 0 0 0 127 0" result="hardAlpha"/>
<feOffset/>
<feGaussianBlur stdDeviation="5.28565"/>
<feComposite in2="hardAlpha" operator="out"/>
<feColorMatrix type="matrix" values="0 0 0 0 0.415686 0 0 0 0 0.890196 0 0 0 0 0.580392 0 0 0 1 0"/>
<feBlend mode="normal" in2="BackgroundImageFix" result="effect1_dropShadow_4773_22492"/>
<feBlend mode="normal" in="SourceGraphic" in2="effect1_dropShadow_4773_22492" result="shape"/>
<feColorMatrix in="SourceAlpha" type="matrix" values="0 0 0 0 0 0 0 0 0 0 0 0 0 0 0 0 0 0 127 0" result="hardAlpha"/>
<feOffset/>
<feGaussianBlur stdDeviation="0.440471"/>
<feComposite in2="hardAlpha" operator="arithmetic" k2="-1" k3="1"/>
<feColorMatrix type="matrix" values="0 0 0 0 0.415686 0 0 0 0 0.890196 0 0 0 0 0.580392 0 0 0 1 0"/>
<feBlend mode="normal" in2="shape" result="effect2_innerShadow_4773_22492"/>
</filter>
<filter id="filter3_di_4773_22492" x="85.4287" y="296.429" width="24.666" height="24.666" filterUnits="userSpaceOnUse" color-interpolation-filters="sRGB">
<feFlood flood-opacity="0" result="BackgroundImageFix"/>
<feColorMatrix in="SourceAlpha" type="matrix" values="0 0 0 0 0 0 0 0 0 0 0 0 0 0 0 0 0 0 127 0" result="hardAlpha"/>
<feOffset/>
<feGaussianBlur stdDeviation="5.28565"/>
<feComposite in2="hardAlpha" operator="out"/>
<feColorMatrix type="matrix" values="0 0 0 0 0.415686 0 0 0 0 0.890196 0 0 0 0 0.580392 0 0 0 1 0"/>
<feBlend mode="normal" in2="BackgroundImageFix" result="effect1_dropShadow_4773_22492"/>
<feBlend mode="normal" in="SourceGraphic" in2="effect1_dropShadow_4773_22492" result="shape"/>
<feColorMatrix in="SourceAlpha" type="matrix" values="0 0 0 0 0 0 0 0 0 0 0 0 0 0 0 0 0 0 127 0" result="hardAlpha"/>
<feOffset/>
<feGaussianBlur stdDeviation="0.440471"/>
<feComposite in2="hardAlpha" operator="arithmetic" k2="-1" k3="1"/>
<feColorMatrix type="matrix" values="0 0 0 0 0.415686 0 0 0 0 0.890196 0 0 0 0 0.580392 0 0 0 1 0"/>
<feBlend mode="normal" in2="shape" result="effect2_innerShadow_4773_22492"/>
</filter>
<filter id="filter4_di_4773_22492" x="65.4287" y="359.429" width="29.1426" height="29.1426" filterUnits="userSpaceOnUse" color-interpolation-filters="sRGB">
<feFlood flood-opacity="0" result="BackgroundImageFix"/>
<feColorMatrix in="SourceAlpha" type="matrix" values="0 0 0 0 0 0 0 0 0 0 0 0 0 0 0 0 0 0 127 0" result="hardAlpha"/>
<feOffset/>
<feGaussianBlur stdDeviation="5.28565"/>
<feComposite in2="hardAlpha" operator="out"/>
<feColorMatrix type="matrix" values="0 0 0 0 0.415686 0 0 0 0 0.890196 0 0 0 0 0.580392 0 0 0 1 0"/>
<feBlend mode="normal" in2="BackgroundImageFix" result="effect1_dropShadow_4773_22492"/>
<feBlend mode="normal" in="SourceGraphic" in2="effect1_dropShadow_4773_22492" result="shape"/>
<feColorMatrix in="SourceAlpha" type="matrix" values="0 0 0 0 0 0 0 0 0 0 0 0 0 0 0 0 0 0 127 0" result="hardAlpha"/>
<feOffset/>
<feGaussianBlur stdDeviation="0.440471"/>
<feComposite in2="hardAlpha" operator="arithmetic" k2="-1" k3="1"/>
<feColorMatrix type="matrix" values="0 0 0 0 0.415686 0 0 0 0 0.890196 0 0 0 0 0.580392 0 0 0 1 0"/>
<feBlend mode="normal" in2="shape" result="effect2_innerShadow_4773_22492"/>
</filter>
<filter id="filter5_di_4773_22492" x="181.429" y="388.429" width="24.666" height="24.666" filterUnits="userSpaceOnUse" color-interpolation-filters="sRGB">
<feFlood flood-opacity="0" result="BackgroundImageFix"/>
<feColorMatrix in="SourceAlpha" type="matrix" values="0 0 0 0 0 0 0 0 0 0 0 0 0 0 0 0 0 0 127 0" result="hardAlpha"/>
<feOffset/>
<feGaussianBlur stdDeviation="5.28565"/>
<feComposite in2="hardAlpha" operator="out"/>
<feColorMatrix type="matrix" values="0 0 0 0 0.415686 0 0 0 0 0.890196 0 0 0 0 0.580392 0 0 0 1 0"/>
<feBlend mode="normal" in2="BackgroundImageFix" result="effect1_dropShadow_4773_22492"/>
<feBlend mode="normal" in="SourceGraphic" in2="effect1_dropShadow_4773_22492" result="shape"/>
<feColorMatrix in="SourceAlpha" type="matrix" values="0 0 0 0 0 0 0 0 0 0 0 0 0 0 0 0 0 0 127 0" result="hardAlpha"/>
<feOffset/>
<feGaussianBlur stdDeviation="0.440471"/>
<feComposite in2="hardAlpha" operator="arithmetic" k2="-1" k3="1"/>
<feColorMatrix type="matrix" values="0 0 0 0 0.415686 0 0 0 0 0.890196 0 0 0 0 0.580392 0 0 0 1 0"/>
<feBlend mode="normal" in2="shape" result="effect2_innerShadow_4773_22492"/>
</filter>
<filter id="filter6_d_4773_22492" x="1" y="71" width="174" height="90" filterUnits="userSpaceOnUse" color-interpolation-filters="sRGB">
<feFlood flood-opacity="0" result="BackgroundImageFix"/>
<feColorMatrix in="SourceAlpha" type="matrix" values="0 0 0 0 0 0 0 0 0 0 0 0 0 0 0 0 0 0 127 0" result="hardAlpha"/>
<feOffset/>
<feGaussianBlur stdDeviation="12"/>
<feColorMatrix type="matrix" values="0 0 0 0 0.415686 0 0 0 0 0.890196 0 0 0 0 0.580392 0 0 0 0.3 0"/>
<feBlend mode="normal" in2="BackgroundImageFix" result="effect1_dropShadow_4773_22492"/>
<feBlend mode="normal" in="SourceGraphic" in2="effect1_dropShadow_4773_22492" result="shape"/>
</filter>
<filter id="filter7_d_4773_22492" x="66" y="124" width="21.0547" height="22.0186" filterUnits="userSpaceOnUse" color-interpolation-filters="sRGB">
<feFlood flood-opacity="0" result="BackgroundImageFix"/>
<feColorMatrix in="SourceAlpha" type="matrix" values="0 0 0 0 0 0 0 0 0 0 0 0 0 0 0 0 0 0 127 0" result="hardAlpha"/>
<feOffset dy="1"/>
<feGaussianBlur stdDeviation="1.5"/>
<feColorMatrix type="matrix" values="0 0 0 0 0 0 0 0 0 0 0 0 0 0 0 0 0 0 0.5 0"/>
<feBlend mode="normal" in2="BackgroundImageFix" result="effect1_dropShadow_4773_22492"/>
<feBlend mode="normal" in="SourceGraphic" in2="effect1_dropShadow_4773_22492" result="shape"/>
</filter>
<filter id="filter8_d_4773_22492" x="100" y="217" width="225" height="154" filterUnits="userSpaceOnUse" color-interpolation-filters="sRGB">
<feFlood flood-opacity="0" result="BackgroundImageFix"/>
<feColorMatrix in="SourceAlpha" type="matrix" values="0 0 0 0 0 0 0 0 0 0 0 0 0 0 0 0 0 0 127 0" result="hardAlpha"/>
<feOffset dy="12"/>
<feGaussianBlur stdDeviation="8"/>
<feColorMatrix type="matrix" values="0 0 0 0 0.113725 0 0 0 0 0.117647 0 0 0 0 0.14902 0 0 0 0.8 0"/>
<feBlend mode="normal" in2="BackgroundImageFix" result="effect1_dropShadow_4773_22492"/>
<feBlend mode="normal" in="SourceGraphic" in2="effect1_dropShadow_4773_22492" result="shape"/>
</filter>
<linearGradient id="paint0_linear_4773_22492" x1="176" y1="104" x2="176" y2="276.5" gradientUnits="userSpaceOnUse">
<stop stop-color="#2A2B33"/>
<stop offset="1" stop-color="#2A2B33" stop-opacity="0"/>
</linearGradient>
<clipPath id="clip0_4773_22492">
<rect x="37" y="18" width="286" height="390" rx="8" fill="white"/>
</clipPath>
<clipPath id="clip1_4773_22492">
<rect width="126" height="42" fill="white" transform="translate(25 95)"/>
</clipPath>
</defs>
</svg>
