<svg width="16" height="15" viewBox="0 0 16 15" fill="none" xmlns="http://www.w3.org/2000/svg">
<path d="M10.1632 5.43138C11.893 7.18359 11.8692 9.99284 10.1736 11.7182C10.1704 11.7217 10.1666 11.7255 10.1632 11.729L8.21758 13.6978C6.50159 15.4342 3.70976 15.434 1.99403 13.6978C0.278033 11.9616 0.278033 9.13626 1.99403 7.40013L3.06833 6.31304C3.35321 6.02476 3.84384 6.21636 3.85855 6.62376C3.87731 7.14296 3.96932 7.66459 4.13909 8.16832C4.19659 8.33889 4.15551 8.52756 4.02957 8.655L3.65067 9.0384C2.83926 9.85948 2.81381 11.1964 3.61723 12.0255C4.42858 12.8628 5.76218 12.8678 6.57976 12.0404L8.52534 10.072C9.34153 9.24609 9.33812 7.91115 8.52534 7.0887C8.41819 6.98048 8.31026 6.8964 8.22595 6.83766C8.1663 6.79621 8.11706 6.74124 8.08214 6.67712C8.04722 6.61299 8.02759 6.5415 8.02482 6.46834C8.01335 6.15876 8.12175 5.83975 8.3635 5.59512L8.97306 4.97828C9.1329 4.81653 9.38366 4.79667 9.56901 4.92756C9.78128 5.07755 9.9801 5.24614 10.1632 5.43138V5.43138ZM14.2435 1.30223C12.5278 -0.433959 9.73598 -0.434193 8.01998 1.30223L6.0744 3.27098C6.07092 3.27449 6.06716 3.2783 6.06398 3.28181C4.36836 5.00716 4.34459 7.81641 6.0744 9.56862C6.25746 9.75385 6.45627 9.92243 6.66853 10.0724C6.85388 10.2033 7.10466 10.1834 7.26448 10.0217L7.87404 9.40485C8.11579 9.16022 8.22418 8.84121 8.21272 8.53163C8.20995 8.45847 8.19032 8.38698 8.1554 8.32286C8.12048 8.25873 8.07123 8.20376 8.01159 8.16231C7.92728 8.10357 7.81934 8.01949 7.71219 7.91127C6.89942 7.08882 6.896 5.75388 7.71219 4.92797L9.65778 2.95952C10.4754 2.13221 11.8089 2.13719 12.6203 2.97446C13.4237 3.80356 13.3983 5.14049 12.5869 5.96157L12.208 6.34497C12.082 6.47241 12.0409 6.66109 12.0984 6.83165C12.2682 7.33538 12.3602 7.85701 12.379 8.37621C12.3937 8.78361 12.8843 8.97521 13.1692 8.68693L14.2435 7.59984C15.9595 5.86374 15.9595 3.03836 14.2435 1.30223V1.30223Z" fill="#5671CF"/>
</svg>
