<svg width="18" height="18" viewBox="0 0 18 18" fill="none" xmlns="http://www.w3.org/2000/svg">
<path fill-rule="evenodd" clip-rule="evenodd" d="M9 1.64844C7.2603 1.64844 5.85 3.05874 5.85 4.79844V6.25078H5.3C3.89167 6.25078 2.75 7.39246 2.75 8.80078V13.2008C2.75 14.6091 3.89167 15.7508 5.3 15.7508H12.7C14.1083 15.7508 15.25 14.6091 15.25 13.2008V8.80078C15.25 7.39246 14.1083 6.25078 12.7 6.25078H12.15V4.79844C12.15 3.05874 10.7397 1.64844 9 1.64844ZM10.65 6.25078V4.79844C10.65 3.88717 9.91127 3.14844 9 3.14844C8.08873 3.14844 7.35 3.88717 7.35 4.79844V6.25078H10.65ZM5.3 7.75078C4.7201 7.75078 4.25 8.22088 4.25 8.80078V13.2008C4.25 13.7807 4.7201 14.2508 5.3 14.2508H12.7C13.2799 14.2508 13.75 13.7807 13.75 13.2008V8.80078C13.75 8.22088 13.2799 7.75078 12.7 7.75078H5.3ZM9 9.25C9.41421 9.25 9.75 9.58579 9.75 10V12C9.75 12.4142 9.41421 12.75 9 12.75C8.58579 12.75 8.25 12.4142 8.25 12V10C8.25 9.58579 8.58579 9.25 9 9.25Z" fill="#12131B"/>
</svg>
