<svg width="54" height="54" fill="none" xmlns="http://www.w3.org/2000/svg"><path d="M48.564 10.597A26.637 26.637 0 0028.077.007C21.81-.118 17.48 1.765 15.03 3.28 18.307 1.379 23.051.3 27.204.354c10.683.135 22.157 7.41 23.861 20.524 1.958 15.054-8.528 27.618-23.278 27.657C11.56 48.576 1.69 34.208 4.27 21.302c.048-.632.141-1.261.279-1.88a25.52 25.52 0 012.83-9.46c-1.87.966-4.249 4.025-5.423 6.858A27.909 27.909 0 00.202 30.438c.04.35.077.699.123 1.046a27.036 27.036 0 1048.239-20.887z" fill="url(#paint0_radial)"/><path opacity=".67" d="M48.564 10.597A26.637 26.637 0 0028.077.007C21.81-.118 17.48 1.765 15.03 3.28 18.307 1.379 23.051.3 27.204.354c10.683.135 22.157 7.41 23.861 20.524 1.958 15.054-8.528 27.618-23.278 27.657C11.56 48.576 1.69 34.208 4.27 21.302c.048-.632.141-1.261.279-1.88a25.52 25.52 0 012.83-9.46c-1.87.966-4.249 4.025-5.423 6.858A27.909 27.909 0 00.202 30.438c.04.35.077.699.123 1.046a27.036 27.036 0 1048.239-20.887z" fill="url(#paint1_radial)"/><path d="M48.564 10.597A26.637 26.637 0 0028.077.007C21.81-.118 17.48 1.765 15.03 3.28 18.307 1.379 23.051.3 27.204.354c10.683.135 22.157 7.41 23.861 20.524 1.958 15.054-8.528 27.618-23.278 27.657C11.56 48.576 1.69 34.208 4.27 21.302c.048-.632.141-1.261.279-1.88a25.52 25.52 0 012.83-9.46c-1.87.966-4.249 4.025-5.423 6.858A27.909 27.909 0 00.202 30.438c.04.35.077.699.123 1.046a27.036 27.036 0 1048.239-20.887z" fill="url(#paint2_radial)"/><path d="M48.564 10.597A26.637 26.637 0 0028.077.007C21.81-.118 17.48 1.765 15.03 3.28 18.307 1.379 23.051.3 27.204.354c10.683.135 22.157 7.41 23.861 20.524 1.958 15.054-8.528 27.618-23.278 27.657C11.56 48.576 1.69 34.208 4.27 21.302c.048-.632.141-1.261.279-1.88a25.52 25.52 0 012.83-9.46c-1.87.966-4.249 4.025-5.423 6.858A27.909 27.909 0 00.202 30.438c.04.35.077.699.123 1.046a27.036 27.036 0 1048.239-20.887z" fill="url(#paint3_radial)"/><path d="M48.564 10.597A26.637 26.637 0 0028.077.007C21.81-.118 17.48 1.765 15.03 3.28 18.307 1.379 23.051.3 27.204.354c10.683.135 22.157 7.41 23.861 20.524 1.958 15.054-8.528 27.618-23.278 27.657C11.56 48.576 1.69 34.208 4.27 21.302c.048-.632.141-1.261.279-1.88a25.52 25.52 0 012.83-9.46c-1.87.966-4.249 4.025-5.423 6.858A27.909 27.909 0 00.202 30.438c.04.35.077.699.123 1.046a27.036 27.036 0 1048.239-20.887z" fill="url(#paint4_radial)"/><path d="M51.065 20.878c.212 1.621.28 3.258.203 4.89a77.61 77.61 0 012.69-.357 27.002 27.002 0 00-5.395-14.815A26.637 26.637 0 0028.077.006C21.809-.118 17.479 1.766 15.029 3.28 18.307 1.38 23.051.3 27.204.353 37.887.49 49.36 7.762 51.065 20.878z" fill="url(#paint5_linear)"/><path d="M51.723 20.13C50.203 6.424 37.98.264 27.204.353 23.05.387 18.307 1.378 15.029 3.28a13.295 13.295 0 00-2.402 1.823c.087-.073.347-.287.777-.582l.043-.03.038-.025a17.989 17.989 0 015.19-2.41 29.357 29.357 0 018.898-1.042 22.442 22.442 0 0121.09 21.591c.247 8.913-7.048 16.02-15.457 16.431-6.115.3-11.877-2.66-14.692-8.58a14.63 14.63 0 01-1.325-4.273c-1.334-9.01 4.717-16.693 10.265-18.596C24.46 4.972 16.96 5.15 11.379 9.256c-4.02 2.957-6.627 7.457-7.491 12.823a22.234 22.234 0 001.58 12.147 23.823 23.823 0 0020.305 14.472c.67.05 1.341.076 2.014.076 17.859 0 25.606-13.556 23.936-28.644z" fill="url(#paint6_radial)"/><path d="M51.723 20.13C50.203 6.424 37.98.264 27.204.353 23.05.387 18.307 1.378 15.029 3.28a13.295 13.295 0 00-2.402 1.823c.087-.073.347-.287.777-.582l.043-.03.038-.025a17.989 17.989 0 015.19-2.41 29.357 29.357 0 018.898-1.042 22.442 22.442 0 0121.09 21.591c.247 8.913-7.048 16.02-15.457 16.431-6.115.3-11.877-2.66-14.692-8.58a14.63 14.63 0 01-1.325-4.273c-1.334-9.01 4.717-16.693 10.265-18.596C24.46 4.972 16.96 5.15 11.379 9.256c-4.02 2.957-6.627 7.457-7.491 12.823a22.234 22.234 0 001.58 12.147 23.823 23.823 0 0020.305 14.472c.67.05 1.341.076 2.014.076 17.859 0 25.606-13.556 23.936-28.644z" fill="url(#paint7_radial)"/><path style="mix-blend-mode:multiply" opacity=".53" d="M51.723 20.13C50.203 6.424 37.98.264 27.204.353 23.05.387 18.307 1.378 15.029 3.28a13.295 13.295 0 00-2.402 1.823c.087-.073.347-.287.777-.582l.043-.03.038-.025a17.989 17.989 0 015.19-2.41 29.357 29.357 0 018.898-1.042 22.442 22.442 0 0121.09 21.591c.247 8.913-7.048 16.02-15.457 16.431-6.115.3-11.877-2.66-14.692-8.58a14.63 14.63 0 01-1.325-4.273c-1.334-9.01 4.717-16.693 10.265-18.596C24.46 4.972 16.96 5.15 11.379 9.256c-4.02 2.957-6.627 7.457-7.491 12.823a22.234 22.234 0 001.58 12.147 23.823 23.823 0 0020.305 14.472c.67.05 1.341.076 2.014.076 17.859 0 25.606-13.556 23.936-28.644z" fill="url(#paint8_radial)"/><path style="mix-blend-mode:multiply" opacity=".53" d="M51.723 20.13C50.203 6.424 37.98.264 27.204.353 23.05.387 18.307 1.378 15.029 3.28a13.295 13.295 0 00-2.402 1.823c.087-.073.347-.287.777-.582l.043-.03.038-.025a17.989 17.989 0 015.19-2.41 29.357 29.357 0 018.898-1.042 22.442 22.442 0 0121.09 21.591c.247 8.913-7.048 16.02-15.457 16.431-6.115.3-11.877-2.66-14.692-8.58a14.63 14.63 0 01-1.325-4.273c-1.334-9.01 4.717-16.693 10.265-18.596C24.46 4.972 16.96 5.15 11.379 9.256c-4.02 2.957-6.627 7.457-7.491 12.823a22.234 22.234 0 001.58 12.147 23.823 23.823 0 0020.305 14.472c.67.05 1.341.076 2.014.076 17.859 0 25.606-13.556 23.936-28.644z" fill="url(#paint9_radial)"/><path d="M33.206 39.036c11.54-.702 16.48-10.259 16.79-17.038.484-10.592-5.8-22.01-22.424-20.985a29.357 29.357 0 00-8.896 1.044 19.474 19.474 0 00-5.192 2.41l-.037.026-.043.029c-.258.18-.51.37-.758.568a22.596 22.596 0 0114.157-2.656c9.544 1.252 18.27 8.677 18.27 18.473 0 7.538-5.825 13.295-12.646 12.881-10.133-.607-12.687-11-7.416-15.49-1.421-.306-4.092.293-5.952 3.074-1.67 2.497-1.575 6.35-.545 9.084a14.927 14.927 0 0014.692 8.58z" fill="url(#paint10_radial)"/><path d="M48.564 10.597a26.97 26.97 0 00-2.35-2.688 21.144 21.144 0 00-2.144-1.975c.437.38.853.784 1.248 1.209a15.162 15.162 0 013.294 5.496c1.41 4.27 1.318 9.617-1.374 13.815a15.886 15.886 0 01-14.074 7.353c-.244 0-.49 0-.736-.019-10.134-.607-12.688-11-7.416-15.49-1.422-.306-4.093.293-5.953 3.074-1.669 2.497-1.575 6.35-.545 9.084a14.633 14.633 0 01-1.325-4.274c-1.334-9.01 4.716-16.693 10.265-18.595C24.46 4.972 16.96 5.15 11.379 9.257a18.792 18.792 0 00-6.808 9.852 25.982 25.982 0 012.807-9.146c-1.869.967-4.248 4.025-5.422 6.859A27.91 27.91 0 00.202 30.438c.04.35.077.698.123 1.045a27.037 27.037 0 1048.239-20.886z" fill="url(#paint11_linear)"/><path d="M48.612 12.639a15.156 15.156 0 00-3.294-5.497A20.398 20.398 0 0039.18 2.76 27.346 27.346 0 0033.147.622a26.883 26.883 0 00-11.18-.068c-3.835.81-7.207 2.47-9.34 4.544a21.664 21.664 0 015.42-2.16 22.652 22.652 0 0121.038 5.467 18.232 18.232 0 012.921 3.577c3.304 5.371 2.991 12.124.415 16.106-1.913 2.96-6.011 5.737-9.834 5.704a15.947 15.947 0 0014.651-7.336c2.692-4.2 2.784-9.546 1.374-13.817z" fill="url(#paint12_linear)"/><path d="M48.612 12.639a15.156 15.156 0 00-3.294-5.497A20.398 20.398 0 0039.18 2.76 27.346 27.346 0 0033.147.622a26.883 26.883 0 00-11.18-.068c-3.835.81-7.207 2.47-9.34 4.544a21.664 21.664 0 015.42-2.16 22.652 22.652 0 0121.038 5.467 18.232 18.232 0 012.921 3.577c3.304 5.371 2.991 12.124.415 16.106-1.913 2.96-6.011 5.737-9.834 5.704a15.947 15.947 0 0014.651-7.336c2.692-4.2 2.784-9.546 1.374-13.817z" fill="url(#paint13_linear)"/><defs><radialGradient id="paint7_radial" cx="0" cy="0" r="1" gradientUnits="userSpaceOnUse" gradientTransform="matrix(57.5124 0 0 57.6324 46.885 8.161)"><stop offset=".084" stop-color="#FFDE67"/><stop offset=".147" stop-color="#FFDC66" stop-opacity=".968"/><stop offset=".246" stop-color="#FFD562" stop-opacity=".879"/><stop offset=".369" stop-color="#FFCB5D" stop-opacity=".734"/><stop offset=".511" stop-color="#FFBC55" stop-opacity=".533"/><stop offset=".667" stop-color="#FFAA4B" stop-opacity=".28"/><stop offset=".822" stop-color="#FF9640" stop-opacity="0"/></radialGradient><radialGradient id="paint0_radial" cx="0" cy="0" r="1" gradientUnits="userSpaceOnUse" gradientTransform="translate(48.285 11.06) scale(61.265)"><stop stop-color="#FFF36E"/><stop offset=".5" stop-color="#FC4055"/><stop offset="1" stop-color="#E31587"/></radialGradient><radialGradient id="paint2_radial" cx="0" cy="0" r="1" gradientUnits="userSpaceOnUse" gradientTransform="translate(53.522 7.573) scale(71.9408)"><stop stop-color="#FFDE67" stop-opacity=".6"/><stop offset=".093" stop-color="#FFD966" stop-opacity=".581"/><stop offset=".203" stop-color="#FFCA65" stop-opacity=".525"/><stop offset=".321" stop-color="#FEB262" stop-opacity=".432"/><stop offset=".446" stop-color="#FE8F5E" stop-opacity=".302"/><stop offset=".573" stop-color="#FD6459" stop-opacity=".137"/><stop offset=".664" stop-color="#FC4055" stop-opacity="0"/></radialGradient><radialGradient id="paint3_radial" cx="0" cy="0" r="1" gradientUnits="userSpaceOnUse" gradientTransform="translate(28.548 29.968) scale(92.8092)"><stop offset=".153" stop-color="#810220"/><stop offset=".167" stop-color="#920B27" stop-opacity=".861"/><stop offset=".216" stop-color="#CB2740" stop-opacity=".398"/><stop offset=".253" stop-color="#EF394F" stop-opacity=".11"/><stop offset=".272" stop-color="#FC4055" stop-opacity="0"/></radialGradient><radialGradient id="paint4_radial" cx="0" cy="0" r="1" gradientUnits="userSpaceOnUse" gradientTransform="translate(21.524 28.802) scale(92.8092)"><stop offset=".113" stop-color="#810220"/><stop offset=".133" stop-color="#920B27" stop-opacity=".861"/><stop offset=".204" stop-color="#CB2740" stop-opacity=".398"/><stop offset=".257" stop-color="#EF394F" stop-opacity=".11"/><stop offset=".284" stop-color="#FC4055" stop-opacity="0"/></radialGradient><radialGradient id="paint10_radial" cx="0" cy="0" r="1" gradientUnits="userSpaceOnUse" gradientTransform="matrix(97.2067 0 0 97.4094 58.363 1.65)"><stop offset=".054" stop-color="#FFF36E"/><stop offset=".457" stop-color="#FF9640"/><stop offset=".639" stop-color="#FF9640"/></radialGradient><radialGradient id="paint6_radial" cx="0" cy="0" r="1" gradientUnits="userSpaceOnUse" gradientTransform="matrix(57.5124 0 0 57.6324 46.885 8.161)"><stop stop-color="#FF9640"/><stop offset=".8" stop-color="#FC4055"/></radialGradient><radialGradient id="paint1_radial" cx="0" cy="0" r="1" gradientUnits="userSpaceOnUse" gradientTransform="translate(4.484 13.593) scale(36.2582)"><stop offset=".001" stop-color="#C60084"/><stop offset="1" stop-color="#FC4055" stop-opacity="0"/></radialGradient><radialGradient id="paint8_radial" cx="0" cy="0" r="1" gradientUnits="userSpaceOnUse" gradientTransform="rotate(75.728 .08 34.724) scale(28.2572 29.4339)"><stop offset=".363" stop-color="#FC4055"/><stop offset=".443" stop-color="#FD604D" stop-opacity=".633"/><stop offset=".545" stop-color="#FE8644" stop-opacity=".181"/><stop offset=".59" stop-color="#FF9640" stop-opacity="0"/></radialGradient><radialGradient id="paint9_radial" cx="0" cy="0" r="1" gradientUnits="userSpaceOnUse" gradientTransform="translate(28.853 28.412) scale(28.2029)"><stop offset=".216" stop-color="#FC4055" stop-opacity=".8"/><stop offset=".267" stop-color="#FD5251" stop-opacity=".633"/><stop offset=".41" stop-color="#FE8345" stop-opacity=".181"/><stop offset=".474" stop-color="#FF9640" stop-opacity="0"/></radialGradient><linearGradient id="paint5_linear" x1="30.941" y1="5.256" x2="46.839" y2="32.794" gradientUnits="userSpaceOnUse"><stop stop-color="#FFBD4F"/><stop offset=".508" stop-color="#FF9640" stop-opacity="0"/></linearGradient><linearGradient id="paint11_linear" x1="39.863" y1="4.781" x2="12.263" y2="52.587" gradientUnits="userSpaceOnUse"><stop stop-color="#FFF36E" stop-opacity=".8"/><stop offset=".094" stop-color="#FFF36E" stop-opacity=".699"/><stop offset=".752" stop-color="#FFF36E" stop-opacity="0"/></linearGradient><linearGradient id="paint12_linear" x1="27.401" y1="-.451" x2="42.055" y2="41.98" gradientUnits="userSpaceOnUse"><stop stop-color="#B833E1"/><stop offset=".371" stop-color="#9059FF"/><stop offset=".614" stop-color="#5B6DF8"/><stop offset="1" stop-color="#0090ED"/></linearGradient><linearGradient id="paint13_linear" x1="18.712" y1=".22" x2="45.95" y2="27.458" gradientUnits="userSpaceOnUse"><stop offset=".805" stop-color="#722291" stop-opacity="0"/><stop offset="1" stop-color="#592ACB" stop-opacity=".5"/></linearGradient></defs></svg>