<svg width="18" height="18" viewBox="0 0 18 18" fill="none" xmlns="http://www.w3.org/2000/svg">
<path fill-rule="evenodd" clip-rule="evenodd" d="M4 2.75C2.48122 2.75 1.25 3.98122 1.25 5.5V12.5C1.25 14.0188 2.48122 15.25 4 15.25H14C15.5188 15.25 16.75 14.0188 16.75 12.5V5.5C16.75 3.98122 15.5188 2.75 14 2.75H4ZM3.87853 4.25583C3.9185 4.25197 3.95902 4.25 4 4.25H14C14.041 4.25 14.0815 4.25197 14.1215 4.25583L9 8.52372L3.87853 4.25583ZM2.76868 5.28351C2.7564 5.35383 2.75 5.42617 2.75 5.5V12.5C2.75 13.1904 3.30964 13.75 4 13.75H14C14.6904 13.75 15.25 13.1904 15.25 12.5V5.5C15.25 5.42617 15.2436 5.35383 15.2313 5.28351L9.48014 10.0762C9.202 10.3079 8.798 10.3079 8.51986 10.0762L2.76868 5.28351Z" fill="#12131B"/>
</svg>
