<svg width="200" height="200" viewBox="0 0 200 200" fill="none" xmlns="http://www.w3.org/2000/svg">
<path fill-rule="evenodd" clip-rule="evenodd" d="M0 0H200V200H0V0ZM46.0337 62.4986C47.2653 63.6087 47.8942 65.2388 47.7273 66.8882V126.273C48.0928 128.415 47.4174 130.603 45.9083 132.167L31.7949 149.287V151.544H71.8141V149.287L57.7007 132.167C56.1805 130.606 55.4634 128.432 55.7562 126.273V74.9148L90.8828 151.544H94.96L125.131 74.9148V135.993C125.131 137.623 125.131 137.937 124.065 139.003L113.213 149.538V151.795H165.903V149.538L155.428 139.253C154.503 138.549 154.044 137.39 154.236 136.243V60.6801C154.044 59.5334 154.503 58.3749 155.428 57.6701L166.154 47.3859V45.1284H129.02L102.55 111.16L72.4413 45.1284H33.4885V47.3859L46.0337 62.4986Z" fill="white"/>
</svg>
