<svg width="18" height="18" viewBox="0 0 18 18" fill="none" xmlns="http://www.w3.org/2000/svg">
<path fill-rule="evenodd" clip-rule="evenodd" d="M0.25 9.00112C0.25 6.06217 2.63248 3.67969 5.57143 3.67969C7.40551 3.67969 9.02288 4.60755 9.97973 6.01948C10.0391 5.89636 10.1027 5.77859 10.1704 5.66641C10.6806 4.82238 11.4667 4.25112 12.4286 4.25112C13.3724 4.25112 14.1472 4.80124 14.6578 5.61941C14.7089 5.53396 14.764 5.45297 14.8232 5.37775C15.0273 5.11877 15.371 4.82254 15.8571 4.82254C16.3432 4.82254 16.687 5.11877 16.8911 5.37775C17.1018 5.64518 17.2588 5.98568 17.3768 6.33958C17.6153 7.05522 17.75 7.99616 17.75 9.00112C17.75 10.0061 17.6153 10.947 17.3768 11.6627C17.2588 12.0166 17.1018 12.3571 16.8911 12.6245C16.687 12.8835 16.3432 13.1797 15.8571 13.1797C15.371 13.1797 15.0273 12.8835 14.8232 12.6245C14.764 12.5493 14.7089 12.4683 14.6578 12.3828C14.1472 13.201 13.3724 13.7511 12.4286 13.7511C11.4667 13.7511 10.6806 13.1799 10.1704 12.3358C10.1027 12.2236 10.0391 12.1059 9.97973 11.9827C9.02288 13.3947 7.40551 14.3225 5.57143 14.3225C2.63248 14.3225 0.25 11.9401 0.25 9.00112ZM15.4643 9.00112C15.4643 9.88971 15.5854 10.6631 15.7605 11.1883C15.7931 11.2861 15.8258 11.3697 15.8571 11.4404C15.8885 11.3697 15.9212 11.2861 15.9538 11.1883C16.1288 10.6631 16.25 9.88971 16.25 9.00112C16.25 8.11252 16.1288 7.33918 15.9538 6.81392C15.9212 6.71615 15.8885 6.63249 15.8571 6.56183C15.8258 6.63249 15.7931 6.71615 15.7605 6.81392C15.5854 7.33918 15.4643 8.11252 15.4643 9.00112ZM13.9643 9.00112C13.9643 7.82919 13.7252 6.97551 13.4029 6.44227C13.0858 5.91749 12.7291 5.75112 12.4286 5.75112C12.128 5.75112 11.7714 5.91749 11.4542 6.44227C11.1319 6.97551 10.8929 7.82919 10.8929 9.00112C10.8929 10.173 11.1319 11.0267 11.4542 11.56C11.7714 12.0847 12.128 12.2511 12.4286 12.2511C12.7291 12.2511 13.0858 12.0847 13.4029 11.56C13.7252 11.0267 13.9643 10.173 13.9643 9.00112ZM5.57143 5.17969C7.68195 5.17969 9.39286 6.8906 9.39286 9.00112C9.39286 11.1116 7.68195 12.8225 5.57143 12.8225C3.46091 12.8225 1.75 11.1116 1.75 9.00112C1.75 6.8906 3.46091 5.17969 5.57143 5.17969ZM16.033 6.27093C16.033 6.27105 16.0317 6.27236 16.029 6.27447C16.0317 6.27187 16.033 6.27081 16.033 6.27093ZM15.6853 6.27447C15.6826 6.27235 15.6813 6.27105 15.6813 6.27093C15.6813 6.27081 15.6826 6.27187 15.6853 6.27447ZM15.6819 11.7306C15.6815 11.731 15.6813 11.7313 15.6813 11.7313C15.6813 11.7314 15.6826 11.7304 15.6853 11.7278C15.6837 11.729 15.6826 11.73 15.6819 11.7306ZM16.029 11.7278C16.0317 11.7299 16.033 11.7312 16.033 11.7313C16.033 11.7314 16.0317 11.7304 16.029 11.7278Z" fill="#12131B"/>
</svg>
