<svg width="206" height="39" viewBox="0 0 206 39" fill="none" xmlns="http://www.w3.org/2000/svg">
<path fill-rule="evenodd" clip-rule="evenodd" d="M7.64378 11.2591C7.50399 11.2591 7.36245 11.2256 7.23095 11.1562C6.7962 10.9265 6.62976 10.3869 6.85841 9.95077C6.97983 9.71934 9.86435 4.28441 13.6794 4.52953C14.1698 4.55973 14.5418 4.98347 14.5116 5.47551C14.4815 5.96754 14.0525 6.33998 13.5698 6.31083C11.3487 6.15853 9.10679 9.49147 8.43038 10.7819C8.27168 11.0854 7.96305 11.2591 7.6438 11.2591" fill="#5CD9A6"/>
<path fill-rule="evenodd" clip-rule="evenodd" d="M1.54266 21.5963C1.1624 21.5963 0.810574 21.3488 0.693299 20.9644C0.549954 20.4932 0.814163 19.9952 1.28205 19.8507C1.49644 19.7834 6.26154 18.2282 5.0876 13.6375C4.96558 13.1598 5.25226 12.6731 5.72729 12.5511C6.2035 12.4274 6.68741 12.7159 6.80942 13.1931C8.08879 18.2002 4.0943 20.8532 1.80268 21.557C1.71623 21.5835 1.62914 21.5965 1.54268 21.5965" fill="#5CD9A6"/>
<path fill-rule="evenodd" clip-rule="evenodd" d="M11.0835 15.4034C11.0278 15.4034 10.9722 15.3983 10.9159 15.3872C10.4331 15.2943 10.1174 14.8273 10.2092 14.343C11.4418 7.86573 16.7856 7.80029 16.8614 7.80029H16.862C17.3524 7.80208 17.7486 8.20368 17.7463 8.69629C17.7439 9.18773 17.3471 9.58456 16.859 9.58516C16.6873 9.58695 12.9048 9.6857 11.9553 14.678C11.8736 15.1058 11.501 15.4032 11.0835 15.4032" fill="#5CD9A6"/>
<path fill-rule="evenodd" clip-rule="evenodd" d="M3.13203 27.4524C2.9662 27.4524 2.79913 27.4059 2.6499 27.309C2.23767 27.0407 2.12038 26.488 2.38694 26.0745C2.96917 25.1731 8.20454 17.2661 12.892 17.2578H12.8932C13.3836 17.2578 13.7811 17.6565 13.7817 18.1485C13.7829 18.6411 13.386 19.0415 12.895 19.0427C9.72973 19.0487 5.31293 24.8215 3.87837 27.0454C3.70838 27.309 3.4229 27.4524 3.13207 27.4524" fill="#5CD9A6"/>
<path fill-rule="evenodd" clip-rule="evenodd" d="M8.31959 31.735C8.1484 31.735 7.97605 31.6856 7.82383 31.5826C7.41693 31.3072 7.30912 30.7527 7.58335 30.344C8.3107 29.2588 8.77507 28.5799 9.11209 28.164C8.45522 24.2825 10.8156 22.9076 12.304 22.4316C12.7719 22.2805 13.2707 22.5411 13.4199 23.0111C13.5686 23.4805 13.3103 23.9827 12.843 24.132C11.0981 24.6901 10.4809 25.9413 10.9008 28.0688C10.9541 28.3389 11.0347 28.7459 10.687 29.0939C10.6532 29.1274 10.6177 29.1576 10.5792 29.1856C10.3434 29.4664 9.63091 30.4855 9.05697 31.3411C8.88522 31.5969 8.60445 31.735 8.31955 31.735" fill="#5CD9A6"/>
<path fill-rule="evenodd" clip-rule="evenodd" d="M13.4068 30.9854C13.0384 30.9854 12.6942 30.7534 12.5669 30.3845C12.125 29.1 10.1947 29.3439 10.1746 29.3475C9.68888 29.4082 9.2411 29.0697 9.17595 28.5812C9.11078 28.0927 9.45195 27.6435 9.93884 27.5781C11.1939 27.4085 13.5181 27.6858 14.2467 29.8009C14.4066 30.2667 14.1608 30.7748 13.697 30.936C13.601 30.9695 13.5027 30.9854 13.4068 30.9854" fill="#5CD9A6"/>
<path fill-rule="evenodd" clip-rule="evenodd" d="M10.5981 35.7912C9.93534 35.7912 9.24057 35.7204 8.54758 35.5752C7.19535 35.292 4.72426 34.4811 3.37262 32.2345C3.11855 31.8127 3.25296 31.2641 3.67291 31.0089C4.09286 30.7548 4.63837 30.8887 4.89247 31.3111C5.62574 32.5296 7.0905 33.447 8.91065 33.8284C10.7977 34.2229 12.3454 33.9152 12.9845 33.4607C13.3837 33.1763 13.9399 33.2715 14.223 33.6737C14.5067 34.0765 14.4114 34.6333 14.011 34.9177C13.2078 35.4883 11.9711 35.7911 10.5981 35.7911" fill="#5CD9A6"/>
<path fill-rule="evenodd" clip-rule="evenodd" d="M13.3019 0C12.1931 0 11.0719 0.318313 10.2249 0.873397C9.74866 1.18516 9.1534 1.46954 8.52319 1.77059C6.95062 2.52202 5.16838 3.3734 4.13836 5.1666C3.45662 6.35473 3.49868 7.42922 3.53007 8.21397C3.53932 8.46148 3.54857 8.68339 3.53654 8.89222C3.38316 9.04987 3.06744 9.29203 2.86606 9.44613C2.5018 9.72458 2.12567 10.0125 1.81945 10.3624C-0.65045 13.1825 -0.0149108 15.7538 0.36476 17.29C0.447094 17.622 0.524663 17.9356 0.548392 18.1605C0.594647 18.5942 0.547208 19.5181 0.509538 20.2606C0.473922 20.9675 0.439647 21.6344 0.463283 22.1205C0.499824 22.8701 0.824581 23.6471 1.24512 24.5848C1.34346 24.8032 1.4542 25.0506 1.49328 25.1631C1.81725 26.0972 2.03346 28.0278 2.10394 28.662C2.70158 34.0041 6.44612 35.9217 9.18078 37.3222C9.65699 37.5661 10.1065 37.7964 10.5176 38.0302C11.2758 38.4627 12.426 38.7424 13.4483 38.7424C15.4793 38.7424 16.9163 37.6453 17.1982 35.88C17.4831 34.0952 17.5121 32.1092 17.5008 30.2297V30.2223C17.4587 23.1285 17.487 4.82588 17.5124 3.94535C17.5425 2.87621 17.1961 1.93618 16.509 1.2264C15.744 0.435509 14.605 0 13.3019 0H13.3019ZM13.3778 29.771C13.3778 29.771 13.3588 29.7394 13.3338 29.6978C13.3435 29.7146 13.3542 29.7313 13.3657 29.7508C13.3741 29.7647 13.3778 29.7712 13.3778 29.7712V29.771ZM14.4041 5.63978C14.4029 5.63978 14.4023 5.64036 14.4018 5.64036H14.4012C14.4024 5.64036 14.4031 5.63978 14.4041 5.63978L14.4047 5.6392L14.4041 5.63978H14.4041ZM13.3019 1.78487C14.5759 1.78487 15.7783 2.39054 15.7356 3.8934C15.7074 4.88043 15.683 23.3669 15.7236 30.2327V30.2183C15.723 30.0571 15.7218 29.9309 15.7213 29.8238V29.7792V29.8238C15.7225 29.9743 15.7231 30.1267 15.7236 30.2183V30.2336V30.2401C15.7338 31.9495 15.7121 33.9086 15.4429 35.5971C15.2782 36.6318 14.382 36.9572 13.448 36.9572C12.6436 36.9572 11.8109 36.7156 11.3945 36.4777C8.53009 34.8451 4.45031 33.6576 3.86985 28.4624C3.72355 27.1547 3.51211 25.5596 3.17093 24.5755C2.96718 23.9877 2.27182 22.724 2.23806 22.0327C2.19319 21.1147 2.42224 18.9806 2.31507 17.9709C2.14448 16.3586 0.78989 14.2394 3.15318 11.5406C3.71416 10.9005 5.16649 10.202 5.28199 9.30658C5.43421 8.12262 5.0249 7.19508 5.67765 6.05812C6.78881 4.12272 9.40739 3.53967 11.1956 2.3676C11.7576 1.99934 12.5424 1.78454 13.3018 1.78454" fill="#5CD9A6"/>
<path fill-rule="evenodd" clip-rule="evenodd" d="M20.5322 0C19.2292 0 18.0902 0.435491 17.3255 1.22621C16.6384 1.93599 16.2919 2.87602 16.3221 3.94457C16.3476 4.82629 16.3754 23.1295 16.3337 30.222V30.2406C16.3221 32.1093 16.3517 34.0953 16.6364 35.8802C16.9183 37.6454 18.3553 38.7425 20.3863 38.7425C21.4086 38.7425 22.5588 38.4629 23.317 38.0303C23.728 37.7966 24.1776 37.5663 24.6538 37.3223C27.3885 35.9218 31.133 34.0043 31.7306 28.6622C31.8011 28.0279 32.0173 26.0979 32.3413 25.1638C32.3806 25.0508 32.4911 24.8033 32.5895 24.5849C33.0101 23.6473 33.3346 22.8703 33.3713 22.12C33.3949 21.6345 33.3607 20.9676 33.3251 20.2608C33.2872 19.5182 33.2397 18.5943 33.2858 18.1605C33.3094 17.9357 33.3871 17.6221 33.4694 17.2901C33.8491 15.7539 34.4846 13.1825 32.0147 10.3624C31.7085 10.0126 31.3324 9.72466 30.9681 9.44622C30.7667 9.29215 30.451 9.04999 30.2976 8.89231C30.2856 8.68346 30.2947 8.46156 30.3041 8.21406C30.3356 7.42932 30.3775 6.35482 29.6958 5.16669C28.6659 3.37351 26.8836 2.52212 25.3111 1.77069C24.6809 1.46967 24.0862 1.18526 23.61 0.873499C22.7624 0.318406 21.6412 0.000102216 20.5324 0.000102216L20.5322 0ZM20.4566 29.7711C20.4566 29.7711 20.4601 29.7646 20.4686 29.7507C20.4806 29.7312 20.4903 29.7144 20.5005 29.6978C20.4755 29.7396 20.4566 29.7709 20.4566 29.7709V29.7711ZM19.43 5.63951C19.4312 5.63951 19.4318 5.64009 19.4329 5.64009H19.4323C19.4317 5.64009 19.4311 5.63951 19.43 5.63951L19.4294 5.63893L19.43 5.63951H19.43ZM20.5322 1.78479C21.2915 1.78479 22.0769 2.00014 22.6384 2.36784C24.4266 3.53991 27.0452 4.12297 28.1563 6.05836C28.809 7.19532 28.3998 8.12286 28.552 9.30682C28.6675 10.2022 30.1198 10.9007 30.6807 11.5409C33.044 14.2396 31.6894 16.3588 31.5188 17.9712C31.4116 18.9808 31.6409 21.1149 31.5959 22.0329C31.5621 22.7243 30.8667 23.988 30.663 24.5758C30.3218 25.5598 30.1104 27.1549 29.9641 28.4626C29.3836 33.6578 25.3038 34.8453 22.4394 36.4779C22.0231 36.7159 21.1903 36.9574 20.3859 36.9574C19.4525 36.9574 18.5557 36.632 18.391 35.5974C18.1215 33.9089 18.1002 31.9497 18.1103 30.2404V30.2339V30.2185C18.1103 30.1572 18.1109 30.0698 18.1115 29.974C18.1121 29.902 18.1127 29.8377 18.1127 29.7795C18.1127 29.8449 18.1121 29.9109 18.1115 29.974C18.1115 30.046 18.1109 30.1263 18.1103 30.2185V30.2329C18.151 23.3671 18.1269 4.88064 18.0983 3.89361C18.0557 2.39016 19.258 1.78509 20.532 1.78509" fill="#5CD9A6"/>
<path fill-rule="evenodd" clip-rule="evenodd" d="M26.1904 11.2582C25.8717 11.2582 25.5631 11.085 25.4038 10.7822C24.7244 9.49173 22.4867 6.15759 20.2638 6.31049C19.7876 6.34023 19.3522 5.96718 19.322 5.47517C19.2919 4.98314 19.6638 4.55953 20.1542 4.52919C23.9698 4.28169 26.8543 9.719 26.9758 9.95044C27.2044 10.3865 27.038 10.925 26.6038 11.1552C26.4723 11.2248 26.3301 11.2581 26.1903 11.2581" fill="#5CD9A6"/>
<path fill-rule="evenodd" clip-rule="evenodd" d="M32.2905 21.5965C32.204 21.5965 32.117 21.584 32.0311 21.5575C29.7395 20.8536 25.745 18.2007 27.0244 13.1936C27.1464 12.7164 27.6291 12.4279 28.1065 12.5516C28.5815 12.6736 28.8682 13.1603 28.7462 13.638C27.5711 18.234 32.3486 19.7875 32.5523 19.8511C33.0197 19.9975 33.2826 20.4967 33.1387 20.9667C33.0202 21.3498 32.6702 21.5967 32.2905 21.5967" fill="#5CD9A6"/>
<path fill-rule="evenodd" clip-rule="evenodd" d="M22.7511 15.4037C22.3336 15.4037 21.961 15.1062 21.8793 14.6785C20.9245 9.65704 17.1859 9.58565 16.9833 9.58565C16.9787 9.58507 16.9782 9.58565 16.9764 9.58565C16.4877 9.58565 16.0903 9.18821 16.0879 8.69679C16.0855 8.20416 16.4818 7.80257 16.9722 7.80078H16.9728C17.048 7.80078 22.393 7.86564 23.6255 14.3435C23.7173 14.8278 23.4016 15.2949 22.9189 15.3877C22.8626 15.3984 22.8069 15.4039 22.7513 15.4039" fill="#5CD9A6"/>
<path fill-rule="evenodd" clip-rule="evenodd" d="M30.6998 27.4524C30.409 27.4524 30.1235 27.309 29.9535 27.0454C28.5172 24.8215 24.098 19.0486 20.9375 19.0427C20.4464 19.0415 20.0496 18.6411 20.0508 18.1485C20.0514 17.6564 20.4488 17.2578 20.9392 17.2578H20.9404C25.6273 17.2662 30.8627 25.1731 31.4449 26.0745C31.7115 26.4879 31.5942 27.0407 31.1825 27.3084C31.0327 27.406 30.8656 27.4524 30.6998 27.4524" fill="#5CD9A6"/>
<path fill-rule="evenodd" clip-rule="evenodd" d="M23.6406 29.3444C23.733 29.3593 23.8367 29.3607 23.9498 29.3379C23.8467 29.3588 23.7413 29.3598 23.6406 29.3444ZM25.5141 31.735C25.2292 31.735 24.9484 31.597 24.7767 31.3411C24.2027 30.4861 23.4908 29.4676 23.2544 29.1856C23.2161 29.1582 23.1798 29.1273 23.146 29.0939C22.7983 28.7459 22.8789 28.3389 22.9322 28.0688C23.3521 25.9413 22.735 24.6901 20.99 24.132C20.5227 23.9827 20.2645 23.4811 20.4131 23.0111C20.5618 22.5411 21.0611 22.2805 21.5296 22.4316C23.0175 22.9076 25.3772 24.2825 24.7209 28.1634C25.0586 28.5793 25.5223 29.2581 26.2503 30.3439C26.5245 30.7527 26.4167 31.3072 26.0098 31.5826C25.8576 31.6856 25.6852 31.7349 25.514 31.7349" fill="#5CD9A6"/>
<path fill-rule="evenodd" clip-rule="evenodd" d="M20.4277 30.9852C20.3318 30.9852 20.2335 30.969 20.1375 30.9358C19.6738 30.7746 19.428 30.2665 19.5879 29.8007C20.3164 27.6856 22.6377 27.4089 23.8957 27.5779C24.3826 27.6434 24.7237 28.0925 24.6586 28.581C24.5935 29.0689 24.1468 29.4139 23.6635 29.3473C23.6302 29.3438 21.7018 29.1206 21.2677 30.3843C21.1403 30.7532 20.7962 30.9852 20.4278 30.9852" fill="#5CD9A6"/>
<path fill-rule="evenodd" clip-rule="evenodd" d="M23.2355 35.7908C21.8626 35.7908 20.6258 35.488 19.8227 34.9175C19.4223 34.6331 19.3269 34.0762 19.6106 33.6734C19.8932 33.2712 20.4499 33.176 20.8491 33.4604C21.4882 33.915 23.0359 34.2226 24.923 33.8281C26.7432 33.4468 28.2079 32.5293 28.9412 31.3109C29.1953 30.8884 29.7408 30.7552 30.1607 31.0086C30.5807 31.2638 30.7151 31.8124 30.461 32.2342C29.1094 34.4808 26.6383 35.2917 25.2861 35.5749C24.5931 35.7201 23.8983 35.7909 23.2355 35.7909" fill="#5CD9A6"/>
<path d="M57.5991 11.0841C56.444 10.1526 54.8419 9.59369 52.9789 9.59369C50.6688 9.59369 47.9489 10.1526 45.7506 11.0841C45.4152 11.2331 45.2662 11.4567 45.1917 11.7547L42.0992 28.7823C42.0246 29.2294 42.2482 29.4902 42.658 29.4902H46.9429C47.3155 29.4902 47.539 29.3039 47.6136 28.8941L50.1472 14.9218C50.6688 14.661 51.4885 14.4747 52.3082 14.4747C53.9849 14.4747 54.7674 15.5179 54.3575 17.9025L52.4573 28.7823C52.3828 29.1922 52.6063 29.4902 53.0534 29.4902H57.2638C57.6363 29.4902 57.8972 29.2667 57.9344 28.8941L59.7601 18.685C59.9837 17.4182 59.9837 16.1886 59.7974 15.1453C60.4681 14.7728 61.3995 14.4747 62.2938 14.4747C64.0822 14.4747 64.9392 15.5179 64.5293 17.9025L62.6291 28.7823C62.5919 29.1922 62.7781 29.4902 63.2253 29.4902H67.4356C67.8082 29.4902 68.069 29.2667 68.1062 28.8941L69.9692 18.685C70.8635 13.3942 68.2553 9.59369 63.1135 9.59369C61.2505 9.59369 59.3503 10.1526 57.5991 11.0841ZM73.5389 16.7475L72.5701 22.1501C71.7131 26.9939 75.1037 29.9746 79.9847 29.9746C83.2263 29.9746 85.76 29.0804 87.772 27.7018C88.1073 27.5155 88.1446 27.1801 87.9955 26.8076L86.4679 23.9386C86.2816 23.5287 85.9835 23.4915 85.6109 23.7523C84.1205 24.6465 82.4066 25.2427 80.7672 25.2427C78.7179 25.2427 77.8237 24.2739 78.1963 22.2992L78.3081 21.7775H88.6662C89.0388 21.7775 89.2623 21.5912 89.3369 21.2186L89.9703 17.6045C90.9763 12.1273 87.5857 9.59369 82.8165 9.59369C78.3081 9.59369 74.4331 11.8665 73.5389 16.7475ZM84.6049 17.1201L84.4186 18.0516H78.9787L79.165 17.0456C79.5004 15.2944 80.7299 14.3256 82.3321 14.3256C84.2323 14.3256 84.8657 15.6297 84.6049 17.1201ZM106.72 11.0841C105.565 10.1526 103.963 9.59369 102.1 9.59369C99.7902 9.59369 97.0702 10.1526 94.8719 11.0841C94.5366 11.2331 94.3875 11.4567 94.313 11.7547L91.2205 28.7823C91.146 29.2294 91.3695 29.4902 91.7794 29.4902H96.0642C96.4368 29.4902 96.6604 29.3039 96.7349 28.8941L99.2685 14.9218C99.7902 14.661 100.61 14.4747 101.43 14.4747C103.106 14.4747 103.889 15.5179 103.479 17.9025L101.579 28.7823C101.504 29.1922 101.728 29.4902 102.175 29.4902H106.385C106.758 29.4902 107.019 29.2667 107.056 28.8941L108.881 18.685C109.105 17.4182 109.105 16.1886 108.919 15.1453C109.589 14.7728 110.521 14.4747 111.415 14.4747C113.204 14.4747 114.061 15.5179 113.651 17.9025L111.75 28.7823C111.713 29.1922 111.899 29.4902 112.347 29.4902H116.557C116.93 29.4902 117.19 29.2667 117.228 28.8941L119.091 18.685C119.985 13.3942 117.377 9.59369 112.235 9.59369C110.372 9.59369 108.472 10.1526 106.72 11.0841ZM122.66 16.7475L121.691 22.1501C120.834 26.9939 124.225 29.9746 129.106 29.9746C132.348 29.9746 134.881 29.0804 136.893 27.7018C137.229 27.5155 137.266 27.1801 137.117 26.8076L135.589 23.9386C135.403 23.5287 135.105 23.4915 134.732 23.7523C133.242 24.6465 131.528 25.2427 129.889 25.2427C127.839 25.2427 126.945 24.2739 127.318 22.2992L127.429 21.7775H137.788C138.16 21.7775 138.384 21.5912 138.458 21.2186L139.092 17.6045C140.098 12.1273 136.707 9.59369 131.938 9.59369C127.429 9.59369 123.554 11.8665 122.66 16.7475ZM133.726 17.1201L133.54 18.0516H128.1L128.286 17.0456C128.622 15.2944 129.851 14.3256 131.453 14.3256C133.354 14.3256 133.987 15.6297 133.726 17.1201ZM158.271 10.1153H153.577C153.204 10.1153 152.981 10.2271 152.832 10.5252L149.366 16.1886L147.876 10.637C147.764 10.2644 147.541 10.1153 147.168 10.1153H142.66C142.213 10.1153 142.026 10.3761 142.175 10.8233L145.342 19.4302L138.524 28.7078C138.226 29.1176 138.412 29.4902 138.971 29.4902H143.815C144.15 29.4902 144.411 29.3412 144.597 29.0431L148.323 23.5287L150 28.9313C150.112 29.3039 150.335 29.4902 150.708 29.4902H155.291C155.775 29.4902 155.999 29.1922 155.812 28.745L152.347 19.84L158.681 10.8605C158.979 10.4507 158.793 10.1153 158.271 10.1153Z" fill="#F7F9F9"/>
<path d="M164.761 29V14.4545H166.438V19.8239H166.58C166.703 19.6345 166.873 19.393 167.091 19.0994C167.313 18.8011 167.631 18.536 168.043 18.304C168.459 18.0672 169.023 17.9489 169.733 17.9489C170.652 17.9489 171.461 18.1785 172.162 18.6378C172.863 19.0971 173.41 19.7481 173.803 20.5909C174.196 21.4337 174.392 22.428 174.392 23.5739C174.392 24.7292 174.196 25.7306 173.803 26.5781C173.41 27.4209 172.865 28.0743 172.169 28.5384C171.473 28.9976 170.67 29.2273 169.761 29.2273C169.061 29.2273 168.5 29.1113 168.078 28.8793C167.657 28.6425 167.332 28.375 167.105 28.0767C166.878 27.7737 166.703 27.5227 166.58 27.3239H166.381V29H164.761ZM166.409 23.5455C166.409 24.3693 166.53 25.0961 166.771 25.7259C167.013 26.3509 167.366 26.8409 167.83 27.196C168.294 27.5464 168.862 27.7216 169.534 27.7216C170.235 27.7216 170.82 27.5369 171.288 27.1676C171.762 26.7936 172.117 26.2917 172.354 25.6619C172.595 25.0275 172.716 24.322 172.716 23.5455C172.716 22.7784 172.598 22.0871 172.361 21.4716C172.129 20.8513 171.776 20.3613 171.303 20.0014C170.834 19.6368 170.244 19.4545 169.534 19.4545C168.852 19.4545 168.279 19.6274 167.815 19.973C167.351 20.3139 167.001 20.7921 166.764 21.4077C166.527 22.0185 166.409 22.7311 166.409 23.5455ZM181.53 29.2273C180.479 29.2273 179.572 28.9953 178.81 28.5312C178.052 28.0625 177.467 27.4091 177.055 26.571C176.648 25.7282 176.445 24.7481 176.445 23.6307C176.445 22.5133 176.648 21.5284 177.055 20.6761C177.467 19.8191 178.04 19.1515 178.774 18.6733C179.513 18.1903 180.375 17.9489 181.359 17.9489C181.928 17.9489 182.489 18.0436 183.043 18.233C183.597 18.4223 184.101 18.7301 184.555 19.1562C185.01 19.5777 185.372 20.1364 185.642 20.8324C185.912 21.5284 186.047 22.3854 186.047 23.4034V24.1136H177.638V22.6648H184.342C184.342 22.0492 184.219 21.5 183.973 21.017C183.732 20.5341 183.386 20.1529 182.936 19.8736C182.491 19.5942 181.965 19.4545 181.359 19.4545C180.692 19.4545 180.114 19.6203 179.626 19.9517C179.143 20.2784 178.772 20.7045 178.511 21.2301C178.251 21.7557 178.121 22.3191 178.121 22.9205V23.8864C178.121 24.7102 178.263 25.4086 178.547 25.9815C178.836 26.5497 179.236 26.983 179.747 27.2812C180.259 27.5748 180.853 27.7216 181.53 27.7216C181.97 27.7216 182.368 27.66 182.723 27.5369C183.083 27.4091 183.393 27.2197 183.653 26.9688C183.914 26.7131 184.115 26.3958 184.257 26.017L185.876 26.4716C185.706 27.0208 185.42 27.5038 185.017 27.9205C184.615 28.3324 184.117 28.6544 183.526 28.8864C182.934 29.1136 182.268 29.2273 181.53 29.2273ZM193.341 18.0909V19.5114H187.688V18.0909H193.341ZM189.335 15.4773H191.011V25.875C191.011 26.3485 191.08 26.7036 191.217 26.9403C191.359 27.1723 191.539 27.3286 191.757 27.4091C191.98 27.4848 192.214 27.5227 192.46 27.5227C192.645 27.5227 192.796 27.5133 192.915 27.4943C193.033 27.4706 193.128 27.4517 193.199 27.4375L193.54 28.9432C193.426 28.9858 193.268 29.0284 193.064 29.071C192.86 29.1184 192.602 29.142 192.29 29.142C191.816 29.142 191.352 29.0402 190.898 28.8366C190.448 28.633 190.074 28.3229 189.776 27.9062C189.482 27.4896 189.335 26.964 189.335 26.3295V15.4773ZM199.072 29.2557C198.381 29.2557 197.754 29.1255 197.19 28.8651C196.627 28.5999 196.179 28.2188 195.848 27.7216C195.517 27.2197 195.351 26.6136 195.351 25.9034C195.351 25.2784 195.474 24.7718 195.72 24.3835C195.966 23.9905 196.295 23.6828 196.707 23.4602C197.119 23.2377 197.574 23.072 198.071 22.9631C198.573 22.8494 199.077 22.7595 199.584 22.6932C200.247 22.608 200.784 22.544 201.196 22.5014C201.613 22.4541 201.916 22.3759 202.105 22.267C202.299 22.1581 202.396 21.9687 202.396 21.6989V21.642C202.396 20.9413 202.205 20.3968 201.821 20.0085C201.442 19.6203 200.867 19.4261 200.095 19.4261C199.295 19.4261 198.668 19.6013 198.213 19.9517C197.759 20.3021 197.439 20.6761 197.254 21.0739L195.663 20.5057C195.947 19.8428 196.326 19.3267 196.8 18.9574C197.278 18.5833 197.799 18.3229 198.362 18.1761C198.93 18.0246 199.489 17.9489 200.038 17.9489C200.389 17.9489 200.791 17.9915 201.246 18.0767C201.705 18.1572 202.148 18.3253 202.574 18.581C203.005 18.8366 203.362 19.2225 203.646 19.7386C203.93 20.2547 204.072 20.946 204.072 21.8125V29H202.396V27.5227H202.311C202.197 27.7595 202.008 28.0128 201.743 28.2827C201.478 28.5526 201.125 28.7822 200.685 28.9716C200.244 29.161 199.707 29.2557 199.072 29.2557ZM199.328 27.75C199.991 27.75 200.55 27.6198 201.004 27.3594C201.464 27.099 201.809 26.7628 202.041 26.3509C202.278 25.9389 202.396 25.5057 202.396 25.0511V23.517C202.325 23.6023 202.169 23.6804 201.928 23.7514C201.691 23.8177 201.416 23.8769 201.104 23.929C200.796 23.9763 200.495 24.0189 200.202 24.0568C199.913 24.09 199.679 24.1184 199.499 24.142C199.063 24.1989 198.656 24.2912 198.277 24.419C197.903 24.5421 197.6 24.7292 197.368 24.9801C197.141 25.2263 197.027 25.5625 197.027 25.9886C197.027 26.571 197.242 27.0114 197.673 27.3097C198.109 27.6032 198.661 27.75 199.328 27.75Z" fill="#347AE2"/>
</svg>
