<svg width="1707" height="416" viewBox="0 0 1707 416" fill="none" xmlns="http://www.w3.org/2000/svg">
<path fill-rule="evenodd" clip-rule="evenodd" d="M82.1162 120.872C80.6156 120.872 79.0961 120.512 77.6843 119.767C73.017 117.301 71.2303 111.508 73.6849 106.826C74.9884 104.342 105.955 45.9949 146.912 48.6264C152.177 48.9506 156.17 53.4997 155.846 58.782C155.523 64.0642 150.918 68.0626 145.735 67.7496C121.89 66.1145 97.8225 101.895 90.5609 115.749C88.8571 119.007 85.5438 120.872 82.1165 120.872" fill="#5CD9A6"/>
<path fill-rule="evenodd" clip-rule="evenodd" d="M16.5981 231.85C12.5158 231.85 8.73875 229.192 7.47974 225.066C5.94086 220.008 8.77729 214.662 13.8003 213.11C16.1019 212.388 67.2578 195.692 54.6549 146.408C53.3449 141.279 56.4227 136.055 61.5223 134.745C66.6347 133.417 71.8297 136.515 73.1396 141.637C86.8743 195.392 43.9913 223.872 19.3896 231.428C18.4615 231.712 17.5264 231.852 16.5984 231.852" fill="#5CD9A6"/>
<path fill-rule="evenodd" clip-rule="evenodd" d="M119.033 165.368C118.435 165.368 117.838 165.313 117.233 165.193C112.051 164.197 108.662 159.183 109.647 153.984C122.88 84.4467 180.248 83.7441 181.062 83.7441H181.068C186.333 83.7633 190.587 88.0747 190.561 93.3632C190.536 98.639 186.276 102.899 181.036 102.906C179.192 102.925 138.585 103.985 128.392 157.58C127.515 162.172 123.515 165.366 119.032 165.366" fill="#5CD9A6"/>
<path fill-rule="evenodd" clip-rule="evenodd" d="M33.687 294.72C31.9068 294.72 30.1131 294.221 28.511 293.18C24.0856 290.3 22.8264 284.366 25.688 279.927C31.9386 270.25 88.1431 185.365 138.466 185.275H138.479C143.744 185.275 148.01 189.555 148.017 194.837C148.03 200.126 143.769 204.424 138.498 204.437C104.517 204.502 57.1001 266.475 41.6994 290.351C39.8745 293.18 36.8096 294.72 33.6874 294.72" fill="#5CD9A6"/>
<path fill-rule="evenodd" clip-rule="evenodd" d="M89.3695 340.694C87.5317 340.694 85.6815 340.164 84.0473 339.059C79.679 336.101 78.5216 330.149 81.4656 325.761C89.2741 314.11 94.2594 306.823 97.8774 302.358C90.8256 260.688 116.165 245.927 132.144 240.818C137.168 239.195 142.522 241.993 144.124 247.039C145.72 252.078 142.948 257.469 137.931 259.072C119.198 265.063 112.572 278.496 117.081 301.336C117.653 304.236 118.518 308.605 114.785 312.341C114.423 312.7 114.041 313.024 113.627 313.325C111.096 316.339 103.447 327.281 97.2856 336.465C95.4419 339.212 92.4277 340.694 89.3691 340.694" fill="#5CD9A6"/>
<path fill-rule="evenodd" clip-rule="evenodd" d="M143.977 332.647C140.022 332.647 136.328 330.156 134.961 326.196C130.217 312.406 109.494 315.024 109.278 315.063C104.064 315.714 99.2566 312.08 98.5571 306.836C97.8574 301.592 101.52 296.77 106.747 296.067C120.221 294.247 145.173 297.224 152.994 319.93C154.711 324.931 152.072 330.386 147.093 332.117C146.063 332.476 145.007 332.647 143.977 332.647" fill="#5CD9A6"/>
<path fill-rule="evenodd" clip-rule="evenodd" d="M113.835 384.237C106.72 384.237 99.2611 383.477 91.8214 381.918C77.3046 378.878 50.7761 370.172 36.2656 346.054C33.5379 341.525 34.9809 335.636 39.4893 332.896C43.9977 330.169 49.854 331.606 52.5819 336.141C60.454 349.222 76.179 359.071 95.7192 363.165C115.978 367.4 132.593 364.097 139.454 359.218C143.74 356.165 149.711 357.187 152.75 361.504C155.796 365.828 154.772 371.807 150.474 374.86C141.852 380.985 128.575 384.236 113.835 384.236" fill="#5CD9A6"/>
<path fill-rule="evenodd" clip-rule="evenodd" d="M142.853 0.000976562C130.95 0.000976562 118.913 3.41823 109.82 9.37736C104.707 12.7243 98.3169 15.7773 91.5512 19.0092C74.6689 27.0762 55.5356 36.2163 44.4778 55.4672C37.159 68.2224 37.6105 79.7576 37.9474 88.1823C38.0467 90.8394 38.1461 93.2218 38.0169 95.4637C36.3703 97.1561 32.9809 99.7559 30.8189 101.41C26.9084 104.399 22.8705 107.491 19.5831 111.246C-6.93264 141.522 -0.109782 169.127 3.96618 185.619C4.85008 189.183 5.68283 192.549 5.93758 194.963C6.43415 199.619 5.92486 209.539 5.52045 217.51C5.13809 225.098 4.77013 232.258 5.02388 237.476C5.41617 245.524 8.90261 253.866 13.4173 263.932C14.4731 266.276 15.6619 268.933 16.0815 270.14C19.5595 280.168 21.8806 300.894 22.6373 307.703C29.0532 365.054 69.2528 385.639 98.6108 400.675C103.723 403.293 108.549 405.765 112.962 408.276C121.102 412.919 133.45 415.921 144.425 415.921C166.229 415.921 181.655 404.143 184.682 385.192C187.74 366.031 188.052 344.71 187.931 324.533V324.454C187.479 248.298 187.782 51.8094 188.055 42.3564C188.378 30.8787 184.66 20.7869 177.284 13.167C169.071 4.6764 156.843 0.000976562 142.854 0.000976562H142.853ZM143.668 319.609C143.668 319.609 143.464 319.27 143.196 318.823C143.3 319.003 143.414 319.182 143.538 319.391C143.628 319.541 143.668 319.611 143.668 319.611V319.609ZM154.686 60.547C154.674 60.547 154.667 60.5532 154.661 60.5532H154.655C154.668 60.5532 154.675 60.547 154.686 60.547L154.693 60.5408L154.686 60.547H154.686ZM142.853 19.1625C156.531 19.1625 169.439 25.6647 168.981 41.7987C168.678 52.395 168.415 250.857 168.852 324.565V324.411C168.846 322.68 168.832 321.326 168.827 320.176V319.697V320.176C168.839 321.791 168.846 323.427 168.852 324.411V324.575V324.645C168.961 342.995 168.728 364.028 165.838 382.155C164.07 393.262 154.449 396.756 144.421 396.756C135.786 396.756 126.846 394.163 122.376 391.608C91.6254 374.082 47.8267 361.333 41.5952 305.56C40.0245 291.521 37.7547 274.397 34.0919 263.833C31.9045 257.522 24.4395 243.956 24.077 236.534C23.5953 226.678 26.0544 203.768 24.9038 192.929C23.0725 175.619 8.53018 152.868 33.9014 123.896C39.9238 117.023 55.5153 109.525 56.7553 99.9121C58.3895 87.2016 53.9953 77.244 61.0029 65.0381C72.9318 44.2606 101.044 38.0012 120.24 25.4185C126.275 21.465 134.7 19.159 142.852 19.159" fill="#5CD9A6"/>
<path fill-rule="evenodd" clip-rule="evenodd" d="M220.475 0.000976562C206.486 0.000976562 194.259 4.6762 186.049 13.165C178.673 20.7848 174.954 30.8766 175.278 42.348C175.551 51.8138 175.85 248.309 175.402 324.45V324.65C175.278 344.712 175.596 366.032 178.652 385.194C181.678 404.145 197.104 415.923 218.908 415.923C229.884 415.923 242.232 412.92 250.371 408.277C254.784 405.767 259.61 403.295 264.723 400.676C294.081 385.641 334.28 365.055 340.696 307.705C341.453 300.896 343.774 280.176 347.252 270.148C347.674 268.934 348.861 266.277 349.917 263.933C354.432 253.867 357.916 245.525 358.31 237.471C358.563 232.259 358.196 225.099 357.814 217.511C357.406 209.54 356.897 199.62 357.392 194.964C357.645 192.55 358.479 189.184 359.363 185.62C363.439 169.128 370.262 141.523 343.746 111.247C340.459 107.492 336.421 104.4 332.51 101.411C330.348 99.7572 326.959 97.1574 325.312 95.4647C325.183 93.2226 325.281 90.8403 325.382 88.1833C325.719 79.7587 326.17 68.2234 318.851 55.4682C307.794 36.2174 288.661 27.0773 271.779 19.0103C265.013 15.7786 258.629 12.7253 253.517 9.37846C244.417 3.41923 232.38 0.00207391 220.477 0.00207391L220.475 0.000976562ZM219.663 319.61C219.663 319.61 219.701 319.54 219.792 319.39C219.921 319.181 220.026 319.001 220.135 318.822C219.867 319.271 219.663 319.608 219.663 319.608V319.61ZM208.642 60.5441C208.655 60.5441 208.662 60.5503 208.674 60.5503H208.667C208.661 60.5503 208.654 60.5441 208.642 60.5441L208.636 60.5379L208.642 60.5441H208.642ZM220.475 19.1616C228.627 19.1616 237.059 21.4735 243.087 25.421C262.284 38.0038 290.395 44.2632 302.324 65.0407C309.331 77.2466 304.938 87.2042 306.572 99.9147C307.812 109.527 323.403 117.026 329.425 123.898C354.796 152.871 340.254 175.622 338.423 192.931C337.272 203.77 339.733 226.681 339.249 236.536C338.887 243.958 331.422 257.525 329.234 263.835C325.572 274.399 323.302 291.523 321.731 305.563C315.5 361.335 271.701 374.084 240.95 391.611C236.48 394.165 227.54 396.759 218.905 396.759C208.884 396.759 199.256 393.265 197.489 382.158C194.595 364.031 194.367 342.998 194.475 324.647V324.578V324.413C194.475 323.755 194.481 322.816 194.487 321.788C194.494 321.015 194.5 320.325 194.5 319.699C194.5 320.402 194.494 321.111 194.487 321.788C194.487 322.56 194.481 323.423 194.475 324.413V324.568C194.912 250.86 194.653 52.3973 194.345 41.801C193.889 25.6606 206.796 19.1649 220.473 19.1649" fill="#5CD9A6"/>
<path fill-rule="evenodd" clip-rule="evenodd" d="M281.217 120.866C277.796 120.866 274.483 119.008 272.773 115.756C265.479 101.903 241.456 66.1088 217.592 67.7502C212.48 68.0695 207.806 64.0646 207.482 58.7827C207.159 53.5005 211.151 48.9528 216.416 48.6271C257.378 45.97 288.345 104.342 289.649 106.827C292.103 111.509 290.316 117.289 285.655 119.761C284.243 120.508 282.717 120.866 281.217 120.866" fill="#5CD9A6"/>
<path fill-rule="evenodd" clip-rule="evenodd" d="M346.722 231.849C345.794 231.849 344.859 231.714 343.937 231.43C319.335 223.874 276.452 195.393 290.187 141.639C291.497 136.516 296.679 133.419 301.804 134.747C306.904 136.057 309.982 141.281 308.672 146.41C296.056 195.751 347.345 212.428 349.533 213.111C354.55 214.683 357.373 220.042 355.828 225.087C354.556 229.201 350.798 231.851 346.722 231.851" fill="#5CD9A6"/>
<path fill-rule="evenodd" clip-rule="evenodd" d="M244.3 165.368C239.817 165.368 235.818 162.174 234.94 157.582C224.69 103.674 184.554 102.908 182.379 102.908C182.33 102.901 182.325 102.908 182.305 102.908C177.059 102.908 172.792 98.6409 172.767 93.3652C172.742 88.0766 176.995 83.7652 182.26 83.7461H182.267C183.074 83.7461 240.455 84.4424 253.687 153.986C254.673 159.185 251.284 164.199 246.102 165.195C245.497 165.31 244.899 165.37 244.302 165.37" fill="#5CD9A6"/>
<path fill-rule="evenodd" clip-rule="evenodd" d="M329.64 294.72C326.518 294.72 323.453 293.18 321.628 290.351C306.208 266.476 258.766 204.501 224.836 204.437C219.564 204.424 215.304 200.126 215.317 194.837C215.323 189.555 219.59 185.275 224.855 185.275H224.868C275.184 185.365 331.388 270.25 337.639 279.927C340.5 284.366 339.241 290.3 334.822 293.174C333.214 294.221 331.42 294.72 329.64 294.72" fill="#5CD9A6"/>
<path fill-rule="evenodd" clip-rule="evenodd" d="M253.851 315.029C254.843 315.189 255.956 315.204 257.17 314.959C256.064 315.184 254.932 315.194 253.851 315.029ZM273.964 340.693C270.905 340.693 267.891 339.211 266.047 336.464C259.885 327.286 252.242 316.351 249.705 313.324C249.293 313.029 248.904 312.698 248.541 312.34C244.808 308.604 245.673 304.235 246.245 301.335C250.754 278.494 244.128 265.062 225.395 259.071C220.378 257.468 217.606 252.084 219.202 247.038C220.798 241.992 226.158 239.194 231.188 240.817C247.161 245.926 272.494 260.687 265.449 302.351C269.073 306.815 274.052 314.103 281.867 325.76C284.811 330.147 283.654 336.1 279.285 339.058C277.651 340.162 275.801 340.693 273.963 340.693" fill="#5CD9A6"/>
<path fill-rule="evenodd" clip-rule="evenodd" d="M219.35 332.647C218.32 332.647 217.264 332.472 216.235 332.116C211.256 330.386 208.617 324.931 210.334 319.93C218.155 297.223 243.075 294.253 256.58 296.067C261.807 296.77 265.47 301.592 264.77 306.836C264.071 312.073 259.276 315.778 254.088 315.063C253.73 315.025 233.028 312.629 228.367 326.195C227 330.155 223.305 332.646 219.35 332.646" fill="#5CD9A6"/>
<path fill-rule="evenodd" clip-rule="evenodd" d="M249.492 384.237C234.752 384.237 221.475 380.986 212.853 374.861C208.555 371.808 207.531 365.829 210.577 361.505C213.61 357.188 219.587 356.165 223.873 359.219C230.734 364.098 247.349 367.401 267.608 363.166C287.148 359.072 302.873 349.223 310.745 336.142C313.473 331.607 319.329 330.176 323.838 332.897C328.346 335.637 329.789 341.526 327.061 346.055C312.551 370.173 286.022 378.879 271.505 381.919C264.066 383.477 256.607 384.238 249.492 384.238" fill="#5CD9A6"/>
<path d="M618.4 120.4C606 110.4 588.8 104.4 568.8 104.4C544 104.4 514.8 110.4 491.2 120.4C487.6 122 486 124.4 485.2 127.6L452 310.4C451.2 315.2 453.6 318 458 318H504C508 318 510.4 316 511.2 311.6L538.4 161.6C544 158.8 552.8 156.8 561.6 156.8C579.6 156.8 588 168 583.6 193.6L563.2 310.4C562.4 314.8 564.8 318 569.6 318H614.8C618.8 318 621.6 315.6 622 311.6L641.6 202C644 188.4 644 175.2 642 164C649.2 160 659.2 156.8 668.8 156.8C688 156.8 697.2 168 692.8 193.6L672.4 310.4C672 314.8 674 318 678.8 318H724C728 318 730.8 315.6 731.2 311.6L751.2 202C760.8 145.2 732.8 104.4 677.6 104.4C657.6 104.4 637.2 110.4 618.4 120.4ZM789.522 181.2L779.122 239.2C769.922 291.2 806.322 323.2 858.722 323.2C893.522 323.2 920.722 313.6 942.322 298.8C945.922 296.8 946.322 293.2 944.722 289.2L928.322 258.4C926.322 254 923.122 253.6 919.122 256.4C903.122 266 884.722 272.4 867.122 272.4C845.122 272.4 835.522 262 839.522 240.8L840.722 235.2H951.922C955.922 235.2 958.322 233.2 959.122 229.2L965.922 190.4C976.722 131.6 940.322 104.4 889.122 104.4C840.722 104.4 799.122 128.8 789.522 181.2ZM908.322 185.2L906.322 195.2H847.922L849.922 184.4C853.522 165.6 866.722 155.2 883.922 155.2C904.322 155.2 911.122 169.2 908.322 185.2ZM1145.74 120.4C1133.34 110.4 1116.14 104.4 1096.14 104.4C1071.34 104.4 1042.14 110.4 1018.54 120.4C1014.94 122 1013.34 124.4 1012.54 127.6L979.344 310.4C978.544 315.2 980.944 318 985.344 318H1031.34C1035.34 318 1037.74 316 1038.54 311.6L1065.74 161.6C1071.34 158.8 1080.14 156.8 1088.94 156.8C1106.94 156.8 1115.34 168 1110.94 193.6L1090.54 310.4C1089.74 314.8 1092.14 318 1096.94 318H1142.14C1146.14 318 1148.94 315.6 1149.34 311.6L1168.94 202C1171.34 188.4 1171.34 175.2 1169.34 164C1176.54 160 1186.54 156.8 1196.14 156.8C1215.34 156.8 1224.54 168 1220.14 193.6L1199.74 310.4C1199.34 314.8 1201.34 318 1206.14 318H1251.34C1255.34 318 1258.14 315.6 1258.54 311.6L1278.54 202C1288.14 145.2 1260.14 104.4 1204.94 104.4C1184.94 104.4 1164.54 110.4 1145.74 120.4ZM1316.87 181.2L1306.47 239.2C1297.27 291.2 1333.67 323.2 1386.07 323.2C1420.87 323.2 1448.07 313.6 1469.67 298.8C1473.27 296.8 1473.67 293.2 1472.07 289.2L1455.67 258.4C1453.67 254 1450.47 253.6 1446.47 256.4C1430.47 266 1412.07 272.4 1394.47 272.4C1372.47 272.4 1362.87 262 1366.87 240.8L1368.07 235.2H1479.27C1483.27 235.2 1485.67 233.2 1486.47 229.2L1493.27 190.4C1504.07 131.6 1467.67 104.4 1416.47 104.4C1368.07 104.4 1326.47 128.8 1316.87 181.2ZM1435.67 185.2L1433.67 195.2H1375.27L1377.27 184.4C1380.87 165.6 1394.07 155.2 1411.27 155.2C1431.67 155.2 1438.47 169.2 1435.67 185.2ZM1699.17 110H1648.77C1644.77 110 1642.37 111.2 1640.77 114.4L1603.57 175.2L1587.57 115.6C1586.37 111.6 1583.97 110 1579.97 110H1531.57C1526.77 110 1524.77 112.8 1526.37 117.6L1560.37 210L1487.17 309.6C1483.97 314 1485.97 318 1491.97 318H1543.97C1547.57 318 1550.37 316.4 1552.37 313.2L1592.37 254L1610.37 312C1611.57 316 1613.97 318 1617.97 318H1667.17C1672.37 318 1674.77 314.8 1672.77 310L1635.57 214.4L1703.57 118C1706.77 113.6 1704.77 110 1699.17 110Z" fill="#36362F"/>
</svg>
