<svg width="124" height="20" viewBox="0 0 124 20" fill="none" xmlns="http://www.w3.org/2000/svg">
<path fill-rule="evenodd" clip-rule="evenodd" d="M96.3878 4C93.4122 4 91 6.41218 91 9.38775C91 12.3633 93.4122 14.7755 96.3878 14.7755H118.612C121.588 14.7755 124 12.3633 124 9.38775C124 6.41218 121.588 4 118.612 4H96.3878ZM96.6176 4.76925C94.0678 4.76925 92.0007 6.83631 92.0007 9.38616C92.0007 11.936 94.0678 14.0031 96.6176 14.0031H118.383C120.933 14.0031 123 11.936 123 9.38616C123 6.83631 120.933 4.76925 118.383 4.76925H96.6176Z" fill="url(#paint0_linear_17305_46181)"/>
<path d="M98.7401 12.0234H100.866C101.951 12.0234 102.576 11.499 102.576 10.6011C102.576 9.99046 102.296 9.5738 101.743 9.39421C102.239 9.18589 102.497 8.76923 102.497 8.18736C102.497 7.31095 101.865 6.77217 100.831 6.77217H98.7401V12.0234ZM100.752 7.58393C101.269 7.58393 101.556 7.82817 101.556 8.28074C101.556 8.74768 101.276 9.01348 100.773 9.01348H99.6596V7.58393H100.752ZM100.831 9.78931C101.341 9.78931 101.635 10.0407 101.635 10.4861C101.635 10.9603 101.348 11.2117 100.831 11.2117H99.6596V9.78931H100.831ZM107.119 12.0234V11.1758H104.777V9.78213H106.874V8.97038H104.777V7.61985H107.119V6.77217H103.857V12.0234H107.119ZM108.094 7.61985H109.631V12.0234H110.551V7.61985H112.088V6.77217H108.094V7.61985ZM113.211 12.0234L113.635 10.8094H115.596L116.02 12.0234H116.99L115.094 6.77217H114.153L112.256 12.0234H113.211ZM114.505 8.33821C114.555 8.19454 114.598 8.0365 114.619 7.93593C114.634 8.04368 114.684 8.20172 114.727 8.33821L115.331 10.0336H113.908L114.505 8.33821Z" fill="#2E73F8"/>
<path fill-rule="evenodd" clip-rule="evenodd" d="M4.9447 5.81407C4.87254 5.81407 4.79947 5.7968 4.73158 5.76094C4.50715 5.64239 4.42123 5.36382 4.53927 5.13869C4.60195 5.01922 6.09102 2.21355 8.06044 2.34009C8.31362 2.35568 8.50564 2.57443 8.49004 2.82843C8.47452 3.08243 8.25307 3.2747 8.00388 3.25965C6.85726 3.18103 5.69995 4.90159 5.35076 5.56776C5.26884 5.72441 5.10952 5.81408 4.94471 5.81408" fill="#6AE394"/>
<path fill-rule="evenodd" clip-rule="evenodd" d="M1.79258 11.1529C1.59628 11.1529 1.41466 11.0251 1.35412 10.8267C1.28012 10.5835 1.41651 10.3264 1.65805 10.2518C1.76872 10.2171 4.2286 9.41422 3.62258 7.04438C3.55959 6.79775 3.70759 6.54651 3.95281 6.48355C4.19864 6.41965 4.44845 6.56863 4.51144 6.81495C5.17189 9.39978 3.10981 10.7693 1.92681 11.1326C1.88219 11.1463 1.83722 11.153 1.7926 11.153" fill="#6AE394"/>
<path fill-rule="evenodd" clip-rule="evenodd" d="M6.71537 7.95621C6.68664 7.95621 6.65789 7.95357 6.62883 7.94781C6.37963 7.89989 6.21666 7.6588 6.26405 7.4088C6.90035 4.06503 9.65895 4.03125 9.69809 4.03125H9.69839C9.95156 4.03217 10.1561 4.23949 10.1549 4.49379C10.1537 4.74748 9.9488 4.95234 9.69686 4.95265C9.6082 4.95357 7.65558 5.00455 7.16544 7.58171C7.12325 7.80254 6.93091 7.95611 6.71535 7.95611" fill="#6AE394"/>
<path fill-rule="evenodd" clip-rule="evenodd" d="M2.6107 14.169C2.52509 14.169 2.43884 14.145 2.36181 14.095C2.149 13.9564 2.08845 13.6711 2.22606 13.4577C2.52662 12.9924 5.22927 8.91055 7.64909 8.90625H7.6497C7.90288 8.90625 8.10804 9.11204 8.10835 9.36603C8.10897 9.62034 7.9041 9.82704 7.65062 9.82765C6.01662 9.83077 3.73654 12.8108 2.99598 13.9589C2.90823 14.095 2.76085 14.169 2.61072 14.169" fill="#6AE394"/>
<path fill-rule="evenodd" clip-rule="evenodd" d="M5.29237 16.3873C5.204 16.3873 5.11503 16.3618 5.03645 16.3087C4.82639 16.1665 4.77074 15.8802 4.9123 15.6692C5.28778 15.109 5.5275 14.7586 5.70148 14.5439C5.36239 12.5402 6.58086 11.8304 7.34924 11.5847C7.5908 11.5067 7.84825 11.6412 7.9253 11.8838C8.00205 12.1262 7.86873 12.3854 7.62749 12.4625C6.72671 12.7506 6.4081 13.3965 6.62489 14.4948C6.65239 14.6342 6.69399 14.8443 6.5145 15.024C6.49707 15.0412 6.47873 15.0568 6.45884 15.0713C6.33713 15.2162 5.96931 15.7423 5.67302 16.184C5.58436 16.3161 5.43942 16.3873 5.29235 16.3873" fill="#6AE394"/>
<path fill-rule="evenodd" clip-rule="evenodd" d="M7.92061 15.9991C7.73042 15.9991 7.55278 15.8793 7.48704 15.6889C7.25893 15.0258 6.26246 15.1517 6.25206 15.1536C6.00133 15.1849 5.77018 15.0101 5.73654 14.758C5.7029 14.5058 5.87902 14.2739 6.13037 14.2402C6.77828 14.1526 7.9781 14.2958 8.35419 15.3876C8.43673 15.6281 8.30985 15.8904 8.07044 15.9736C8.02089 15.9909 7.97015 15.9991 7.92063 15.9991" fill="#6AE394"/>
<path fill-rule="evenodd" clip-rule="evenodd" d="M6.46822 18.4726C6.12607 18.4726 5.76741 18.436 5.40966 18.3611C4.7116 18.2149 3.43596 17.7963 2.7382 16.6365C2.60704 16.4188 2.67643 16.1356 2.89322 16.0038C3.11001 15.8727 3.39162 15.9418 3.52279 16.1599C3.90132 16.7889 4.65748 17.2625 5.59709 17.4594C6.57125 17.663 7.37022 17.5042 7.70013 17.2695C7.90623 17.1227 8.19333 17.1719 8.33949 17.3795C8.48593 17.5874 8.43672 17.8749 8.23003 18.0217C7.81541 18.3162 7.17698 18.4726 6.46822 18.4726" fill="#6AE394"/>
<path fill-rule="evenodd" clip-rule="evenodd" d="M7.86291 0C7.29052 0 6.71171 0.164322 6.27447 0.450873C6.02863 0.611813 5.72134 0.758621 5.39601 0.914031C4.5842 1.30194 3.66416 1.74145 3.13243 2.66715C2.7805 3.28049 2.80221 3.83518 2.81841 4.24029C2.82319 4.36806 2.82797 4.48262 2.82176 4.59042C2.74258 4.6718 2.57959 4.79681 2.47563 4.87636C2.28759 5.0201 2.09343 5.16875 1.93535 5.34935C0.660313 6.80516 0.988396 8.13259 1.18439 8.92561C1.2269 9.09698 1.26694 9.25885 1.27919 9.37495C1.30307 9.59885 1.27858 10.0758 1.25913 10.4591C1.24075 10.824 1.22305 11.1683 1.23525 11.4192C1.25412 11.8062 1.42177 12.2073 1.63886 12.6914C1.68963 12.8041 1.74679 12.9319 1.76697 12.9899C1.93421 13.4721 2.04582 14.4688 2.08221 14.7962C2.39073 17.5539 4.32376 18.5438 5.73548 19.2668C5.98131 19.3927 6.21338 19.5116 6.42559 19.6323C6.81696 19.8556 7.41076 19.9999 7.9385 19.9999C8.98697 19.9999 9.72875 19.4336 9.8743 18.5223C10.0214 17.6009 10.0364 16.5757 10.0305 15.6055V15.6016C10.0088 11.9396 10.0234 2.49126 10.0365 2.0367C10.052 1.48478 9.87322 0.999511 9.51854 0.633102C9.1236 0.224822 8.53562 0 7.86294 0H7.86291ZM7.90207 15.3687C7.90207 15.3687 7.89228 15.3523 7.87939 15.3309C7.8844 15.3395 7.8899 15.3481 7.89587 15.3582C7.90016 15.3654 7.90207 15.3688 7.90207 15.3688V15.3687ZM8.43192 2.91141C8.43131 2.91141 8.43097 2.91171 8.43071 2.91171H8.43041C8.43103 2.91171 8.43137 2.91141 8.43192 2.91141L8.43222 2.91112L8.43192 2.91141H8.43192ZM7.86291 0.921401C8.5206 0.921401 9.1413 1.23406 9.11929 2.00988C9.10472 2.51942 9.09209 12.0627 9.11308 15.607V15.5996C9.11278 15.5163 9.11213 15.4512 9.11187 15.3959V15.3729V15.3959C9.11248 15.4736 9.11282 15.5523 9.11308 15.5996V15.6075V15.6108C9.11833 16.4932 9.10711 17.5046 8.96814 18.3763C8.88313 18.9104 8.42051 19.0784 7.93833 19.0784C7.5231 19.0784 7.0932 18.9537 6.87824 18.8308C5.39957 17.988 3.29347 17.375 2.99382 14.6931C2.91829 14.018 2.80915 13.1946 2.63302 12.6866C2.52784 12.3832 2.16887 11.7308 2.15144 11.3739C2.12828 10.9 2.24653 9.79832 2.1912 9.27711C2.10314 8.44478 1.40386 7.35077 2.62386 5.95761C2.91345 5.62713 3.66318 5.26656 3.72281 4.80432C3.80139 4.19313 3.59009 3.71431 3.92706 3.12737C4.50067 2.12827 5.85246 1.82728 6.77556 1.22223C7.06573 1.03212 7.47086 0.921233 7.86285 0.921233" fill="#6AE394"/>
<path fill-rule="evenodd" clip-rule="evenodd" d="M11.5845 0C10.9118 0 10.3238 0.224813 9.92906 0.633004C9.57437 0.999413 9.3955 1.48469 9.4111 2.0363C9.42423 2.49147 9.4386 11.9401 9.41707 15.6015V15.6111C9.4111 16.5758 9.42638 17.601 9.57332 18.5224C9.71886 19.4336 10.4607 20 11.5091 20C12.0369 20 12.6307 19.8556 13.022 19.6324C13.2342 19.5117 13.4663 19.3928 13.7121 19.2669C15.1239 18.5439 17.0569 17.554 17.3654 14.7962C17.4018 14.4688 17.5134 13.4725 17.6807 12.9903C17.7009 12.9319 17.758 12.8042 17.8088 12.6914C18.0259 12.2074 18.1934 11.8063 18.2124 11.419C18.2246 11.1684 18.2069 10.8241 18.1885 10.4592C18.1689 10.0759 18.1444 9.59889 18.1682 9.37499C18.1804 9.25891 18.2205 9.09704 18.263 8.92566C18.459 8.13264 18.7871 6.80521 17.5121 5.34939C17.354 5.16881 17.1598 5.02015 16.9718 4.87641C16.8678 4.79688 16.7048 4.67186 16.6256 4.59047C16.6194 4.48265 16.6241 4.3681 16.629 4.24034C16.6452 3.83523 16.6669 3.28054 16.315 2.6672C15.7833 1.7415 14.8632 1.30199 14.0514 0.914083C13.7261 0.758684 13.4191 0.611863 13.1733 0.450926C12.7357 0.16437 12.1569 5.27671e-05 11.5845 5.27671e-05L11.5845 0ZM11.5454 15.3687C11.5454 15.3687 11.5472 15.3654 11.5516 15.3582C11.5578 15.3481 11.5628 15.3395 11.5681 15.3308C11.5552 15.3524 11.5454 15.3686 11.5454 15.3686V15.3687ZM11.0155 2.91128C11.0161 2.91128 11.0164 2.91158 11.017 2.91158H11.0167C11.0164 2.91158 11.016 2.91128 11.0154 2.91128L11.0152 2.91098L11.0154 2.91128H11.0155ZM11.5845 0.921358C11.9764 0.921358 12.3819 1.03253 12.6717 1.22235C13.5949 1.8274 14.9466 2.12839 15.5202 3.1275C15.8572 3.71443 15.6459 4.19325 15.7245 4.80445C15.7841 5.26668 16.5339 5.62726 16.8234 5.95773C18.0434 7.35089 17.3441 8.4449 17.2561 9.27724C17.2007 9.79844 17.3191 10.9001 17.2958 11.374C17.2784 11.7309 16.9194 12.3833 16.8142 12.6867C16.6381 13.1947 16.529 14.0181 16.4535 14.6932C16.1538 17.3751 14.0477 17.9882 12.569 18.8309C12.3541 18.9538 11.9242 19.0785 11.5089 19.0785C11.0271 19.0785 10.5641 18.9105 10.4791 18.3764C10.34 17.5047 10.329 16.4933 10.3342 15.6109V15.6076V15.5997C10.3342 15.568 10.3345 15.5229 10.3348 15.4734C10.3351 15.4363 10.3354 15.4031 10.3354 15.373C10.3354 15.4068 10.3351 15.4409 10.3348 15.4734C10.3348 15.5106 10.3345 15.5521 10.3342 15.5997V15.6071C10.3552 12.0628 10.3428 2.51953 10.328 2.01C10.306 1.23387 10.9267 0.921514 11.5844 0.921514" fill="#6AE394"/>
<path fill-rule="evenodd" clip-rule="evenodd" d="M14.5172 5.81385C14.3527 5.81385 14.1934 5.72448 14.1112 5.56815C13.7605 4.90197 12.6053 3.18079 11.4577 3.25973C11.2119 3.27508 10.9872 3.0825 10.9716 2.82851C10.9561 2.57451 11.148 2.35583 11.4012 2.34017C13.3709 2.2124 14.86 5.0193 14.9227 5.13877C15.0407 5.3639 14.9548 5.64186 14.7306 5.76072C14.6627 5.79665 14.5894 5.81384 14.5172 5.81384" fill="#6AE394"/>
<path fill-rule="evenodd" clip-rule="evenodd" d="M17.6664 11.1528C17.6217 11.1528 17.5768 11.1463 17.5325 11.1326C16.3495 10.7693 14.2874 9.39978 14.9478 6.81494C15.0108 6.56862 15.26 6.41966 15.5065 6.48355C15.7517 6.54651 15.8997 6.79775 15.8367 7.04437C15.2301 9.41698 17.6963 10.2189 17.8015 10.2518C18.0428 10.3273 18.1785 10.585 18.1042 10.8276C18.0431 11.0254 17.8624 11.1529 17.6664 11.1529" fill="#6AE394"/>
<path fill-rule="evenodd" clip-rule="evenodd" d="M12.7405 7.95611C12.525 7.95611 12.3327 7.80253 12.2905 7.58172C11.7976 4.98951 9.86758 4.95265 9.76301 4.95265C9.76063 4.95235 9.76039 4.95265 9.75943 4.95265C9.50718 4.95265 9.30201 4.74748 9.30079 4.49379C9.29957 4.23949 9.50411 4.03217 9.75729 4.03125H9.75759C9.79641 4.03125 12.5556 4.06473 13.1919 7.4088C13.2393 7.6588 13.0763 7.89991 12.8272 7.94782C12.7981 7.95333 12.7693 7.95621 12.7406 7.95621" fill="#6AE394"/>
<path fill-rule="evenodd" clip-rule="evenodd" d="M16.845 14.169C16.6949 14.169 16.5475 14.095 16.4597 13.9589C15.7182 12.8108 13.4369 9.83072 11.8054 9.82765C11.5519 9.82703 11.347 9.62035 11.3477 9.36603C11.348 9.11203 11.5531 8.90625 11.8063 8.90625H11.8069C14.2264 8.91057 16.9291 12.9924 17.2296 13.4577C17.3672 13.6711 17.3067 13.9564 17.0942 14.0947C17.0168 14.145 16.9306 14.169 16.845 14.169" fill="#6AE394"/>
<path fill-rule="evenodd" clip-rule="evenodd" d="M13.2015 15.1533C13.2492 15.1609 13.3027 15.1617 13.3611 15.1499C13.3079 15.1607 13.2535 15.1612 13.2015 15.1533ZM14.1686 16.3873C14.0216 16.3873 13.8766 16.3161 13.788 16.184C13.4917 15.7426 13.1241 15.2168 13.0021 15.0713C12.9823 15.0571 12.9636 15.0412 12.9462 15.024C12.7667 14.8443 12.8083 14.6342 12.8358 14.4948C13.0526 13.3965 12.734 12.7505 11.8332 12.4625C11.5919 12.3854 11.4586 12.1265 11.5354 11.8838C11.6121 11.6412 11.8699 11.5067 12.1117 11.5847C12.8798 11.8304 14.098 12.5402 13.7592 14.5436C13.9335 14.7583 14.1729 15.1087 14.5487 15.6692C14.6902 15.8802 14.6346 16.1665 14.4245 16.3087C14.346 16.3618 14.257 16.3873 14.1686 16.3873" fill="#6AE394"/>
<path fill-rule="evenodd" clip-rule="evenodd" d="M11.5369 15.999C11.4873 15.999 11.4366 15.9906 11.3871 15.9735C11.1477 15.8903 11.0208 15.628 11.1033 15.3875C11.4794 14.2956 12.6777 14.1528 13.3271 14.2401C13.5785 14.2739 13.7546 14.5057 13.721 14.7579C13.6874 15.0097 13.4568 15.1879 13.2073 15.1535C13.1901 15.1517 12.1946 15.0364 11.9705 15.6888C11.9047 15.8792 11.7271 15.999 11.5369 15.999" fill="#6AE394"/>
<path fill-rule="evenodd" clip-rule="evenodd" d="M12.9908 18.4724C12.282 18.4724 11.6436 18.3161 11.229 18.0216C11.0223 17.8747 10.973 17.5873 11.1195 17.3793C11.2653 17.1717 11.5528 17.1226 11.7588 17.2694C12.0888 17.504 12.8877 17.6628 13.8619 17.4592C14.8015 17.2623 15.5577 16.7887 15.9362 16.1597C16.0674 15.9417 16.349 15.8729 16.5658 16.0037C16.7825 16.1355 16.852 16.4186 16.7208 16.6364C16.023 17.7961 14.7474 18.2148 14.0493 18.361C13.6916 18.4359 13.3329 18.4725 12.9908 18.4725" fill="#6AE394"/>
<path d="M32.7139 5.7225C32.1177 5.24164 31.2906 4.95312 30.3289 4.95312C29.1363 4.95312 27.7322 5.24164 26.5974 5.7225C26.4243 5.79944 26.3473 5.91484 26.3089 6.06872L24.7124 14.8588C24.6739 15.0897 24.7893 15.2243 25.0009 15.2243H27.2129C27.4052 15.2243 27.5206 15.1281 27.5591 14.9165L28.867 7.70364C29.1363 7.569 29.5595 7.47283 29.9826 7.47283C30.8482 7.47283 31.2521 8.01139 31.0405 9.2424L30.0596 14.8588C30.0211 15.0704 30.1365 15.2243 30.3673 15.2243H32.5408C32.7332 15.2243 32.8678 15.1089 32.887 14.9165L33.8295 9.64632C33.9449 8.99235 33.9449 8.35761 33.8487 7.81905C34.195 7.62671 34.6758 7.47283 35.1375 7.47283C36.0607 7.47283 36.5031 8.01139 36.2915 9.2424L35.3106 14.8588C35.2913 15.0704 35.3875 15.2243 35.6183 15.2243H37.7918C37.9841 15.2243 38.1188 15.1089 38.138 14.9165L39.0997 9.64632C39.5614 6.91503 38.215 4.95312 35.5606 4.95312C34.5989 4.95312 33.6179 5.24164 32.7139 5.7225Z" fill="#F1F1F3"/>
<path d="M40.9425 8.64613L40.4424 11.4351C40 13.9356 41.7503 15.4743 44.27 15.4743C45.9434 15.4743 47.2514 15.0127 48.29 14.301C48.4631 14.2049 48.4824 14.0318 48.4054 13.8394L47.6168 12.3584C47.5206 12.1468 47.3668 12.1276 47.1744 12.2622C46.4051 12.7238 45.5203 13.0316 44.674 13.0316C43.6161 13.0316 43.1544 12.5315 43.3468 11.5121L43.4045 11.2428H48.7516C48.944 11.2428 49.0594 11.1466 49.0979 10.9543L49.4249 9.08852C49.9442 6.26106 48.1939 4.95312 45.7318 4.95312C43.4045 4.95312 41.4041 6.12642 40.9425 8.64613ZM46.6551 8.83847L46.5589 9.31933H43.7507L43.8469 8.8C44.02 7.89599 44.6547 7.39589 45.4818 7.39589C46.4628 7.39589 46.7897 8.0691 46.6551 8.83847Z" fill="#F1F1F3"/>
<path d="M58.0718 5.7225C57.4755 5.24164 56.6484 4.95312 55.6867 4.95312C54.4942 4.95312 53.0901 5.24164 51.9552 5.7225C51.7821 5.79944 51.7052 5.91484 51.6667 6.06872L50.0703 14.8588C50.0318 15.0897 50.1472 15.2243 50.3588 15.2243H52.5707C52.7631 15.2243 52.8785 15.1281 52.9169 14.9165L54.2249 7.70364C54.4942 7.569 54.9173 7.47283 55.3405 7.47283C56.206 7.47283 56.6099 8.01139 56.3984 9.2424L55.4174 14.8588C55.3789 15.0704 55.4944 15.2243 55.7252 15.2243H57.8987C58.091 15.2243 58.2256 15.1089 58.2449 14.9165L59.1874 9.64632C59.3028 8.99235 59.3028 8.35761 59.2066 7.81905C59.5528 7.62671 60.0337 7.47283 60.4953 7.47283C61.4185 7.47283 61.8609 8.01139 61.6494 9.2424L60.6684 14.8588C60.6492 15.0704 60.7453 15.2243 60.9762 15.2243H63.1496C63.342 15.2243 63.4766 15.1089 63.4959 14.9165L64.4576 9.64632C64.9192 6.91503 63.5728 4.95312 60.9185 4.95312C59.9567 4.95312 58.9758 5.24164 58.0718 5.7225Z" fill="#F1F1F3"/>
<path d="M66.3003 8.64613L65.8002 11.4351C65.3578 13.9356 67.1082 15.4743 69.6279 15.4743C71.3013 15.4743 72.6092 15.0127 73.6479 14.301C73.821 14.2049 73.8402 14.0318 73.7633 13.8394L72.9747 12.3584C72.8785 12.1468 72.7246 12.1276 72.5323 12.2622C71.7629 12.7238 70.8781 13.0316 70.0318 13.0316C68.9739 13.0316 68.5123 12.5315 68.7046 11.5121L68.7623 11.2428H74.1095C74.3018 11.2428 74.4172 11.1466 74.4557 10.9543L74.7827 9.08852C75.302 6.26106 73.5517 4.95312 71.0897 4.95312C68.7623 4.95312 66.762 6.12642 66.3003 8.64613ZM72.0129 8.83847L71.9168 9.31933H69.1085L69.2047 8.8C69.3778 7.89599 70.0126 7.39589 70.8396 7.39589C71.8206 7.39589 72.1476 8.0691 72.0129 8.83847Z" fill="#F1F1F3"/>
<path d="M84.6839 5.22241H82.2604C82.068 5.22241 81.9526 5.28011 81.8757 5.43399L80.0869 8.35761L79.3175 5.49169C79.2598 5.29934 79.1444 5.22241 78.9521 5.22241H76.6247C76.3939 5.22241 76.2977 5.35705 76.3746 5.58786L78.0096 10.031L74.4897 14.8204C74.3358 15.0319 74.432 15.2243 74.7205 15.2243H77.221C77.3941 15.2243 77.5287 15.1474 77.6249 14.9935L79.5483 12.1468L80.4139 14.9358C80.4716 15.1281 80.587 15.2243 80.7793 15.2243H83.1452C83.3952 15.2243 83.5106 15.0704 83.4144 14.8396L81.6256 10.2426L84.8955 5.6071C85.0494 5.39552 84.9532 5.22241 84.6839 5.22241Z" fill="#F1F1F3"/>
<defs>
<linearGradient id="paint0_linear_17305_46181" x1="91" y1="9.38775" x2="124" y2="9.38775" gradientUnits="userSpaceOnUse">
<stop stop-color="#D9D9D9"/>
<stop offset="0.0001" stop-color="#2E73F8"/>
<stop offset="0.788561" stop-color="#0A4BCA"/>
<stop offset="1" stop-color="#0041BE"/>
</linearGradient>
</defs>
</svg>
