<svg width="142" height="34" viewBox="0 0 142 34" fill="none" xmlns="http://www.w3.org/2000/svg">
<path fill-rule="evenodd" clip-rule="evenodd" d="M110.052 10C106.157 10 103 13.1572 103 17.0518C103 20.9464 106.157 24.1036 110.052 24.1036H134.948C138.843 24.1036 142 20.9464 142 17.0518C142 13.1572 138.843 10 134.948 10H110.052ZM110.079 10.8014C106.612 10.8014 103.801 13.6119 103.801 17.0788C103.801 20.5457 106.612 23.3562 110.079 23.3562H134.921C138.388 23.3562 141.199 20.5457 141.199 17.0788C141.199 13.6119 138.388 10.8014 134.921 10.8014H110.079Z" fill="url(#paint0_linear_20901_49368)"/>
<path d="M110.998 20.3828V13.5097H113.734C115.088 13.5097 115.916 14.2148 115.916 15.3619C115.916 16.1235 115.577 16.6689 114.929 16.9415C115.652 17.1766 116.019 17.7219 116.019 18.5211C116.019 19.6964 115.201 20.3828 113.781 20.3828H110.998ZM113.631 14.5721H112.202V16.4432H113.659C114.317 16.4432 114.684 16.0953 114.684 15.4842C114.684 14.8918 114.308 14.5721 113.631 14.5721ZM113.734 17.4587H112.202V19.3203H113.734C114.411 19.3203 114.787 18.9913 114.787 18.3707C114.787 17.7878 114.402 17.4587 113.734 17.4587ZM121.965 20.3828H117.696V13.5097H121.965V14.6192H118.9V16.3868H121.645V17.4493H118.9V19.2733H121.965V20.3828ZM123.241 14.6192V13.5097H128.469V14.6192H126.457V20.3828H125.253V14.6192H123.241ZM129.939 20.3828H128.689L131.171 13.5097H132.403L134.885 20.3828H133.616L133.061 18.7938H130.494L129.939 20.3828ZM131.632 15.5594L130.851 17.7784H132.713L131.923 15.5594C131.867 15.3807 131.801 15.1739 131.782 15.0329C131.754 15.1645 131.697 15.3713 131.632 15.5594Z" fill="#2E73F8"/>
<path d="M14.0349 23.9362C14.1253 24.0718 14.273 24.1449 14.4229 24.1449C14.513 24.1449 14.6037 24.1188 14.6838 24.0642C14.8979 23.9182 14.9546 23.6242 14.8103 23.4076C14.4273 22.832 14.1832 22.4721 14.0056 22.2516C14.3509 20.1943 13.1093 19.4654 12.3264 19.2131C12.0799 19.133 11.8171 19.2712 11.7389 19.5203C11.6607 19.7695 11.7966 20.0354 12.0425 20.1145C12.8817 20.3849 13.2252 20.9624 13.1092 21.921C12.4468 21.9508 11.6103 22.2257 11.3051 23.1184C11.2209 23.3654 11.3503 23.6347 11.5943 23.7202C11.6448 23.7377 11.6965 23.7464 11.747 23.7464C11.9409 23.7464 12.122 23.6234 12.189 23.4278C12.3634 22.9164 12.9961 22.8643 13.2934 22.8692C13.4531 23.0799 13.7716 23.541 14.0349 23.9362Z" fill="url(#paint1_linear_20901_49368)" fill-opacity="0.8"/>
<path d="M14.3678 13.0363C14.4516 13.1968 14.614 13.2886 14.7817 13.2886C14.8552 13.2886 14.93 13.2709 14.9992 13.234C15.2276 13.112 15.3152 12.8265 15.1949 12.5953C15.131 12.4727 13.6132 9.59027 11.6055 9.72148C11.3475 9.73756 11.1518 9.96212 11.1676 10.223C11.1835 10.4838 11.4126 10.6815 11.6632 10.6658C12.8328 10.5847 14.0103 12.3522 14.3678 13.0363Z" fill="url(#paint2_linear_20901_49368)" fill-opacity="0.8"/>
<path d="M5.02364 13.2888C4.95008 13.2888 4.87561 13.2711 4.80641 13.2343C4.57766 13.1125 4.49008 12.8265 4.61039 12.5953C4.67428 12.4726 6.19206 9.59146 8.19946 9.7214C8.45752 9.73741 8.65324 9.96204 8.63734 10.2229C8.62152 10.4837 8.39581 10.6811 8.14181 10.6657C6.97308 10.5849 5.79345 12.3518 5.43753 13.0359C5.35403 13.1967 5.19162 13.2888 5.02364 13.2888Z" fill="url(#paint3_linear_20901_49368)" fill-opacity="0.8"/>
<path d="M5.37598 24.1449C5.28591 24.1449 5.19522 24.1188 5.11512 24.0642C4.90102 23.9182 4.84429 23.6242 4.98859 23.4076C5.37131 22.8323 5.61565 22.4724 5.79298 22.252C5.44735 20.1943 6.68932 19.4654 7.47252 19.2131C7.71873 19.133 7.98115 19.2712 8.05968 19.5203C8.13791 19.7692 8.00203 20.0354 7.75613 20.1145C6.9169 20.3849 6.57344 20.9623 6.68934 21.9209C7.35176 21.95 8.19107 22.2246 8.49669 23.1185C8.58083 23.3655 8.4515 23.6348 8.20747 23.7203C8.15697 23.738 8.10525 23.7465 8.05477 23.7465C7.86092 23.7465 7.67983 23.6235 7.61283 23.4279C7.43528 22.908 6.80107 22.8604 6.50642 22.8679C6.34713 23.0778 6.02774 23.54 5.76398 23.9362C5.67361 24.0718 5.52589 24.1449 5.37598 24.1449Z" fill="url(#paint4_linear_20901_49368)" fill-opacity="0.8"/>
<path fill-rule="evenodd" clip-rule="evenodd" d="M11.8003 7.32031C11.1146 7.32031 10.5153 7.55117 10.1129 7.97034C10.0331 8.05345 9.96198 8.14251 9.89982 8.23694C9.83768 8.14255 9.7666 8.05352 9.68678 7.97045C9.28423 7.55119 8.68491 7.32032 7.99925 7.32032C7.41583 7.32032 6.82582 7.48906 6.38015 7.78332C6.12958 7.94858 5.81636 8.09934 5.48475 8.25893L5.4843 8.25915C4.65696 8.65744 3.71941 9.10878 3.17753 10.0592C2.81882 10.689 2.84094 11.2586 2.85746 11.6746L2.8581 11.692C2.86274 11.8162 2.86692 11.9284 2.86087 12.0342C2.78016 12.1178 2.61403 12.2461 2.50807 12.3278C2.3164 12.4754 2.11849 12.6281 1.95736 12.8135C0.65775 14.3085 0.992151 15.6716 1.19193 16.486C1.23525 16.662 1.27607 16.8282 1.28855 16.9474C1.3127 17.1755 1.28833 17.6592 1.26859 18.0512L1.26735 18.0759C1.24889 18.445 1.2315 18.7925 1.24377 19.0467C1.263 19.4441 1.43388 19.856 1.65516 20.353C1.70691 20.4688 1.76517 20.6 1.78574 20.6596C1.95621 21.1548 2.06997 22.1782 2.10706 22.5144C2.42151 25.3462 4.39169 26.3628 5.83061 27.1052L5.83115 27.1055C6.08158 27.2347 6.318 27.3567 6.53419 27.4806C6.93311 27.7099 7.53835 27.8581 8.07628 27.8581C8.94076 27.8581 9.60069 27.4776 9.89985 26.8368C10.199 27.4776 10.8589 27.8582 11.7235 27.8582C12.2614 27.8582 12.8666 27.71 13.2656 27.4807C13.4818 27.3568 13.7182 27.2348 13.9687 27.1055L13.9691 27.1053C15.408 26.3629 17.3782 25.3463 17.6927 22.5145C17.7298 22.1783 17.8435 21.1551 18.014 20.66C18.0347 20.6 18.0928 20.4688 18.1446 20.3531C18.3659 19.856 18.5367 19.4441 18.556 19.0464C18.5682 18.7923 18.5508 18.4444 18.5324 18.075L18.5314 18.0556C18.5115 17.6628 18.4868 17.1764 18.511 16.9474C18.5234 16.8282 18.5643 16.662 18.6076 16.486C18.8074 15.6717 19.1418 14.3085 17.8422 12.8136C17.681 12.6281 17.4831 12.4755 17.2914 12.3279C17.1855 12.2462 17.0194 12.1178 16.9386 12.0342C16.9325 11.9271 16.9368 11.8135 16.9416 11.6874L16.9421 11.6747C16.9586 11.2587 16.9807 10.6891 16.622 10.0592C16.0801 9.10882 15.1426 8.65748 14.3153 8.25919L14.3148 8.25898C13.9832 8.0994 13.6703 7.94863 13.4197 7.78337C12.9737 7.4891 12.3837 7.32031 11.8003 7.32031ZM12.5121 15.1012C12.176 13.3205 11.1844 12.714 10.5328 12.5077C10.5391 15.7373 10.54 20.6325 10.5271 23.1211C10.5271 23.1372 10.527 23.1533 10.5269 23.1693L10.527 23.1521L10.5267 23.192L10.5269 23.1693L10.5264 23.2537C10.5265 23.2385 10.5265 23.2239 10.5265 23.2099L10.5265 23.2165C10.5262 23.2647 10.5259 23.3085 10.5259 23.3395L10.5261 23.2995L10.5259 23.3472V23.3511C10.5206 24.2572 10.5318 25.2958 10.6736 26.1909C10.7603 26.7394 11.2321 26.9119 11.7233 26.9119C12.1465 26.9119 12.5847 26.7839 12.8038 26.6577C13.0245 26.531 13.2589 26.4093 13.4992 26.2853C13.4073 26.2903 13.3163 26.2928 13.2263 26.2928C12.5039 26.2928 11.8532 26.1323 11.4306 25.8298C11.2199 25.679 11.1697 25.3838 11.319 25.1703C11.4676 24.9571 11.7606 24.9066 11.9707 25.0574C12.3069 25.2984 13.1213 25.4614 14.1143 25.2523C15.072 25.0502 15.8427 24.5638 16.2286 23.9179C16.2757 23.839 16.3418 23.7791 16.4174 23.7405C16.5857 23.36 16.7063 22.9211 16.7631 22.4087C16.7863 22.2 16.8126 21.9775 16.8429 21.7542C16.8124 21.7267 16.785 21.6946 16.7617 21.6583C16.006 20.4793 13.6807 17.4191 12.0177 17.4159C11.7593 17.4153 11.5505 17.203 11.5511 16.9419C11.5514 16.681 11.7605 16.4697 12.0186 16.4697H12.0192C13.9921 16.4733 16.1496 19.1563 17.0906 20.4742C17.1037 20.4305 17.1171 20.3884 17.1309 20.3482C17.1649 20.2493 17.2251 20.1141 17.2919 19.9641C17.4354 19.6417 17.6096 19.2503 17.6218 19.0003C17.6262 18.9093 17.6256 18.7957 17.622 18.6678C16.3999 18.1978 14.5869 16.8059 15.2187 14.3144C15.2829 14.0614 15.5369 13.9085 15.7881 13.9741C16.0381 14.0387 16.1889 14.2967 16.1247 14.55C15.6833 16.2894 16.8383 17.2067 17.5742 17.6015C17.5636 17.3112 17.5609 17.0403 17.5812 16.8471C17.6005 16.6631 17.6487 16.4667 17.7 16.2575C17.8872 15.4946 18.1162 14.561 17.1402 13.4383C17.0404 13.3235 16.8868 13.2051 16.725 13.0804C16.4085 12.8364 16.0603 12.568 16.0201 12.254C15.9922 12.0355 16.0002 11.8334 16.0079 11.6374C16.0222 11.2705 16.0358 10.9248 15.8119 10.5319C15.4157 9.83664 14.6552 9.47059 13.9133 9.11348C13.5605 8.94363 13.2118 8.7758 12.9085 8.57554C12.6131 8.38061 12.1998 8.26645 11.8003 8.26645C11.1299 8.26645 10.4972 8.58737 10.5196 9.38437C10.5236 9.52602 10.5275 10.3476 10.5306 11.5427C11.4033 11.7537 12.9681 12.473 13.4309 14.9236C13.4792 15.1803 13.3131 15.4279 13.0591 15.4771C13.0295 15.4828 13.0002 15.4857 12.9709 15.4857C12.7512 15.4857 12.5551 15.3279 12.5121 15.1012ZM9.26884 11.5432C8.39592 11.7548 6.83314 12.4748 6.37061 14.9236C6.3223 15.1803 6.48842 15.4279 6.74242 15.4771C6.77204 15.483 6.80135 15.4857 6.83063 15.4857C7.05034 15.4857 7.24637 15.3279 7.28937 15.1012C7.62161 13.3412 8.61311 12.7285 9.26667 12.5152C9.26039 15.7457 9.25942 20.6366 9.27227 23.1227L9.27239 23.1465L9.27227 23.1303L9.27258 23.1831L9.2735 23.3471V23.351C9.27886 24.2571 9.26742 25.2957 9.12577 26.1908C9.03912 26.7393 8.56758 26.9118 8.0761 26.9118C7.65286 26.9118 7.21467 26.7837 6.99557 26.6576C6.77499 26.5309 6.54071 26.4093 6.30051 26.2854C6.39288 26.2904 6.48444 26.293 6.57486 26.293C7.29729 26.293 7.94804 26.1324 8.37065 25.8299C8.58132 25.6792 8.63149 25.384 8.48222 25.1704C8.33324 24.9572 8.0406 24.9068 7.83054 25.0575C7.49426 25.2985 6.67989 25.4616 5.68694 25.2525C4.72921 25.0503 3.95848 24.564 3.57264 23.918C3.52507 23.8384 3.45808 23.778 3.38157 23.7395C3.21345 23.3592 3.09303 22.9206 3.03625 22.4086C3.01307 22.1998 2.98678 21.9773 2.95645 21.7539C2.98681 21.7265 3.01409 21.6945 3.03728 21.6583C3.79212 20.4793 6.11617 17.4191 7.78168 17.4159C8.04004 17.4153 8.24886 17.203 8.24823 16.9419C8.24792 16.6811 8.0388 16.4697 7.78074 16.4697H7.78011C5.80722 16.4733 3.64988 19.1558 2.70866 20.4738C2.69566 20.4302 2.68228 20.3882 2.66849 20.3481C2.63444 20.2491 2.57429 20.114 2.50748 19.964C2.36397 19.6416 2.18975 19.2502 2.17763 19.0001C2.17323 18.9095 2.17383 18.7966 2.17736 18.6693C3.39946 18.2007 5.21696 16.8085 4.58442 14.3144C4.52022 14.0614 4.2656 13.9084 4.01502 13.9741C3.76507 14.0387 3.61422 14.2967 3.67843 14.55C4.12071 16.2924 2.96091 17.2099 2.22507 17.6036C2.2358 17.3125 2.23856 17.0407 2.21815 16.8469C2.19883 16.663 2.15067 16.4666 2.09935 16.2574C1.91221 15.4945 1.68323 14.5609 2.65915 13.4382C2.75901 13.3233 2.91256 13.205 3.07439 13.0803C3.3909 12.8363 3.73908 12.5679 3.77929 12.2539C3.80718 12.0353 3.79925 11.8333 3.79156 11.6373C3.77716 11.2704 3.7636 10.9247 3.98748 10.5318C4.3837 9.83652 5.14419 9.47047 5.88609 9.11336C6.23897 8.94351 6.58763 8.77568 6.89091 8.57541C7.18667 8.38019 7.59962 8.26633 7.99917 8.26633C8.66955 8.26633 9.30227 8.58757 9.27983 9.38426C9.27581 9.52593 9.27193 10.3477 9.26884 11.5432ZM9.27273 23.2042L9.27258 23.1831L9.27239 23.1465L9.27273 23.2042ZM9.2735 23.3394C9.27338 23.3059 9.27321 23.2752 9.27302 23.2469L9.2735 23.3394Z" fill="url(#paint5_linear_20901_49368)" fill-opacity="0.8"/>
<path d="M10.5269 23.1693C10.527 23.1533 10.5271 23.1372 10.5271 23.1211C10.54 20.6325 10.5391 15.7373 10.5328 12.5077C11.1844 12.714 12.176 13.3205 12.5121 15.1012C12.5551 15.3279 12.7512 15.4857 12.9709 15.4857C13.0002 15.4857 13.0295 15.4828 13.0591 15.4771C13.3131 15.4279 13.4792 15.1803 13.4309 14.9236C12.9681 12.473 11.4033 11.7537 10.5306 11.5427C10.5275 10.3476 10.5236 9.52602 10.5196 9.38437C10.4972 8.58737 11.1299 8.26645 11.8003 8.26645C12.1998 8.26645 12.6131 8.38061 12.9085 8.57554C13.2118 8.7758 13.5605 8.94363 13.9133 9.11348C14.6552 9.47059 15.4157 9.83664 15.8119 10.5319C16.0358 10.9248 16.0222 11.2705 16.0079 11.6374C16.0002 11.8334 15.9922 12.0355 16.0201 12.254C16.0603 12.568 16.4085 12.8364 16.725 13.0804C16.8868 13.2051 17.0404 13.3235 17.1402 13.4383C18.1162 14.561 17.8872 15.4946 17.7 16.2575C17.6487 16.4667 17.6005 16.6631 17.5812 16.8471C17.5609 17.0403 17.5636 17.3112 17.5742 17.6015C16.8383 17.2067 15.6833 16.2894 16.1247 14.55C16.1889 14.2967 16.0381 14.0387 15.7881 13.9741C15.5369 13.9085 15.2829 14.0614 15.2187 14.3144C14.5869 16.8059 16.3999 18.1978 17.622 18.6678C17.6256 18.7957 17.6262 18.9093 17.6218 19.0003C17.6096 19.2503 17.4354 19.6417 17.2919 19.9641C17.2251 20.1141 17.1649 20.2493 17.1309 20.3482C17.1171 20.3884 17.1037 20.4305 17.0906 20.4742C16.1496 19.1563 13.9921 16.4733 12.0192 16.4697H12.0186C11.7605 16.4697 11.5514 16.681 11.5511 16.9419C11.5505 17.203 11.7593 17.4153 12.0177 17.4159C13.6807 17.4191 16.006 20.4793 16.7617 21.6583C16.785 21.6946 16.8124 21.7267 16.8429 21.7542C16.8126 21.9775 16.7863 22.2 16.7631 22.4087C16.7063 22.9211 16.5857 23.36 16.4174 23.7405C16.3418 23.7791 16.2757 23.839 16.2286 23.9179C15.8427 24.5638 15.072 25.0502 14.1143 25.2523C13.1213 25.4614 12.3069 25.2984 11.9707 25.0574C11.7606 24.9066 11.4676 24.9571 11.319 25.1703C11.1697 25.3838 11.2199 25.679 11.4306 25.8298C11.8532 26.1323 12.5039 26.2928 13.2263 26.2928C13.3163 26.2928 13.4073 26.2903 13.4992 26.2853C13.2589 26.4093 13.0245 26.531 12.8038 26.6577C12.5847 26.7839 12.1465 26.9119 11.7233 26.9119C11.2321 26.9119 10.7603 26.7394 10.6736 26.1909C10.5318 25.2958 10.5206 24.2572 10.5259 23.3511V23.3472L10.5261 23.2995L10.5259 23.3395C10.5259 23.3085 10.5262 23.2647 10.5265 23.2165L10.5265 23.2099C10.5265 23.2239 10.5265 23.2385 10.5264 23.2537L10.5269 23.1693ZM10.5269 23.1693L10.527 23.1521L10.5267 23.192L10.5269 23.1693ZM9.27239 23.1465L9.27227 23.1227C9.25942 20.6366 9.26039 15.7457 9.26667 12.5152C8.61311 12.7285 7.62161 13.3412 7.28937 15.1012C7.24637 15.3279 7.05034 15.4857 6.83063 15.4857C6.80135 15.4857 6.77204 15.483 6.74242 15.4771C6.48842 15.4279 6.3223 15.1803 6.37061 14.9236C6.83314 12.4748 8.39592 11.7548 9.26884 11.5432C9.27193 10.3477 9.27581 9.52593 9.27983 9.38426C9.30227 8.58757 8.66955 8.26633 7.99917 8.26633C7.59962 8.26633 7.18667 8.38019 6.89091 8.57541C6.58763 8.77568 6.23897 8.94351 5.88609 9.11336C5.14419 9.47047 4.3837 9.83652 3.98748 10.5318C3.7636 10.9247 3.77716 11.2704 3.79156 11.6373C3.79925 11.8333 3.80718 12.0353 3.77929 12.2539C3.73908 12.5679 3.3909 12.8363 3.07439 13.0803C2.91256 13.205 2.75901 13.3233 2.65915 13.4382C1.68323 14.5609 1.91221 15.4945 2.09935 16.2574C2.15067 16.4666 2.19883 16.663 2.21815 16.8469C2.23856 17.0407 2.2358 17.3125 2.22507 17.6036C2.96091 17.2099 4.12071 16.2924 3.67843 14.55C3.61422 14.2967 3.76507 14.0387 4.01502 13.9741C4.2656 13.9084 4.52022 14.0614 4.58442 14.3144C5.21696 16.8085 3.39946 18.2007 2.17736 18.6693C2.17383 18.7966 2.17323 18.9095 2.17763 19.0001C2.18975 19.2502 2.36397 19.6416 2.50748 19.964C2.57429 20.114 2.63444 20.2491 2.66849 20.3481C2.68228 20.3882 2.69566 20.4302 2.70866 20.4738C3.64988 19.1558 5.80722 16.4733 7.78011 16.4697H7.78074C8.0388 16.4697 8.24792 16.6811 8.24823 16.9419C8.24886 17.203 8.04004 17.4153 7.78168 17.4159C6.11617 17.4191 3.79212 20.4793 3.03728 21.6583C3.01409 21.6945 2.98681 21.7265 2.95645 21.7539C2.98678 21.9773 3.01307 22.1998 3.03625 22.4086C3.09303 22.9206 3.21345 23.3592 3.38157 23.7395C3.45808 23.778 3.52507 23.8384 3.57264 23.918C3.95848 24.564 4.72921 25.0503 5.68694 25.2525C6.67989 25.4616 7.49426 25.2985 7.83054 25.0575C8.0406 24.9068 8.33324 24.9572 8.48222 25.1704C8.63149 25.384 8.58132 25.6792 8.37065 25.8299C7.94804 26.1324 7.29729 26.293 6.57486 26.293C6.48444 26.293 6.39288 26.2904 6.30051 26.2854C6.54071 26.4093 6.77499 26.5309 6.99557 26.6576C7.21467 26.7837 7.65286 26.9118 8.0761 26.9118C8.56758 26.9118 9.03912 26.7393 9.12577 26.1908C9.26742 25.2957 9.27886 24.2571 9.2735 23.351V23.3471L9.27258 23.1831M9.27239 23.1465L9.27227 23.1303L9.27258 23.1831M9.27239 23.1465L9.27258 23.1831M9.27239 23.1465L9.27273 23.2042M9.27258 23.1831L9.27273 23.2042M9.27273 23.2042L9.27302 23.2469M9.27302 23.2469C9.27321 23.2752 9.27338 23.3059 9.2735 23.3394L9.27302 23.2469ZM10.1129 7.97034C10.5153 7.55117 11.1146 7.32031 11.8003 7.32031C12.3837 7.32031 12.9737 7.4891 13.4197 7.78337C13.6703 7.94863 13.9832 8.0994 14.3148 8.25898L14.3153 8.25919C15.1426 8.65748 16.0801 9.10882 16.622 10.0592C16.9807 10.6891 16.9586 11.2587 16.9421 11.6747L16.9416 11.6874C16.9368 11.8135 16.9325 11.9271 16.9386 12.0342C17.0194 12.1178 17.1855 12.2462 17.2914 12.3279C17.4831 12.4755 17.681 12.6281 17.8422 12.8136C19.1418 14.3085 18.8074 15.6717 18.6076 16.486C18.5643 16.662 18.5234 16.8282 18.511 16.9474C18.4868 17.1764 18.5115 17.6628 18.5314 18.0556L18.5324 18.075C18.5508 18.4444 18.5682 18.7923 18.556 19.0464C18.5367 19.4441 18.3659 19.856 18.1446 20.3531C18.0928 20.4688 18.0347 20.6 18.014 20.66C17.8435 21.1551 17.7298 22.1783 17.6927 22.5145C17.3782 25.3463 15.408 26.3629 13.9691 27.1053L13.9687 27.1055C13.7182 27.2348 13.4818 27.3568 13.2656 27.4807C12.8666 27.71 12.2614 27.8582 11.7235 27.8582C10.8589 27.8582 10.199 27.4776 9.89985 26.8368C9.60069 27.4776 8.94076 27.8581 8.07628 27.8581C7.53835 27.8581 6.93311 27.7099 6.53419 27.4806C6.318 27.3567 6.08158 27.2347 5.83115 27.1055L5.83061 27.1052C4.39169 26.3628 2.42151 25.3462 2.10706 22.5144C2.06997 22.1782 1.95621 21.1548 1.78574 20.6596C1.76517 20.6 1.70691 20.4688 1.65516 20.353C1.43388 19.856 1.263 19.4441 1.24377 19.0467C1.2315 18.7925 1.24889 18.445 1.26735 18.0759L1.26859 18.0512C1.28833 17.6592 1.3127 17.1755 1.28855 16.9474C1.27607 16.8282 1.23525 16.662 1.19193 16.486C0.992151 15.6716 0.65775 14.3085 1.95736 12.8135C2.11849 12.6281 2.3164 12.4754 2.50807 12.3278C2.61403 12.2461 2.78016 12.1178 2.86087 12.0342C2.86692 11.9284 2.86274 11.8162 2.8581 11.692L2.85746 11.6746C2.84094 11.2586 2.81882 10.689 3.17753 10.0592C3.71941 9.10878 4.65696 8.65744 5.4843 8.25915L5.48475 8.25893C5.81636 8.09934 6.12958 7.94858 6.38015 7.78332C6.82582 7.48906 7.41583 7.32032 7.99925 7.32032C8.68491 7.32032 9.28423 7.55119 9.68678 7.97045C9.7666 8.05352 9.83768 8.14255 9.89982 8.23694C9.96198 8.14251 10.0331 8.05345 10.1129 7.97034ZM4.80641 13.2343C4.87561 13.2711 4.95008 13.2888 5.02364 13.2888C5.19162 13.2888 5.35403 13.1967 5.43753 13.0359C5.79345 12.3518 6.97308 10.5849 8.14181 10.6657C8.39581 10.6811 8.62152 10.4837 8.63734 10.2229C8.65324 9.96204 8.45752 9.73741 8.19946 9.7214C6.19206 9.59146 4.67428 12.4726 4.61039 12.5953C4.49008 12.8265 4.57766 13.1125 4.80641 13.2343ZM14.4229 24.1449C14.273 24.1449 14.1253 24.0718 14.0349 23.9362C13.7716 23.541 13.4531 23.0799 13.2934 22.8692C12.9961 22.8643 12.3634 22.9164 12.189 23.4278C12.122 23.6234 11.9409 23.7464 11.747 23.7464C11.6965 23.7464 11.6448 23.7377 11.5943 23.7202C11.3503 23.6347 11.2209 23.3654 11.3051 23.1184C11.6103 22.2257 12.4468 21.9508 13.1092 21.921C13.2252 20.9624 12.8817 20.3849 12.0425 20.1145C11.7966 20.0354 11.6607 19.7695 11.7389 19.5203C11.8171 19.2712 12.0799 19.133 12.3264 19.2131C13.1093 19.4654 14.3509 20.1943 14.0056 22.2516C14.1832 22.4721 14.4273 22.832 14.8103 23.4076C14.9546 23.6242 14.8979 23.9182 14.6838 24.0642C14.6037 24.1188 14.513 24.1449 14.4229 24.1449ZM5.11512 24.0642C5.19522 24.1188 5.28591 24.1449 5.37598 24.1449C5.52589 24.1449 5.67361 24.0718 5.76398 23.9362C6.02774 23.54 6.34713 23.0778 6.50642 22.8679C6.80107 22.8604 7.43528 22.908 7.61283 23.4279C7.67983 23.6235 7.86092 23.7465 8.05477 23.7465C8.10525 23.7465 8.15697 23.738 8.20747 23.7203C8.4515 23.6348 8.58083 23.3655 8.49669 23.1185C8.19107 22.2246 7.35176 21.95 6.68934 21.9209C6.57344 20.9623 6.9169 20.3849 7.75613 20.1145C8.00203 20.0354 8.13791 19.7692 8.05968 19.5203C7.98115 19.2712 7.71873 19.133 7.47252 19.2131C6.68932 19.4654 5.44735 20.1943 5.79298 22.252C5.61565 22.4724 5.37131 22.8323 4.98859 23.4076C4.84429 23.6242 4.90102 23.9182 5.11512 24.0642ZM14.7817 13.2886C14.614 13.2886 14.4516 13.1968 14.3678 13.0363C14.0103 12.3522 12.8328 10.5847 11.6632 10.6658C11.4126 10.6815 11.1835 10.4838 11.1676 10.223C11.1518 9.96212 11.3475 9.73756 11.6055 9.72148C13.6132 9.59027 15.131 12.4727 15.1949 12.5953C15.3152 12.8265 15.2276 13.112 14.9992 13.234C14.93 13.2709 14.8552 13.2886 14.7817 13.2886Z" stroke="url(#paint6_linear_20901_49368)" stroke-width="0.273839" stroke-linejoin="round"/>
<path d="M35.1999 12.3315C36.215 11.7916 37.3164 11.4677 38.3962 11.4677C41.3764 11.4677 42.8882 13.6705 42.3699 16.7371L41.2901 22.6545C41.2685 22.8704 41.1173 23 40.9013 23H38.461C38.2018 23 38.0938 22.8272 38.1154 22.5897L39.2168 16.2836C39.4544 14.9015 38.9577 14.2968 37.9211 14.2968C37.4028 14.2968 36.8628 14.4695 36.4741 14.6855C36.5821 15.2902 36.5821 16.0029 36.4525 16.7371L35.3943 22.6545C35.3727 22.8704 35.2215 23 35.0056 23H32.5652C32.3061 23 32.1765 22.8272 32.2197 22.5897L33.3211 16.2836C33.5586 14.9015 33.1051 14.2968 32.1333 14.2968C31.6582 14.2968 31.1831 14.4047 30.8807 14.5559L29.4122 22.6545C29.369 22.892 29.2394 23 29.0235 23H26.5399C26.3023 23 26.1728 22.8488 26.216 22.5897L28.0084 12.7202C28.0516 12.5475 28.138 12.4179 28.3324 12.3315C29.6066 11.7916 31.1831 11.4677 32.522 11.4677C33.6018 11.4677 34.5305 11.7916 35.1999 12.3315ZM44.0069 15.6141C44.5253 12.785 46.7712 11.4677 49.3844 11.4677C52.1487 11.4677 54.1139 12.9362 53.5308 16.1108L53.1637 18.2057C53.1205 18.4216 52.9909 18.5296 52.775 18.5296H46.7712L46.7065 18.8319C46.4905 19.9765 47.0088 20.538 48.1966 20.538C49.1468 20.538 50.1402 20.1925 51.0041 19.6742C51.22 19.523 51.3928 19.5446 51.5008 19.7822L52.3862 21.4451C52.4726 21.661 52.451 21.8554 52.2567 21.9634C51.0905 22.7624 49.6219 23.2807 47.7431 23.2807C44.914 23.2807 42.9487 21.5531 43.4454 18.7456L44.0069 15.6141ZM50.421 15.8301C50.5722 14.9662 50.205 14.2104 49.1036 14.2104C48.175 14.2104 47.4623 14.7719 47.268 15.7869L47.16 16.37H50.313L50.421 15.8301ZM62.8075 12.3315C63.8226 11.7916 64.924 11.4677 66.0038 11.4677C68.984 11.4677 70.4958 13.6705 69.9775 16.7371L68.8977 22.6545C68.8761 22.8704 68.7249 23 68.5089 23H66.0686C65.8094 23 65.7014 22.8272 65.723 22.5897L66.8244 16.2836C67.062 14.9015 66.5653 14.2968 65.5287 14.2968C65.0104 14.2968 64.4704 14.4695 64.0817 14.6855C64.1897 15.2902 64.1897 16.0029 64.0601 16.7371L63.0019 22.6545C62.9803 22.8704 62.8291 23 62.6132 23H60.1728C59.9137 23 59.7841 22.8272 59.8273 22.5897L60.9287 16.2836C61.1662 14.9015 60.7127 14.2968 59.7409 14.2968C59.2658 14.2968 58.7907 14.4047 58.4883 14.5559L57.0198 22.6545C56.9766 22.892 56.847 23 56.6311 23H54.1475C53.9099 23 53.7804 22.8488 53.8236 22.5897L55.616 12.7202C55.6592 12.5475 55.7456 12.4179 55.94 12.3315C57.2142 11.7916 58.7907 11.4677 60.1296 11.4677C61.2094 11.4677 62.1381 11.7916 62.8075 12.3315ZM71.6145 15.6141C72.1329 12.785 74.3788 11.4677 76.992 11.4677C79.7563 11.4677 81.7215 12.9362 81.1384 16.1108L80.7713 18.2057C80.7281 18.4216 80.5985 18.5296 80.3826 18.5296H74.3788L74.3141 18.8319C74.0981 19.9765 74.6164 20.538 75.8042 20.538C76.7544 20.538 77.7478 20.1925 78.6117 19.6742C78.8276 19.523 79.0004 19.5446 79.1084 19.7822L79.9938 21.4451C80.0802 21.661 80.0586 21.8554 79.8643 21.9634C78.6981 22.7624 77.2295 23.2807 75.3507 23.2807C72.5216 23.2807 70.5563 21.5531 71.053 18.7456L71.6145 15.6141ZM78.0286 15.8301C78.1798 14.9662 77.8126 14.2104 76.7112 14.2104C75.7826 14.2104 75.0699 14.7719 74.8756 15.7869L74.7676 16.37H77.9206L78.0286 15.8301ZM91.8235 11.77C92.1258 11.77 92.2338 11.9644 92.061 12.2019L88.3897 17.4066L90.3981 22.5681C90.5061 22.8272 90.3765 23 90.0958 23H87.4394C87.2235 23 87.0939 22.892 87.0291 22.6761L86.0573 19.5446L83.8977 22.7408C83.7897 22.9136 83.6385 23 83.4442 23H80.6367C80.3127 23 80.2047 22.784 80.3775 22.5465L84.3296 17.169L82.4939 12.1803C82.4075 11.9212 82.5155 11.77 82.7747 11.77H85.3878C85.6038 11.77 85.7333 11.8564 85.7981 12.0724L86.662 15.2902L88.6704 12.0076C88.7568 11.8348 88.8864 11.77 89.1023 11.77H91.8235Z" fill="url(#paint7_linear_20901_49368)"/>
<defs>
<linearGradient id="paint0_linear_20901_49368" x1="103" y1="17.0518" x2="142" y2="17.0518" gradientUnits="userSpaceOnUse">
<stop stop-color="#D9D9D9"/>
<stop offset="0.0001" stop-color="#2E73F8"/>
<stop offset="0.788561" stop-color="#0A4BCA"/>
<stop offset="1" stop-color="#0041BE"/>
</linearGradient>
<linearGradient id="paint1_linear_20901_49368" x1="7.13821" y1="5.46012" x2="20.0617" y2="23.8209" gradientUnits="userSpaceOnUse">
<stop stop-color="#9BFABB" stop-opacity="0.85"/>
<stop offset="1" stop-color="#74E39A" stop-opacity="0.54"/>
</linearGradient>
<linearGradient id="paint2_linear_20901_49368" x1="7.13821" y1="5.46012" x2="20.0617" y2="23.8209" gradientUnits="userSpaceOnUse">
<stop stop-color="#9BFABB" stop-opacity="0.85"/>
<stop offset="1" stop-color="#74E39A" stop-opacity="0.54"/>
</linearGradient>
<linearGradient id="paint3_linear_20901_49368" x1="7.13821" y1="5.46012" x2="20.0617" y2="23.8209" gradientUnits="userSpaceOnUse">
<stop stop-color="#9BFABB" stop-opacity="0.85"/>
<stop offset="1" stop-color="#74E39A" stop-opacity="0.54"/>
</linearGradient>
<linearGradient id="paint4_linear_20901_49368" x1="7.13821" y1="5.46012" x2="20.0617" y2="23.8209" gradientUnits="userSpaceOnUse">
<stop stop-color="#9BFABB" stop-opacity="0.85"/>
<stop offset="1" stop-color="#74E39A" stop-opacity="0.54"/>
</linearGradient>
<linearGradient id="paint5_linear_20901_49368" x1="7.13821" y1="5.46012" x2="20.0617" y2="23.8209" gradientUnits="userSpaceOnUse">
<stop stop-color="#9BFABB" stop-opacity="0.85"/>
<stop offset="1" stop-color="#74E39A" stop-opacity="0.54"/>
</linearGradient>
<linearGradient id="paint6_linear_20901_49368" x1="6.61175" y1="9.8879" x2="18.6616" y2="24.0799" gradientUnits="userSpaceOnUse">
<stop stop-color="#85EDAA"/>
<stop offset="1" stop-color="#63CE87"/>
</linearGradient>
<linearGradient id="paint7_linear_20901_49368" x1="117.282" y1="-10.8324" x2="28.1108" y2="41.8019" gradientUnits="userSpaceOnUse">
<stop stop-color="#6AE394"/>
<stop offset="1" stop-color="white"/>
</linearGradient>
</defs>
</svg>
