<svg width="24" height="24" viewBox="0 0 24 24" fill="none" xmlns="http://www.w3.org/2000/svg">
<path fill-rule="evenodd" clip-rule="evenodd" d="M19.25 2.99947C19.2497 2.58546 18.914 2.25 18.5 2.25C18.086 2.25 17.7503 2.58546 17.75 2.99947C17.7489 4.51673 16.5167 5.74893 14.9995 5.75C14.5855 5.75029 14.25 6.08599 14.25 6.5C14.25 6.91401 14.5855 7.24971 14.9995 7.25C15.7901 7.25056 16.5028 7.58451 17.006 8.12143C17.4677 8.61416 17.7495 9.27411 17.75 10.0005C17.7503 10.4145 18.086 10.75 18.5 10.75C18.914 10.75 19.2497 10.4145 19.25 10.0005C19.2511 8.48327 20.4833 7.25107 22.0005 7.25C22.4145 7.24971 22.75 6.91401 22.75 6.5C22.75 6.08599 22.4145 5.75029 22.0005 5.75C20.4833 5.74893 19.2511 4.51673 19.25 2.99947ZM17.4087 6.50007C17.8353 6.20568 18.2056 5.83539 18.5 5.40876C18.7944 5.83536 19.1646 6.20563 19.5912 6.5C19.1646 6.79439 18.7943 7.16469 18.4999 7.59132C18.3791 7.4161 18.2455 7.25044 18.1005 7.09572C17.8923 6.87357 17.6603 6.67366 17.4087 6.50007ZM9.74964 6.99947C9.74935 6.58546 9.41365 6.25 8.99964 6.25C8.58564 6.25 8.24994 6.58546 8.24964 6.99947C8.2472 10.4503 5.45033 13.2472 1.99947 13.2496C1.58546 13.2499 1.25 13.5856 1.25 13.9996C1.25 14.4136 1.58546 14.7493 1.99947 14.7496C5.45023 14.7521 8.2472 17.5496 8.24964 21.0005C8.24994 21.4145 8.58564 21.75 8.99964 21.75C9.41365 21.75 9.74935 21.4145 9.74964 21.0005C9.75208 17.5498 12.5496 14.7528 16.0005 14.7504C16.4145 14.7501 16.75 14.4144 16.75 14.0004C16.75 13.5864 16.4145 13.2507 16.0005 13.2504C12.5497 13.2479 9.75208 10.4503 9.74964 6.99947ZM8.99974 17.6738C8.23441 16.0671 6.9327 14.7652 5.32618 13.9997C6.93265 13.2344 8.23434 11.9327 8.99968 10.3262C9.76514 11.9329 11.0671 13.2348 12.6737 14.0003C11.0671 14.7656 9.76521 16.0673 8.99974 17.6738Z" fill="#6AE394"/>
</svg>
