<svg width="12" height="9" viewBox="0 0 12 9" fill="none" xmlns="http://www.w3.org/2000/svg">
<path d="M3.6 4.5C4.76063 4.5 5.7 3.52148 5.7 2.3125C5.7 1.10352 4.76063 0.125 3.6 0.125C2.43938 0.125 1.5 1.10352 1.5 2.3125C1.5 3.52148 2.43938 4.5 3.6 4.5ZM5.04 5.125H4.88438C4.49438 5.32031 4.06125 5.4375 3.6 5.4375C3.13875 5.4375 2.7075 5.32031 2.31563 5.125H2.16C0.9675 5.125 0 6.13281 0 7.375V7.9375C0 8.45508 0.403125 8.875 0.9 8.875H6.3C6.79688 8.875 7.2 8.45508 7.2 7.9375V7.375C7.2 6.13281 6.2325 5.125 5.04 5.125ZM9 4.5C9.99375 4.5 10.8 3.66016 10.8 2.625C10.8 1.58984 9.99375 0.75 9 0.75C8.00625 0.75 7.2 1.58984 7.2 2.625C7.2 3.66016 8.00625 4.5 9 4.5ZM9.9 5.125H9.82875C9.56813 5.21875 9.2925 5.28125 9 5.28125C8.7075 5.28125 8.43188 5.21875 8.17125 5.125H8.1C7.7175 5.125 7.365 5.24023 7.05562 5.42578C7.51312 5.93945 7.8 6.62109 7.8 7.375V8.125C7.8 8.16797 7.79063 8.20898 7.78875 8.25H11.1C11.5969 8.25 12 7.83008 12 7.3125C12 6.10352 11.0606 5.125 9.9 5.125Z" fill="white"/>
</svg>
