<svg width="12" height="13" viewBox="0 0 12 13" fill="none" xmlns="http://www.w3.org/2000/svg">
<path d="M6.00039 12.2684C6.30868 12.2684 6.55862 12.0185 6.55862 11.7102L6.55861 7.05822L11.2105 7.05823C11.5188 7.05823 11.7688 6.80831 11.7688 6.5C11.7688 6.1917 11.5188 5.94177 11.2105 5.94177L6.55861 5.94176L6.55861 1.28983C6.55862 0.981541 6.30867 0.731603 6.00039 0.731607C5.69207 0.731608 5.44215 0.981532 5.44216 1.28984L5.44216 5.94177L0.790229 5.94176C0.481924 5.94176 0.232003 6.19171 0.231999 6.49999C0.231999 6.8083 0.481933 7.05823 0.790225 7.05822L5.44215 7.05822L5.44216 11.7102C5.44216 12.0185 5.69208 12.2684 6.00039 12.2684Z" fill="#5671CF"/>
</svg>
