<svg width="9" height="9" viewBox="0 0 9 9" fill="none" xmlns="http://www.w3.org/2000/svg">
<path d="M0.163147 8.57893C0.381142 8.79692 0.734602 8.79693 0.952602 8.57893L4.24201 5.28951L7.53142 8.57893C7.74942 8.79693 8.10287 8.79693 8.32088 8.57893C8.53887 8.36093 8.53888 8.00747 8.32088 7.78947L5.03147 4.50006L8.32088 1.21064C8.53888 0.992655 8.53887 0.639183 8.32088 0.421194C8.10287 0.203186 7.74942 0.203186 7.53142 0.421194L4.24201 3.71061L0.952603 0.421193C0.734601 0.203185 0.381142 0.203203 0.163146 0.421193C-0.0548613 0.6392 -0.0548547 0.992654 0.163148 1.21064L3.45255 4.50006L0.163145 7.78947C-0.0548562 8.00747 -0.0548629 8.36092 0.163147 8.57893Z" fill="#5671CF"/>
</svg>
