<svg width="24" height="24" viewBox="0 0 24 24" fill="none" xmlns="http://www.w3.org/2000/svg">
<path fill-rule="evenodd" clip-rule="evenodd" d="M10.9784 3.3196C10.7135 3.19674 10.4013 3.23886 10.1784 3.42754L3.97264 8.68014C2.681 9.7734 2.68099 11.7651 3.97264 12.8583L10.1784 18.1109C10.4013 18.2996 10.7135 18.3417 10.9784 18.2189C11.2434 18.096 11.4129 17.8305 11.4129 17.5385V14.5962H12.3787C14.3804 14.5962 16.2464 15.6082 17.338 17.286L19.37 20.409C19.5594 20.7 19.9236 20.823 20.2506 20.7064C20.5776 20.5898 20.7818 20.2641 20.7443 19.9189L20.0526 13.5573C19.6434 9.79368 16.4652 6.94232 12.6794 6.94232H11.4129V4.00001C11.4129 3.70796 11.2434 3.44246 10.9784 3.3196ZM9.91294 5.6174V7.69232C9.91294 8.10653 10.2487 8.44232 10.6629 8.44232H12.6794C15.6996 8.44232 18.235 10.717 18.5614 13.7195L18.9134 16.9568L18.5953 16.468C17.2269 14.3648 14.8879 13.0962 12.3787 13.0962H10.6629C10.2487 13.0962 9.91294 13.432 9.91294 13.8462V15.9211L4.94172 11.7134C4.35797 11.2193 4.35797 10.3192 4.94172 9.82508L9.91294 5.6174Z" fill="#12131B"/>
</svg>
