<svg width="18" height="18" viewBox="0 0 18 18" fill="none" xmlns="http://www.w3.org/2000/svg">
<path fill-rule="evenodd" clip-rule="evenodd" d="M9.68632 2.3196C9.95128 2.19674 10.2635 2.23886 10.4864 2.42754L15.1407 6.36699C16.1979 7.26183 16.1979 8.89203 15.1407 9.78687L10.4864 13.7263C10.2635 13.915 9.95128 13.9571 9.68632 13.8343C9.42137 13.7114 9.25183 13.4459 9.25183 13.1539V11.1346H8.71499C7.27716 11.1346 5.93681 11.8616 5.15266 13.0668L3.62868 15.409C3.43935 15.7 3.07508 15.823 2.7481 15.7064C2.42112 15.5898 2.2169 15.2641 2.25443 14.9189L2.77317 10.1477C3.09041 7.22985 5.55439 5.01924 8.48948 5.01924H9.25183V3.00001C9.25183 2.70796 9.42137 2.44246 9.68632 2.3196ZM10.7518 4.6174V5.76924C10.7518 6.18345 10.416 6.51924 10.0018 6.51924H8.48948C6.32007 6.51924 4.49887 8.15317 4.26438 10.3099L4.08306 11.9776C5.16244 10.5098 6.88003 9.63463 8.71499 9.63463H10.0018C10.416 9.63463 10.7518 9.97041 10.7518 10.3846V11.5365L14.1716 8.64194C14.5209 8.34626 14.5209 7.8076 14.1716 7.51193L10.7518 4.6174Z" fill="#12131B"/>
</svg>
