<svg width="18" height="18" viewBox="0 0 18 18" fill="none" xmlns="http://www.w3.org/2000/svg">
<path fill-rule="evenodd" clip-rule="evenodd" d="M4.503 2.25C4.08879 2.25 3.753 2.58579 3.753 3C3.753 3.41421 4.08879 3.75 4.503 3.75H13.4991C13.9133 3.75 14.2491 3.41421 14.2491 3C14.2491 2.58579 13.9133 2.25 13.4991 2.25H4.503ZM3.75 5.72727C3.75 5.31306 4.08579 4.97727 4.5 4.97727H13.5C13.9142 4.97727 14.25 5.31306 14.25 5.72727C14.25 6.14149 13.9142 6.47727 13.5 6.47727H4.5C4.08579 6.47727 3.75 6.14149 3.75 5.72727ZM3.97406 7.92284C4.11555 7.78207 4.30732 7.70352 4.50691 7.70456L13.5069 7.75143C13.9196 7.75358 14.253 8.08873 14.253 8.50142V15.0469C14.253 15.3187 14.106 15.5692 13.8687 15.7017C13.6314 15.8342 13.3409 15.828 13.1096 15.6854L8.99773 13.1517L4.89187 15.6413C4.66028 15.7817 4.37098 15.7864 4.135 15.6535C3.89902 15.5206 3.753 15.2708 3.753 15V8.45455C3.753 8.25496 3.83256 8.0636 3.97406 7.92284ZM5.253 9.20846V13.6681L8.61201 11.6314C8.85265 11.4855 9.15473 11.4866 9.39432 11.6342L12.753 13.7038V9.24752L5.253 9.20846Z" fill="#12131B"/>
</svg>
