<svg width="18" height="18" viewBox="0 0 18 18" fill="none" xmlns="http://www.w3.org/2000/svg">
<path fill-rule="evenodd" clip-rule="evenodd" d="M4.19254 2.27515C4.40045 2.33037 4.57465 2.4722 4.67086 2.66462C5.41811 4.15912 6.426 5.28613 7.79734 5.86416C7.78634 5.37331 7.86552 4.89146 8.04445 4.44429C8.38632 3.58992 9.07289 2.91606 10.0538 2.5865C11.7986 1.98033 13.1249 2.92667 13.8855 3.61729L15.9878 3.58344C16.2815 3.57871 16.5508 3.74577 16.6771 4.0109C16.8033 4.27603 16.7632 4.59045 16.5745 4.81541C16.3557 5.07618 15.8898 5.63938 15.4766 6.14005C15.2704 6.38981 15.078 6.62313 14.9371 6.79402L14.8871 6.85479C14.95 10.2864 13.1805 12.8991 10.6386 14.275C8.04401 15.6794 4.67202 15.7852 1.65968 14.2511C1.37122 14.1042 1.20957 13.7888 1.25874 13.4688C1.30791 13.1489 1.5568 12.8966 1.87605 12.8431C2.98723 12.6568 3.76095 12.1219 4.26158 11.6303C4.29344 11.599 4.32416 11.5679 4.35376 11.5372C3.17953 10.9676 2.5164 9.62877 2.85403 8.24109C2.05253 7.50376 1.79919 6.41083 1.88712 5.42704C1.9909 4.26594 2.57831 3.04645 3.58401 2.37599C3.763 2.25666 3.98462 2.21994 4.19254 2.27515ZM5.62967 11.0741C6.30049 11.4095 6.30033 11.4098 6.30017 11.4101L6.29984 11.4108L6.29909 11.4123L6.29728 11.4158L6.29246 11.4252L6.27789 11.4528C6.26598 11.4749 6.24961 11.5045 6.22865 11.5406C6.18675 11.6128 6.12628 11.7113 6.04604 11.8286C5.88593 12.0625 5.6448 12.3743 5.31257 12.7006C5.00443 13.0032 4.61601 13.3198 4.14085 13.5972C6.19011 14.125 8.26606 13.8536 9.92459 12.9558C12.0544 11.803 13.5226 9.60769 13.379 6.63267C13.37 6.4465 13.4307 6.26364 13.5491 6.11975L14.1281 6.5965L13.5492 6.11973L13.5492 6.11967L13.5494 6.11943L13.5502 6.11848L13.5533 6.11473L13.5653 6.10007L13.6115 6.04401L13.7796 5.84C13.9206 5.66891 14.1133 5.43528 14.3198 5.18513C14.3405 5.16008 14.3613 5.13485 14.3822 5.10949L13.6059 5.12199C13.4074 5.12519 13.2157 5.04956 13.0729 4.91168C12.3682 4.23141 11.5673 3.6472 10.5434 4.00439L10.5343 4.00754L10.5343 4.00748C9.96211 4.19891 9.61323 4.56136 9.4371 5.00154C9.25493 5.45681 9.23883 6.04837 9.45229 6.68876C9.53643 6.94118 9.48054 7.21929 9.3054 7.41959C9.13027 7.6199 8.86212 7.71243 8.60073 7.66274C6.42883 7.24992 4.89812 5.94145 3.83216 4.23516C3.58922 4.61009 3.42446 5.07619 3.38117 5.56058C3.30934 6.36421 3.58019 7.00678 4.11567 7.31716C4.44886 7.51028 4.58163 7.92436 4.42287 8.27522C3.93553 9.35223 4.64186 10.3241 5.62967 10.3241C5.8896 10.3241 6.131 10.4587 6.26765 10.6798C6.40431 10.9009 6.41673 11.177 6.30049 11.4095L5.62967 11.0741Z" fill="#12131B"/>
</svg>
