<svg width="40" height="40" viewBox="0 0 40 40" fill="none" xmlns="http://www.w3.org/2000/svg">
<path fill-rule="evenodd" clip-rule="evenodd" d="M20 10.25C14.6152 10.25 10.25 14.6152 10.25 20C10.25 25.3848 14.6152 29.75 20 29.75C25.3848 29.75 29.75 25.3848 29.75 20C29.75 14.6152 25.3848 10.25 20 10.25ZM11.75 20C11.75 15.4437 15.4437 11.75 20 11.75C24.5563 11.75 28.25 15.4437 28.25 20C28.25 24.5563 24.5563 28.25 20 28.25C15.4437 28.25 11.75 24.5563 11.75 20ZM20.7545 14.8541C20.7545 14.4399 20.4187 14.1041 20.0045 14.1041C19.5902 14.1041 19.2545 14.4399 19.2545 14.8541V15.4438C18.2102 15.685 17.1512 16.4718 17.1512 17.8912C17.1512 19.5757 18.5236 20.4673 19.8584 20.7323C20.4251 20.8448 20.9496 20.9985 21.3206 21.2387C21.6537 21.4543 21.8248 21.7072 21.8252 22.1003C21.8255 22.4857 21.6532 22.7808 21.3428 23.0048C21.014 23.242 20.5318 23.3905 20.0023 23.392C19.1679 23.3944 18.4275 23.0425 18.0894 22.4339C17.8882 22.0718 17.4316 21.9413 17.0695 22.1425C16.7074 22.3436 16.577 22.8002 16.7782 23.1623C17.3197 24.1372 18.282 24.6565 19.2545 24.8275V25.3706C19.2545 25.7848 19.5902 26.1206 20.0045 26.1206C20.4187 26.1206 20.7545 25.7848 20.7545 25.3706V24.8242C21.2825 24.7285 21.7919 24.5304 22.2204 24.2212C22.868 23.754 23.3259 23.0298 23.3252 22.0991C23.3244 21.089 22.7953 20.4065 22.1359 19.9796C21.5144 19.5771 20.7542 19.3809 20.1505 19.261C19.1447 19.0613 18.6512 18.5378 18.6512 17.8912C18.6512 17.3856 19.0086 17.0098 19.6716 16.8889C19.765 16.8718 19.8573 16.8615 19.9478 16.8572C19.9665 16.8586 19.9854 16.8593 20.0045 16.8593C20.031 16.8593 20.0572 16.8579 20.083 16.8552C20.6083 16.8651 21.0538 17.0789 21.2499 17.3732C21.4795 17.7179 21.9452 17.8112 22.2899 17.5816C22.6346 17.3519 22.7279 16.8863 22.4982 16.5416C22.0856 15.9222 21.4362 15.5708 20.7545 15.43V14.8541Z" fill="#F4F4F4"/>
</svg>
