<svg width="8" height="9" viewBox="0 0 8 9" fill="none" xmlns="http://www.w3.org/2000/svg">
<path d="M4 0.15625C1.79081 0.15625 0 1.94706 0 4.15625C0 6.36544 1.79081 8.15625 4 8.15625C6.20919 8.15625 8 6.36544 8 4.15625C8 1.94706 6.20919 0.15625 4 0.15625ZM6.58065 3.63206V3.74383C6.58065 3.83851 6.5271 3.92512 6.44242 3.96738L6.19419 4.09157C6.15477 4.1113 6.11084 4.12024 6.06684 4.1175C6.02285 4.11475 5.98037 4.10041 5.94371 4.07593L5.65 3.88012C5.61831 3.85902 5.58223 3.84542 5.5445 3.84036C5.50677 3.8353 5.46838 3.83892 5.43226 3.85093L5.38952 3.86512C5.23306 3.91722 5.16919 4.10367 5.26064 4.24093L5.47419 4.56125C5.52048 4.63077 5.59855 4.67254 5.6821 4.67254H5.81452C5.95258 4.67254 6.06452 4.78448 6.06452 4.92254V5.10544C6.06452 5.15948 6.04694 5.21222 6.01452 5.25544L5.71226 5.65835C5.68935 5.68899 5.67371 5.72448 5.66661 5.76206L5.59726 6.13028C5.58726 6.18335 5.56032 6.23173 5.52048 6.26835C5.36763 6.40832 5.23224 6.56623 5.11726 6.73867L4.9071 7.05399C4.86622 7.1153 4.81084 7.16558 4.74588 7.20036C4.68091 7.23513 4.60837 7.25333 4.53468 7.25335C4.36516 7.25335 4.21016 7.15754 4.13435 7.00593C4.04599 6.8292 3.99999 6.63432 4 6.43673V5.95464C4 5.81657 3.88806 5.70464 3.75 5.70464H3.33258C3.09887 5.70464 2.87484 5.61173 2.70952 5.44657C2.54432 5.28129 2.4515 5.05719 2.45145 4.82351V4.59673C2.45145 4.31948 2.5821 4.05835 2.80387 3.8919L3.24871 3.55819C3.40125 3.4438 3.58676 3.38195 3.77742 3.3819H3.79177C3.92855 3.3819 4.06355 3.41367 4.18581 3.47496L4.42323 3.59367C4.48258 3.62335 4.55113 3.62819 4.61403 3.60722L5.3771 3.35286C5.47919 3.31883 5.54806 3.22335 5.54806 3.11577C5.54806 2.9777 5.43613 2.86577 5.29806 2.86577H5.13532C5.06903 2.86577 5.00548 2.83948 4.95855 2.79254L4.84694 2.68093C4.82372 2.65771 4.79617 2.63929 4.76583 2.62672C4.7355 2.61416 4.70299 2.6077 4.67016 2.6077H3.21774C3.07968 2.6077 2.96774 2.49577 2.96774 2.3577V2.28673C2.96774 2.17206 3.04581 2.07206 3.1571 2.04415L3.39016 1.98593C3.45048 1.97077 3.50306 1.93383 3.53758 1.88206L3.6679 1.68673C3.71419 1.61722 3.79226 1.57544 3.87581 1.57544H4.26629C4.40435 1.57544 4.51629 1.46351 4.51629 1.32544V0.975444C5.79403 1.18254 6.82032 2.14044 7.1279 3.38206H6.83065C6.69258 3.38206 6.58065 3.49399 6.58065 3.63206Z" fill="black" fill-opacity="0.5"/>
</svg>
