<svg width="15" height="15" viewBox="0 0 15 15" fill="none" xmlns="http://www.w3.org/2000/svg">
<path d="M6.53777 6.83789L3.16204 5.91211C2.77133 5.80664 2.4994 5.46387 2.4994 5.08301C2.4994 4.60547 2.91199 4.21875 3.42147 4.21875H5.49379C5.87512 4.21875 6.2502 4.32715 6.56277 4.52637C6.75344 4.64648 7.00974 4.61719 7.17228 4.46777L8.26001 3.47168C8.48193 3.26953 8.45068 2.93262 8.20375 2.75391C7.43796 2.19141 6.4815 1.87793 5.50004 1.875V0.46875C5.50004 0.210938 5.27499 0 4.99994 0H3.99972C3.72466 0 3.49961 0.210938 3.49961 0.46875V1.875H3.42147C1.43042 1.875 -0.169925 3.47754 0.0144896 5.37891C0.145768 6.72949 1.246 7.82812 2.6338 8.20898L5.83762 9.08789C6.22832 9.19629 6.50026 9.53613 6.50026 9.91699C6.50026 10.3945 6.08767 10.7812 5.57818 10.7812H3.50586C3.12453 10.7812 2.74945 10.6729 2.43688 10.4736C2.24622 10.3535 1.98991 10.3828 1.82738 10.5322L0.739645 11.5283C0.517723 11.7305 0.548979 12.0674 0.795907 12.2461C1.5617 12.8086 2.51815 13.1221 3.49961 13.125V14.5312C3.49961 14.7891 3.72466 15 3.99972 15H4.99994C5.27499 15 5.50004 14.7891 5.50004 14.5312V13.1191C6.95661 13.0928 8.32252 12.2812 8.80388 10.9893C9.4759 9.18457 8.34753 7.33301 6.53777 6.83789Z" fill="#5671CF"/>
<rect x="10" y="6" width="1" height="4" rx="0.5" fill="#5671CF"/>
<rect x="12" y="5" width="1" height="6" rx="0.5" fill="#5671CF"/>
<rect x="14" y="4" width="1" height="8" rx="0.5" fill="#5671CF"/>
</svg>
