<svg width="92" height="92" viewBox="0 0 92 92" fill="none" xmlns="http://www.w3.org/2000/svg">
<g clip-path="url(#clip0_1791_10)">
<path d="M40.0983 41.9391L19.3938 36.2609C16.9975 35.6141 15.3297 33.5117 15.3297 31.1758C15.3297 28.2469 17.8602 25.875 20.985 25.875H33.6952C36.0341 25.875 38.3346 26.5399 40.2517 27.7617C41.4211 28.4984 42.9931 28.3188 43.99 27.4023L50.6614 21.293C52.0225 20.0531 51.8308 17.9867 50.3163 16.8906C45.6195 13.4406 39.7532 11.518 33.7336 11.5V2.875C33.7336 1.29375 32.3533 0 30.6663 0H24.5316C22.8446 0 21.4643 1.29375 21.4643 2.875V11.5H20.985C8.77324 11.5 -1.04221 21.3289 0.0888696 32.9906C0.894044 41.2742 7.64213 48.0125 16.154 50.3484L35.8041 55.7391C38.2004 56.4039 39.8683 58.4883 39.8683 60.8242C39.8683 63.7529 37.3377 66.1247 34.2128 66.1247H21.5026C19.1638 66.1247 16.8633 65.4605 14.9462 64.2381C13.7768 63.5015 12.2048 63.6812 11.2079 64.5975L4.53649 70.7069C3.17537 71.9471 3.36707 74.0134 4.88156 75.1094C9.57843 78.5594 15.4447 80.4822 21.4643 80.5V89.1247C21.4643 90.7065 22.8446 92 24.5316 92H30.6663C32.3533 92 33.7336 90.7065 33.7336 89.1247V80.4638C42.6672 80.3025 51.0448 75.3247 53.9971 67.401C58.1189 56.332 51.1982 44.9758 40.0983 41.9391Z" fill="#5671CF"/>
<path d="M67.4668 39.8667C67.4668 38.173 66.0938 36.8 64.4002 36.8C62.7065 36.8 61.3335 38.173 61.3335 39.8667V58.2667C61.3335 59.9603 62.7065 61.3333 64.4002 61.3333C66.0938 61.3333 67.4668 59.9603 67.4668 58.2667V39.8667Z" fill="#5671CF"/>
<path d="M79.7334 33.7334C79.7334 32.0397 78.3604 30.6667 76.6668 30.6667C74.9731 30.6667 73.6001 32.0397 73.6001 33.7334V64.4C73.6001 66.0937 74.9731 67.4667 76.6668 67.4667C78.3604 67.4667 79.7334 66.0937 79.7334 64.4V33.7334Z" fill="#5671CF"/>
<path d="M92 27.6C92 25.9063 90.627 24.5333 88.9334 24.5333C87.2397 24.5333 85.8667 25.9063 85.8667 27.6V70.5333C85.8667 72.227 87.2397 73.6 88.9334 73.6C90.627 73.6 92 72.227 92 70.5333V27.6Z" fill="#5671CF"/>
<path d="M38.9095 74.8642L20.163 54.5734C19.0368 53.3544 19.0368 51.3779 20.163 50.1587L24.2416 45.744C25.3679 44.5248 27.1941 44.5248 28.3204 45.744L40.9489 59.4127L67.9978 30.1357C69.124 28.9167 70.9502 28.9167 72.0765 30.1357L76.1551 34.5504C77.2813 35.7694 77.2813 37.746 76.1551 38.9651L42.9882 74.8643C41.8619 76.0834 40.0358 76.0834 38.9095 74.8642Z" fill="#3A2F45"/>
</g>
<defs>
<clipPath id="clip0_1791_10">
<rect width="92" height="92" fill="white"/>
</clipPath>
</defs>
</svg>
