<svg width="18" height="18" viewBox="0 0 18 18" fill="none" xmlns="http://www.w3.org/2000/svg">
<path fill-rule="evenodd" clip-rule="evenodd" d="M8.99609 1.25C4.71589 1.25 1.24609 4.71979 1.24609 9C1.24609 13.2802 4.71589 16.75 8.99609 16.75C13.2763 16.75 16.7461 13.2802 16.7461 9C16.7461 4.71979 13.2763 1.25 8.99609 1.25ZM2.74609 9C2.74609 5.54822 5.54431 2.75 8.99609 2.75C12.4479 2.75 15.2461 5.54822 15.2461 9C15.2461 12.4518 12.4479 15.25 8.99609 15.25C5.54431 15.25 2.74609 12.4518 2.74609 9ZM9.75 5C9.75 4.58579 9.41421 4.25 9 4.25C8.58579 4.25 8.25 4.58579 8.25 5V5.3299C7.43025 5.56318 6.61364 6.21532 6.61364 7.36288C6.61364 8.78859 7.77893 9.52311 8.85394 9.73656C9.29071 9.82328 9.67267 9.93808 9.9335 10.107C10.1564 10.2513 10.2498 10.4004 10.25 10.6377C10.2502 10.877 10.1479 11.0589 9.9438 11.2062C9.72139 11.3667 9.3819 11.4749 8.99783 11.476C8.3889 11.4778 7.88048 11.221 7.65562 10.8162C7.45446 10.4541 6.99786 10.3236 6.63577 10.5248C6.27368 10.726 6.14322 11.1826 6.34438 11.5447C6.76972 12.3103 7.50177 12.7327 8.25 12.896V13.1818C8.25 13.596 8.58579 13.9318 9 13.9318C9.41421 13.9318 9.75 13.596 9.75 13.1818V12.8928C10.1337 12.8067 10.5032 12.6523 10.8215 12.4226C11.3627 12.0321 11.7506 11.4211 11.75 10.6365C11.7493 9.7821 11.298 9.2035 10.7487 8.84784C10.2374 8.51676 9.6198 8.35934 9.14606 8.26528C8.40004 8.11716 8.11364 7.75073 8.11364 7.36288C8.11364 7.07838 8.30248 6.83228 8.77093 6.74685C8.83306 6.73552 8.89389 6.72842 8.95307 6.72508C8.96859 6.72604 8.98424 6.72653 9 6.72653C9.02357 6.72653 9.04689 6.72544 9.06991 6.72331C9.43266 6.73293 9.71784 6.88327 9.83037 7.05218C10.06 7.39691 10.5256 7.49019 10.8704 7.26054C11.2151 7.03089 11.3084 6.56527 11.0787 6.22054C10.7559 5.73593 10.2677 5.4492 9.75 5.31592V5Z" fill="#12131B"/>
</svg>
