<svg width="371" height="342" viewBox="0 0 371 342" fill="none" xmlns="http://www.w3.org/2000/svg">
<path d="M66.6361 332.962C65.8738 332.962 65.1035 332.812 64.3688 332.504C62.1923 331.591 60.7782 329.462 60.7782 327.1V260.751H27.9455C16.6681 260.751 7.49609 251.579 7.49609 240.302V28.4494C7.49609 17.1759 16.6681 8 27.9455 8H342.55C353.828 8 363 17.1759 363 28.4494V240.302C363 251.579 353.828 260.751 342.55 260.751H142.611L70.7402 331.283C69.6223 332.381 68.1411 332.962 66.6361 332.962ZM27.9455 19.7198C23.1343 19.7198 19.2159 23.6343 19.2159 28.4494V240.302C19.2159 245.117 23.1304 249.032 27.9455 249.032H66.6361C69.8752 249.032 72.498 251.654 72.498 254.893V313.141L136.109 250.71C137.208 249.636 138.677 249.032 140.214 249.032H342.55C347.366 249.032 351.28 245.117 351.28 240.302V28.4494C351.28 23.6382 347.366 19.7198 342.55 19.7198H27.9455Z" stroke="black" stroke-width="14.0571"/>
<line x1="71" y1="92" x2="296" y2="92" stroke="black" stroke-width="20" stroke-linecap="round"/>
<line x1="71" y1="135" x2="296" y2="135" stroke="black" stroke-width="20" stroke-linecap="round"/>
<line x1="71" y1="178" x2="296" y2="178" stroke="black" stroke-width="20" stroke-linecap="round"/>
</svg>
