<svg width="340" height="419" viewBox="0 0 340 419" fill="none" xmlns="http://www.w3.org/2000/svg">
<g clip-path="url(#clip0_16685_44656)">
<g clip-path="url(#clip1_16685_44656)">
<rect x="-154" width="494" height="419" rx="16" fill="#12131B"/>
<rect width="270" height="13" rx="3" transform="matrix(1 -8.74228e-08 -8.74228e-08 -1 -138 237)" fill="#303139"/>
<rect width="167" height="24" rx="3" transform="matrix(1 -8.74228e-08 -8.74228e-08 -1 -138 190)" fill="#303139"/>
<rect width="18" height="18" rx="4" transform="matrix(1 -8.74228e-08 -8.74228e-08 -1 -12 39)" fill="#303139"/>
<rect width="121" height="9.99999" rx="3" transform="matrix(1 -8.74228e-08 -8.74228e-08 -1 19 35)" fill="#303139"/>
<rect width="327" height="13" rx="3" transform="matrix(1 -8.74228e-08 -8.74228e-08 -1 -138 266)" fill="#6AE394"/>
<rect width="167" height="13" rx="3" transform="matrix(1 -8.74228e-08 -8.74228e-08 -1 -138 295)" fill="#3E3F47"/>
<rect width="121" height="13" rx="3" transform="matrix(1 -8.74228e-08 -8.74228e-08 -1 81 295)" fill="#6AE394"/>
<rect width="32" height="13" rx="3" transform="matrix(1 -8.74228e-08 -8.74228e-08 -1 39 295)" fill="#3E3F47"/>
<rect width="393" height="90" rx="16" transform="matrix(1 -8.74228e-08 -8.74228e-08 -1 -163 419)" fill="#303139"/>
<rect width="88" height="13" rx="3" transform="matrix(1 -8.74228e-08 -8.74228e-08 -1 142 237)" fill="#303139"/>
<path d="M-140 46H-34.6035C-29.0807 46 -24.6035 41.5228 -24.6035 36V20C-24.6035 14.4772 -20.1264 10 -14.6035 10H144.668C150.191 10 154.668 14.4772 154.668 20V36C154.668 41.5228 159.145 46 164.668 46H340" stroke="#3E3F47"/>
<path d="M-140 94H340" stroke="#3E3F47"/>
<path d="M-158 86H185C193.837 86 201 78.8366 201 70V70C201 61.1634 193.837 54 185 54H-158" stroke="#3E3F47"/>
<path d="M175 70C175 65.0294 179.029 61 184 61C188.971 61 193 65.0294 193 70C193 74.9706 188.971 79 184 79C179.029 79 175 74.9706 175 70Z" stroke="#3E3F47"/>
<path d="M145 70C145 65.0294 149.029 61 154 61C158.971 61 163 65.0294 163 70C163 74.9706 158.971 79 154 79C149.029 79 145 74.9706 145 70Z" stroke="#3E3F47"/>
<path d="M217 70C217 62.8203 222.82 57 230 57C237.18 57 243 62.8203 243 70C243 77.1797 237.18 83 230 83C222.82 83 217 77.1797 217 70Z" stroke="#3E3F47"/>
<path d="M259 70C259 62.8203 264.82 57 272 57C279.18 57 285 62.8203 285 70C285 77.1797 279.18 83 272 83C264.82 83 259 77.1797 259 70Z" stroke="#3E3F47"/>
<path d="M309 61.5C309 60.1193 310.119 59 311.5 59C312.881 59 314 60.1193 314 61.5C314 62.8807 312.881 64 311.5 64C310.119 64 309 62.8807 309 61.5Z" stroke="#3E3F47"/>
<path d="M309 70C309 68.6193 310.119 67.5 311.5 67.5C312.881 67.5 314 68.6193 314 70C314 71.3807 312.881 72.5 311.5 72.5C310.119 72.5 309 71.3807 309 70Z" stroke="#3E3F47"/>
<path d="M309 78.5C309 77.1193 310.119 76 311.5 76C312.881 76 314 77.1193 314 78.5C314 79.8807 312.881 81 311.5 81C310.119 81 309 79.8807 309 78.5Z" stroke="#3E3F47"/>
<rect x="-132" width="472" height="432" fill="url(#paint0_linear_16685_44656)"/>
<rect x="-132" width="472" height="432" fill="url(#paint1_linear_16685_44656)"/>
<g filter="url(#filter0_d_16685_44656)">
<rect x="92" y="118" width="224" height="56" rx="8" fill="#12131B"/>
<path d="M146.44 138.976C148.192 138.976 149.344 137.788 149.344 136.096C149.344 134.38 148.204 133.228 146.44 133.228H142.972V142H144.508V138.976H146.44ZM146.14 134.596C147.16 134.596 147.736 135.124 147.736 136.084C147.736 137.044 147.172 137.608 146.116 137.608H144.508V134.596H146.14ZM151.95 142.156C152.874 142.156 153.678 141.736 153.93 141.124L154.038 142H155.322V138.4C155.322 136.756 154.338 135.892 152.742 135.892C151.134 135.892 150.078 136.732 150.078 138.016H151.326C151.326 137.392 151.806 137.032 152.67 137.032C153.414 137.032 153.894 137.356 153.894 138.16V138.292L152.118 138.424C150.714 138.532 149.922 139.216 149.922 140.308C149.922 141.424 150.69 142.156 151.95 142.156ZM152.43 141.052C151.77 141.052 151.41 140.788 151.41 140.248C151.41 139.768 151.758 139.468 152.67 139.384L153.906 139.288V139.6C153.906 140.512 153.33 141.052 152.43 141.052ZM156.424 138.904C156.424 140.62 157.528 141.88 159.208 141.88C160.06 141.88 160.792 141.532 161.164 140.98V141.964C161.164 142.948 160.516 143.584 159.508 143.584C158.608 143.584 158.02 143.128 157.924 142.36H156.46C156.64 143.944 157.804 144.916 159.508 144.916C161.428 144.916 162.616 143.68 162.616 141.7V136.072H161.26L161.176 136.888C160.828 136.252 160.132 135.88 159.244 135.88C157.552 135.88 156.424 137.176 156.424 138.904ZM157.9 138.868C157.9 137.896 158.524 137.164 159.496 137.164C160.516 137.164 161.128 137.86 161.128 138.868C161.128 139.9 160.504 140.608 159.496 140.608C158.536 140.608 157.9 139.864 157.9 138.868ZM166.783 142.156C168.331 142.156 169.411 141.376 169.663 140.08H168.307C168.139 140.644 167.611 140.956 166.807 140.956C165.835 140.956 165.283 140.428 165.175 139.384L169.639 139.372V138.928C169.639 137.08 168.511 135.892 166.735 135.892C164.995 135.892 163.783 137.176 163.783 139.036C163.783 140.872 165.019 142.156 166.783 142.156ZM166.747 137.092C167.623 137.092 168.187 137.632 168.187 138.448H165.211C165.355 137.56 165.883 137.092 166.747 137.092ZM174.777 134.884C175.257 134.884 175.653 134.488 175.653 133.996C175.653 133.504 175.257 133.12 174.777 133.12C174.273 133.12 173.877 133.504 173.877 133.996C173.877 134.488 174.273 134.884 174.777 134.884ZM174.045 142H175.509V136.072H174.045V142ZM176.566 140.2C176.566 141.364 177.502 142.156 178.978 142.156C180.442 142.156 181.462 141.412 181.462 140.212C181.462 139.3 180.958 138.844 179.962 138.616L178.894 138.364C178.39 138.244 178.126 138.028 178.126 137.692C178.126 137.248 178.462 136.984 179.038 136.984C179.602 136.984 179.938 137.308 179.95 137.812H181.342C181.33 136.66 180.43 135.892 179.098 135.892C177.73 135.892 176.746 136.588 176.746 137.752C176.746 138.7 177.262 139.204 178.33 139.444L179.398 139.696C179.926 139.816 180.082 140.032 180.082 140.332C180.082 140.764 179.71 141.04 179.026 141.04C178.354 141.04 177.97 140.716 177.958 140.2H176.566ZM187.575 142.156C188.499 142.156 189.303 141.736 189.555 141.124L189.663 142H190.947V138.4C190.947 136.756 189.963 135.892 188.367 135.892C186.759 135.892 185.703 136.732 185.703 138.016H186.951C186.951 137.392 187.431 137.032 188.295 137.032C189.039 137.032 189.519 137.356 189.519 138.16V138.292L187.743 138.424C186.339 138.532 185.547 139.216 185.547 140.308C185.547 141.424 186.315 142.156 187.575 142.156ZM188.055 141.052C187.395 141.052 187.035 140.788 187.035 140.248C187.035 139.768 187.383 139.468 188.295 139.384L189.531 139.288V139.6C189.531 140.512 188.955 141.052 188.055 141.052ZM193.849 142V138.808C193.849 137.848 194.401 137.224 195.301 137.224C196.057 137.224 196.549 137.704 196.549 138.7V142H198.013V138.352C198.013 136.816 197.245 135.892 195.757 135.892C194.953 135.892 194.233 136.24 193.861 136.84L193.741 136.072H192.385V142H193.849ZM200.915 142V138.808C200.915 137.848 201.467 137.224 202.367 137.224C203.123 137.224 203.615 137.704 203.615 138.7V142H205.079V138.352C205.079 136.816 204.311 135.892 202.823 135.892C202.019 135.892 201.299 136.24 200.927 136.84L200.807 136.072H199.451V142H200.915ZM206.17 139.024C206.17 140.872 207.502 142.144 209.338 142.144C211.174 142.144 212.506 140.872 212.506 139.024C212.506 137.176 211.174 135.904 209.338 135.904C207.502 135.904 206.17 137.176 206.17 139.024ZM207.634 139.024C207.634 137.944 208.33 137.212 209.338 137.212C210.346 137.212 211.042 137.944 211.042 139.024C211.042 140.104 210.346 140.836 209.338 140.836C208.33 140.836 207.634 140.104 207.634 139.024ZM216.728 140.728C216.512 140.8 216.308 140.836 216.14 140.836C215.696 140.836 215.384 140.596 215.384 139.888V137.296H216.74V136.072H215.384V134.224H213.932V136.072H213.02V137.296H213.932V140.14C213.932 141.556 214.64 142.132 215.768 142.132C216.188 142.132 216.572 142.06 216.896 141.916L216.728 140.728ZM219.602 142.156C220.526 142.156 221.33 141.736 221.582 141.124L221.69 142H222.974V138.4C222.974 136.756 221.99 135.892 220.394 135.892C218.786 135.892 217.73 136.732 217.73 138.016H218.978C218.978 137.392 219.458 137.032 220.322 137.032C221.066 137.032 221.546 137.356 221.546 138.16V138.292L219.77 138.424C218.366 138.532 217.574 139.216 217.574 140.308C217.574 141.424 218.342 142.156 219.602 142.156ZM220.082 141.052C219.422 141.052 219.062 140.788 219.062 140.248C219.062 139.768 219.41 139.468 220.322 139.384L221.558 139.288V139.6C221.558 140.512 220.982 141.052 220.082 141.052ZM227.45 140.728C227.234 140.8 227.03 140.836 226.862 140.836C226.418 140.836 226.106 140.596 226.106 139.888V137.296H227.462V136.072H226.106V134.224H224.654V136.072H223.742V137.296H224.654V140.14C224.654 141.556 225.362 142.132 226.49 142.132C226.91 142.132 227.294 142.06 227.618 141.916L227.45 140.728ZM231.189 142.156C232.737 142.156 233.817 141.376 234.069 140.08H232.713C232.545 140.644 232.017 140.956 231.213 140.956C230.241 140.956 229.689 140.428 229.581 139.384L234.045 139.372V138.928C234.045 137.08 232.917 135.892 231.141 135.892C229.401 135.892 228.189 137.176 228.189 139.036C228.189 140.872 229.425 142.156 231.189 142.156ZM231.153 137.092C232.029 137.092 232.593 137.632 232.593 138.448H229.617C229.761 137.56 230.289 137.092 231.153 137.092ZM237.653 142.156C238.553 142.156 239.321 141.76 239.681 141.076L239.777 142H241.121V133.072H239.669V136.828C239.297 136.24 238.565 135.892 237.737 135.892C235.949 135.892 234.869 137.212 234.869 139.06C234.869 140.896 235.937 142.156 237.653 142.156ZM237.977 140.812C236.957 140.812 236.333 140.068 236.333 139.012C236.333 137.956 236.957 137.2 237.977 137.2C238.997 137.2 239.657 137.944 239.657 139.012C239.657 140.08 238.997 140.812 237.977 140.812Z" fill="#F1F1F3"/>
<path d="M143.06 153.83C143.34 153.83 143.58 153.6 143.58 153.32C143.58 153.04 143.34 152.8 143.06 152.8C142.78 152.8 142.55 153.04 142.55 153.32C142.55 153.6 142.78 153.83 143.06 153.83ZM142.72 160H143.41V155.16H142.72V160ZM145.539 160V157.47C145.539 156.38 146.099 155.66 147.089 155.66C147.889 155.66 148.399 156.06 148.399 157.19V160H149.089V157.04C149.089 155.82 148.539 155.03 147.209 155.03C146.509 155.03 145.869 155.38 145.549 156L145.449 155.16H144.849V160H145.539ZM154.098 160V156.49C154.098 155.4 154.078 154.61 154.038 154.34L156.368 160H157.058L159.388 154.31C159.348 154.8 159.328 155.35 159.328 156.6V160H160.038V152.84H159.318L156.708 159.15L154.098 152.84H153.388V160H154.098ZM163.656 160.12C164.796 160.12 165.546 159.57 165.806 158.55H165.146C164.966 159.19 164.456 159.53 163.666 159.53C162.626 159.53 162.006 158.85 161.956 157.67H165.806V157.33C165.806 155.96 164.916 155.03 163.606 155.03C162.226 155.03 161.286 156.07 161.286 157.58C161.286 159.1 162.236 160.12 163.656 160.12ZM163.606 155.62C164.516 155.62 165.116 156.24 165.116 157.17H161.976C162.096 156.22 162.696 155.62 163.606 155.62ZM167.599 160V157C167.599 156.26 168.089 155.66 168.899 155.66C169.629 155.66 170.099 156.14 170.099 156.96V160H170.779V157.01C170.779 156.26 171.259 155.65 172.069 155.65C172.809 155.65 173.269 156.14 173.269 156.97V160H173.939V156.83C173.939 155.71 173.249 155.03 172.199 155.03C171.419 155.03 170.829 155.43 170.609 156.06C170.379 155.43 169.809 155.03 169.049 155.03C168.369 155.03 167.829 155.34 167.589 155.85L167.509 155.16H166.909V160H167.599ZM177.357 160.12C178.497 160.12 179.247 159.57 179.507 158.55H178.847C178.667 159.19 178.157 159.53 177.367 159.53C176.327 159.53 175.707 158.85 175.657 157.67H179.507V157.33C179.507 155.96 178.617 155.03 177.307 155.03C175.927 155.03 174.987 156.07 174.987 157.58C174.987 159.1 175.937 160.12 177.357 160.12ZM177.307 155.62C178.217 155.62 178.817 156.24 178.817 157.17H175.677C175.797 156.22 176.397 155.62 177.307 155.62ZM180.635 160L181.985 158.06L183.345 160H184.165L182.455 157.59L184.175 155.16H183.375L182.015 157.1L180.645 155.16H179.835L181.555 157.58L179.825 160H180.635ZM187.489 154.7C187.489 155.68 188.079 156.32 189.199 156.59L190.409 156.89C191.179 157.07 191.539 157.49 191.539 158.13C191.539 158.95 190.869 159.46 189.819 159.46C188.839 159.46 188.179 158.97 188.139 158.22H187.399C187.489 159.39 188.429 160.12 189.819 160.12C191.299 160.12 192.259 159.33 192.259 158.09C192.259 157.12 191.679 156.48 190.559 156.21L189.329 155.91C188.579 155.72 188.209 155.32 188.209 154.69C188.209 153.88 188.869 153.36 189.879 153.36C190.779 153.36 191.329 153.82 191.409 154.63H192.139C192.029 153.43 191.179 152.71 189.889 152.71C188.449 152.71 187.489 153.5 187.489 154.7ZM193.404 162.11H194.094V159.07C194.434 159.77 195.084 160.12 195.904 160.12C197.334 160.12 198.144 159.02 198.144 157.56C198.144 156.1 197.304 155.03 195.904 155.03C195.094 155.03 194.414 155.39 194.074 156.14L194.004 155.16H193.404V162.11ZM194.104 157.58C194.104 156.46 194.724 155.66 195.784 155.66C196.834 155.66 197.444 156.46 197.444 157.58C197.444 158.69 196.834 159.5 195.784 159.5C194.724 159.5 194.104 158.69 194.104 157.58ZM200.633 160.12C201.453 160.12 202.113 159.76 202.413 159.15L202.503 160H203.083V156.87C203.083 155.59 202.263 155.03 201.143 155.03C199.953 155.03 199.153 155.66 199.153 156.64H199.783C199.783 155.99 200.283 155.61 201.123 155.61C201.833 155.61 202.403 155.91 202.403 156.86V157.02L200.803 157.15C199.673 157.24 198.993 157.8 198.993 158.69C198.993 159.54 199.603 160.12 200.633 160.12ZM200.793 159.56C200.133 159.56 199.693 159.26 199.693 158.67C199.693 158.13 200.063 157.73 200.973 157.65L202.403 157.54V157.8C202.403 158.85 201.813 159.56 200.793 159.56ZM204.128 157.59C204.128 159.11 205.058 160.12 206.428 160.12C207.528 160.12 208.388 159.47 208.618 158.48H207.918C207.728 159.1 207.148 159.5 206.428 159.5C205.448 159.5 204.808 158.73 204.808 157.58C204.808 156.39 205.498 155.64 206.478 155.64C207.148 155.64 207.728 156.01 207.908 156.68H208.598C208.408 155.68 207.588 155.03 206.468 155.03C205.058 155.03 204.128 156.07 204.128 157.59ZM211.693 160.12C212.833 160.12 213.583 159.57 213.843 158.55H213.183C213.003 159.19 212.493 159.53 211.703 159.53C210.663 159.53 210.043 158.85 209.993 157.67H213.843V157.33C213.843 155.96 212.953 155.03 211.643 155.03C210.263 155.03 209.323 156.07 209.323 157.58C209.323 159.1 210.273 160.12 211.693 160.12ZM211.643 155.62C212.553 155.62 213.153 156.24 213.153 157.17H210.013C210.133 156.22 210.733 155.62 211.643 155.62ZM214.537 158.64C214.537 159.54 215.217 160.12 216.307 160.12C217.407 160.12 218.147 159.55 218.147 158.68C218.147 157.98 217.767 157.59 216.927 157.38L216.097 157.17C215.567 157.04 215.307 156.78 215.307 156.41C215.307 155.89 215.687 155.6 216.367 155.6C217.017 155.6 217.407 155.93 217.427 156.49H218.097C218.067 155.59 217.407 155.03 216.387 155.03C215.347 155.03 214.637 155.57 214.637 156.42C214.637 157.08 215.047 157.52 215.887 157.73L216.717 157.94C217.287 158.08 217.487 158.31 217.487 158.71C217.487 159.23 217.047 159.55 216.297 159.55C215.617 159.55 215.197 159.2 215.197 158.64H214.537ZM221.566 162.11C221.786 162.16 222.006 162.18 222.296 162.18C222.986 162.18 223.456 161.87 223.736 161.11L225.956 155.16H225.246L223.716 159.38L222.156 155.16H221.426L223.386 160.29L223.176 160.86C222.936 161.51 222.516 161.54 222.096 161.54H221.566V162.11ZM226.257 157.58C226.257 159.05 227.297 160.12 228.717 160.12C230.137 160.12 231.177 159.05 231.177 157.58C231.177 156.1 230.137 155.03 228.717 155.03C227.297 155.03 226.257 156.1 226.257 157.58ZM226.957 157.57C226.957 156.45 227.677 155.65 228.717 155.65C229.747 155.65 230.477 156.45 230.477 157.57C230.477 158.71 229.747 159.5 228.717 159.5C227.677 159.5 226.957 158.71 226.957 157.57ZM235.563 155.16V157.73C235.563 158.88 235.013 159.5 234.083 159.5C233.313 159.5 232.803 159.09 232.803 157.94V155.15H232.103V158.16C232.103 159.34 232.723 160.12 233.863 160.12C234.623 160.12 235.293 159.74 235.563 159.18L235.653 160H236.253V155.16H235.563ZM239.924 155.16V155.74H240.664V160H241.354V155.74H242.494V155.16H241.354V154.22C241.354 153.65 241.514 153.34 242.124 153.34H242.534V152.75C242.374 152.72 242.174 152.71 242.004 152.71C241.264 152.71 240.664 153.13 240.664 154.22V155.16H239.924ZM242.946 157.58C242.946 159.05 243.986 160.12 245.406 160.12C246.826 160.12 247.866 159.05 247.866 157.58C247.866 156.1 246.826 155.03 245.406 155.03C243.986 155.03 242.946 156.1 242.946 157.58ZM243.646 157.57C243.646 156.45 244.366 155.65 245.406 155.65C246.436 155.65 247.166 156.45 247.166 157.57C247.166 158.71 246.436 159.5 245.406 159.5C244.366 159.5 243.646 158.71 243.646 157.57ZM249.69 160V152.71H249V160H249.69ZM251.878 160V152.71H251.188V160H251.878ZM253.005 157.58C253.005 159.05 254.045 160.12 255.465 160.12C256.885 160.12 257.925 159.05 257.925 157.58C257.925 156.1 256.885 155.03 255.465 155.03C254.045 155.03 253.005 156.1 253.005 157.58ZM253.705 157.57C253.705 156.45 254.425 155.65 255.465 155.65C256.495 155.65 257.225 156.45 257.225 157.57C257.225 158.71 256.495 159.5 255.465 159.5C254.425 159.5 253.705 158.71 253.705 157.57ZM259.834 160H260.524L261.524 156.96C261.654 156.56 261.734 156.27 261.804 156.01C261.864 156.3 261.944 156.6 262.064 156.96L263.064 160H263.734L265.374 155.16H264.654L263.694 158.08C263.524 158.6 263.504 158.72 263.404 159.12C263.314 158.76 263.194 158.34 263.104 158.08L262.154 155.16H261.444L260.484 158.08C260.434 158.24 260.274 158.73 260.194 159.12C260.094 158.73 260.004 158.4 259.894 158.08L258.944 155.16H258.234L259.834 160Z" fill="#A2A3A7"/>
<path fill-rule="evenodd" clip-rule="evenodd" d="M120.68 138C120.68 138.414 121.016 138.75 121.43 138.75H124.191L117.471 145.47C117.178 145.763 117.178 146.237 117.471 146.53C117.764 146.823 118.239 146.823 118.532 146.53L125.252 139.811V142.571C125.252 142.986 125.587 143.321 126.002 143.321C126.416 143.321 126.752 142.986 126.752 142.571V138C126.752 137.586 126.416 137.25 126.002 137.25H121.43C121.016 137.25 120.68 137.586 120.68 138ZM112.085 141.32C112.085 140.637 112.639 140.083 113.322 140.083H116.79C117.204 140.083 117.54 139.748 117.54 139.333C117.54 138.919 117.204 138.583 116.79 138.583H113.322C111.81 138.583 110.585 139.809 110.585 141.32V150.68C110.585 152.191 111.81 153.417 113.322 153.417H122.681C124.193 153.417 125.418 152.191 125.418 150.68V147.212C125.418 146.798 125.083 146.462 124.668 146.462C124.254 146.462 123.918 146.798 123.918 147.212V150.68C123.918 151.363 123.364 151.917 122.681 151.917H113.322C112.639 151.917 112.085 151.363 112.085 150.68V141.32Z" fill="#82838C"/>
<rect x="288" y="128" width="18" height="18" rx="3" fill="#12131B"/>
<path fill-rule="evenodd" clip-rule="evenodd" d="M301.53 133.53C301.823 133.237 301.823 132.763 301.53 132.47C301.237 132.177 300.763 132.177 300.47 132.47L297 135.939L293.53 132.47C293.237 132.177 292.763 132.177 292.47 132.47C292.177 132.763 292.177 133.237 292.47 133.53L295.939 137L292.47 140.47C292.177 140.763 292.177 141.237 292.47 141.53C292.763 141.823 293.237 141.823 293.53 141.53L297 138.061L300.47 141.53C300.763 141.823 301.237 141.823 301.53 141.53C301.823 141.237 301.823 140.763 301.53 140.47L298.061 137L301.53 133.53Z" fill="#70717A"/>
<rect x="92.5" y="118.5" width="223" height="55" rx="7.5" stroke="#6AE394"/>
</g>
</g>
<rect x="-153.5" y="0.5" width="493" height="418" rx="15.5" stroke="#3E3F47"/>
<g filter="url(#filter1_di_16685_44656)">
<circle cx="2.00446" cy="2.00446" r="2.00446" transform="matrix(1 -8.74228e-08 -8.74228e-08 -1 113 83.0078)" fill="#C6F0D4"/>
</g>
<g filter="url(#filter2_di_16685_44656)">
<circle cx="4" cy="4" r="4" transform="matrix(1 -8.74228e-08 -8.74228e-08 -1 137 106)" fill="#C6F0D4"/>
</g>
</g>
<defs>
<filter id="filter0_d_16685_44656" x="65.2259" y="91.2259" width="277.548" height="109.548" filterUnits="userSpaceOnUse" color-interpolation-filters="sRGB">
<feFlood flood-opacity="0" result="BackgroundImageFix"/>
<feColorMatrix in="SourceAlpha" type="matrix" values="0 0 0 0 0 0 0 0 0 0 0 0 0 0 0 0 0 0 127 0" result="hardAlpha"/>
<feOffset/>
<feGaussianBlur stdDeviation="13.3871"/>
<feColorMatrix type="matrix" values="0 0 0 0 0.415686 0 0 0 0 0.890196 0 0 0 0 0.580392 0 0 0 0.2 0"/>
<feBlend mode="normal" in2="BackgroundImageFix" result="effect1_dropShadow_16685_44656"/>
<feBlend mode="normal" in="SourceGraphic" in2="effect1_dropShadow_16685_44656" result="shape"/>
</filter>
<filter id="filter1_di_16685_44656" x="100.973" y="66.9732" width="28.0623" height="28.0613" filterUnits="userSpaceOnUse" color-interpolation-filters="sRGB">
<feFlood flood-opacity="0" result="BackgroundImageFix"/>
<feColorMatrix in="SourceAlpha" type="matrix" values="0 0 0 0 0 0 0 0 0 0 0 0 0 0 0 0 0 0 127 0" result="hardAlpha"/>
<feOffset/>
<feGaussianBlur stdDeviation="6.01338"/>
<feComposite in2="hardAlpha" operator="out"/>
<feColorMatrix type="matrix" values="0 0 0 0 0.415686 0 0 0 0 0.890196 0 0 0 0 0.580392 0 0 0 1 0"/>
<feBlend mode="normal" in2="BackgroundImageFix" result="effect1_dropShadow_16685_44656"/>
<feBlend mode="normal" in="SourceGraphic" in2="effect1_dropShadow_16685_44656" result="shape"/>
<feColorMatrix in="SourceAlpha" type="matrix" values="0 0 0 0 0 0 0 0 0 0 0 0 0 0 0 0 0 0 127 0" result="hardAlpha"/>
<feOffset/>
<feGaussianBlur stdDeviation="0.501115"/>
<feComposite in2="hardAlpha" operator="arithmetic" k2="-1" k3="1"/>
<feColorMatrix type="matrix" values="0 0 0 0 0.415686 0 0 0 0 0.890196 0 0 0 0 0.580392 0 0 0 1 0"/>
<feBlend mode="normal" in2="shape" result="effect2_innerShadow_16685_44656"/>
</filter>
<filter id="filter2_di_16685_44656" x="113" y="74" width="56" height="56" filterUnits="userSpaceOnUse" color-interpolation-filters="sRGB">
<feFlood flood-opacity="0" result="BackgroundImageFix"/>
<feColorMatrix in="SourceAlpha" type="matrix" values="0 0 0 0 0 0 0 0 0 0 0 0 0 0 0 0 0 0 127 0" result="hardAlpha"/>
<feOffset/>
<feGaussianBlur stdDeviation="12"/>
<feComposite in2="hardAlpha" operator="out"/>
<feColorMatrix type="matrix" values="0 0 0 0 0.415686 0 0 0 0 0.890196 0 0 0 0 0.580392 0 0 0 1 0"/>
<feBlend mode="normal" in2="BackgroundImageFix" result="effect1_dropShadow_16685_44656"/>
<feBlend mode="normal" in="SourceGraphic" in2="effect1_dropShadow_16685_44656" result="shape"/>
<feColorMatrix in="SourceAlpha" type="matrix" values="0 0 0 0 0 0 0 0 0 0 0 0 0 0 0 0 0 0 127 0" result="hardAlpha"/>
<feOffset/>
<feGaussianBlur stdDeviation="1"/>
<feComposite in2="hardAlpha" operator="arithmetic" k2="-1" k3="1"/>
<feColorMatrix type="matrix" values="0 0 0 0 0.415686 0 0 0 0 0.890196 0 0 0 0 0.580392 0 0 0 1 0"/>
<feBlend mode="normal" in2="shape" result="effect2_innerShadow_16685_44656"/>
</filter>
<linearGradient id="paint0_linear_16685_44656" x1="-15.2016" y1="-16" x2="-15.2016" y2="415" gradientUnits="userSpaceOnUse">
<stop offset="0.428818" stop-color="#12131B" stop-opacity="0"/>
<stop offset="1" stop-color="#12131B"/>
</linearGradient>
<linearGradient id="paint1_linear_16685_44656" x1="253.57" y1="-37.4612" x2="-132" y2="-37.4612" gradientUnits="userSpaceOnUse">
<stop offset="0.484506" stop-color="#12131B" stop-opacity="0"/>
<stop offset="0.975902" stop-color="#12131B"/>
</linearGradient>
<clipPath id="clip0_16685_44656">
<rect width="340" height="419" fill="white"/>
</clipPath>
<clipPath id="clip1_16685_44656">
<rect x="-154" width="494" height="419" rx="16" fill="white"/>
</clipPath>
</defs>
</svg>
