<svg width="342" height="419" viewBox="0 0 342 419" fill="none" xmlns="http://www.w3.org/2000/svg">
<g clip-path="url(#clip0_16685_44779)">
<g clip-path="url(#clip1_16685_44779)">
<rect x="-53" width="395" height="419" rx="19.7064" fill="#12131B"/>
<rect width="332.546" height="16.0114" rx="3.69495" transform="matrix(1 -8.74228e-08 -8.74228e-08 -1 -323 155.008)" fill="#303139"/>
<rect width="149.03" height="12.3165" rx="3.69495" transform="matrix(1 -8.74228e-08 -8.74228e-08 -1 -52.9199 43.2266)" fill="#303139"/>
<rect width="402.75" height="16.0114" rx="3.69495" transform="matrix(1 -8.74228e-08 -8.74228e-08 -1 -323 190.727)" fill="#6AE394"/>
<rect width="402.75" height="16.0114" rx="3.69495" transform="matrix(1 -8.74228e-08 -8.74228e-08 -1 -288.711 274.367)" fill="#6AE394"/>
<rect width="108.385" height="16.0115" rx="3.69495" transform="matrix(1 -8.74228e-08 -8.74228e-08 -1 -28 226.008)" fill="#303139"/>
<rect width="149.03" height="16.0115" rx="3.69495" transform="matrix(1 -8.74228e-08 -8.74228e-08 -1 -18.9795 310.086)" fill="#6AE394"/>
<rect width="108.385" height="16.0115" rx="3.69495" transform="matrix(1 -8.74228e-08 -8.74228e-08 -1 21.8623 155.008)" fill="#303139"/>
<path d="M-248.752 56.777H-118.94C-112.138 56.777 -106.624 51.2627 -106.624 44.4604V24.754C-106.624 17.9518 -101.109 12.4375 -94.3072 12.4375H101.86C108.662 12.4375 114.176 17.9518 114.176 24.754V44.4604C114.176 51.2627 119.691 56.777 126.493 56.777H342.441" stroke="#3E3F47" stroke-width="1.23165"/>
<path d="M-248.752 115.891H342.441" stroke="#3E3F47" stroke-width="1.23165"/>
<path d="M-270.922 106.038H151.535C162.418 106.038 171.241 97.215 171.241 86.3314V86.3314C171.241 75.4479 162.418 66.625 151.535 66.625H-270.922" stroke="#3E3F47" stroke-width="1.23165"/>
<path d="M139.218 86.3349C139.218 80.2129 144.181 75.25 150.303 75.25C156.425 75.25 161.387 80.2129 161.387 86.3349C161.387 92.4569 156.425 97.4197 150.303 97.4197C144.181 97.4197 139.218 92.4569 139.218 86.3349Z" stroke="#3E3F47" stroke-width="1.23165"/>
<path d="M102.269 86.3349C102.269 80.2129 107.231 75.25 113.353 75.25C119.475 75.25 124.438 80.2129 124.438 86.3349C124.438 92.4569 119.475 97.4197 113.353 97.4197C107.231 97.4197 102.269 92.4569 102.269 86.3349Z" stroke="#3E3F47" stroke-width="1.23165"/>
<path d="M190.947 86.3318C190.947 77.4889 198.116 70.3203 206.959 70.3203C215.802 70.3203 222.97 77.4889 222.97 86.3318C222.97 95.1747 215.802 102.343 206.959 102.343C198.116 102.343 190.947 95.1747 190.947 86.3318Z" stroke="#3E3F47" stroke-width="1.23165"/>
<path d="M242.677 86.3318C242.677 77.4889 249.845 70.3203 258.688 70.3203C267.531 70.3203 274.7 77.4889 274.7 86.3318C274.7 95.1747 267.531 102.343 258.688 102.343C249.845 102.343 242.677 95.1747 242.677 86.3318Z" stroke="#3E3F47" stroke-width="1.23165"/>
<path d="M304.259 75.8682C304.259 74.1676 305.637 72.7891 307.338 72.7891C309.038 72.7891 310.417 74.1676 310.417 75.8682C310.417 77.5687 309.038 78.9473 307.338 78.9473C305.637 78.9473 304.259 77.5687 304.259 75.8682Z" stroke="#3E3F47" stroke-width="1.23165"/>
<path d="M304.259 86.3369C304.259 84.6364 305.637 83.2578 307.338 83.2578C309.038 83.2578 310.417 84.6364 310.417 86.3369C310.417 88.0375 309.038 89.4161 307.338 89.4161C305.637 89.4161 304.259 88.0375 304.259 86.3369Z" stroke="#3E3F47" stroke-width="1.23165"/>
<path d="M304.259 96.8057C304.259 95.1051 305.637 93.7266 307.338 93.7266C309.038 93.7266 310.417 95.1051 310.417 96.8057C310.417 98.5062 309.038 99.8848 307.338 99.8848C305.637 99.8848 304.259 98.5062 304.259 96.8057Z" stroke="#3E3F47" stroke-width="1.23165"/>
<rect x="-243.995" y="0.117188" width="472" height="432" fill="url(#paint0_linear_16685_44779)"/>
<rect x="-243.995" y="0.117188" width="472" height="432" fill="url(#paint1_linear_16685_44779)"/>
</g>
<rect x="-52.3842" y="0.615826" width="393.768" height="417.768" rx="19.0906" stroke="#3E3F47" stroke-width="1.23165"/>
<g filter="url(#filter0_di_16685_44779)">
<circle cx="2.4688" cy="2.4688" r="2.4688" transform="matrix(1 -8.74228e-08 -8.74228e-08 -1 62.8555 44.3594)" fill="#C6F0D4"/>
</g>
<g filter="url(#filter1_di_16685_44779)">
<circle cx="4.92661" cy="4.92661" r="4.92661" transform="matrix(1 -8.74228e-08 -8.74228e-08 -1 92.415 72.6719)" fill="#C6F0D4"/>
</g>
<path d="M145 516L145 116" stroke="#3E3F47" stroke-width="1.23165"/>
<rect width="2.00001" height="128" rx="1" transform="matrix(1 -8.74228e-08 -8.74228e-08 -1 153 335.117)" fill="#616069"/>
<rect width="4" height="41" rx="2" transform="matrix(1 -8.74228e-08 -8.74228e-08 -1 160 173.117)" fill="#6AE394"/>
<path d="M332 207.117H153C151.343 207.117 150 205.774 150 204.117V125.117C150 123.46 151.343 122.117 153 122.117H332C333.657 122.117 335 123.46 335 125.117V204.117C335 205.774 333.657 207.117 332 207.117Z" stroke="#3E3F47" stroke-width="1.23165"/>
<rect width="141" height="16" rx="3.69495" transform="matrix(1 -8.74228e-08 -8.74228e-08 -1 175 150.117)" fill="#303139"/>
<rect width="108.385" height="16.0115" rx="3.69495" transform="matrix(1 -8.74228e-08 -8.74228e-08 -1 175 171.125)" fill="#303139"/>
<rect width="141" height="16" rx="3.69495" transform="matrix(1 -8.74228e-08 -8.74228e-08 -1 160 195.117)" fill="#303139"/>
<path d="M330 271.117H165C163.343 271.117 162 269.774 162 268.117V218.117C162 216.46 163.343 215.117 165 215.117H330C331.657 215.117 333 216.46 333 218.117V268.117C333 269.774 331.657 271.117 330 271.117Z" stroke="#3E3F47" stroke-width="1.23165"/>
<rect width="141" height="16" rx="3.69495" transform="matrix(1 -8.74228e-08 -8.74228e-08 -1 173 241.117)" fill="#303139"/>
<rect width="131" height="16" rx="3.69495" transform="matrix(1 -8.74228e-08 -8.74228e-08 -1 173 262.117)" fill="#303139"/>
<path d="M330 271.117H165C163.343 271.117 162 269.774 162 268.117V218.117C162 216.46 163.343 215.117 165 215.117H330C331.657 215.117 333 216.46 333 218.117V268.117C333 269.774 331.657 271.117 330 271.117Z" stroke="#3E3F47" stroke-width="1.23165"/>
<rect width="141" height="16" rx="3.69495" transform="matrix(1 -8.74228e-08 -8.74228e-08 -1 173 241.117)" fill="#303139"/>
<rect width="131" height="16" rx="3.69495" transform="matrix(1 -8.74228e-08 -8.74228e-08 -1 173 262.117)" fill="#303139"/>
<path d="M330 334.117H165C163.343 334.117 162 332.774 162 331.117V281.117C162 279.46 163.343 278.117 165 278.117H330C331.657 278.117 333 279.46 333 281.117V331.117C333 332.774 331.657 334.117 330 334.117Z" stroke="#3E3F47" stroke-width="1.23165"/>
<rect width="118" height="16" rx="3.69495" transform="matrix(1 -8.74228e-08 -8.74228e-08 -1 173 304.117)" fill="#303139"/>
<rect width="142" height="16" rx="3.69495" transform="matrix(1 -8.74228e-08 -8.74228e-08 -1 173 325.117)" fill="#303139"/>
</g>
<defs>
<filter id="filter0_di_16685_44779" x="48.0427" y="24.6091" width="34.5631" height="34.5631" filterUnits="userSpaceOnUse" color-interpolation-filters="sRGB">
<feFlood flood-opacity="0" result="BackgroundImageFix"/>
<feColorMatrix in="SourceAlpha" type="matrix" values="0 0 0 0 0 0 0 0 0 0 0 0 0 0 0 0 0 0 127 0" result="hardAlpha"/>
<feOffset/>
<feGaussianBlur stdDeviation="7.40639"/>
<feComposite in2="hardAlpha" operator="out"/>
<feColorMatrix type="matrix" values="0 0 0 0 0.415686 0 0 0 0 0.890196 0 0 0 0 0.580392 0 0 0 1 0"/>
<feBlend mode="normal" in2="BackgroundImageFix" result="effect1_dropShadow_16685_44779"/>
<feBlend mode="normal" in="SourceGraphic" in2="effect1_dropShadow_16685_44779" result="shape"/>
<feColorMatrix in="SourceAlpha" type="matrix" values="0 0 0 0 0 0 0 0 0 0 0 0 0 0 0 0 0 0 127 0" result="hardAlpha"/>
<feOffset/>
<feGaussianBlur stdDeviation="0.617199"/>
<feComposite in2="hardAlpha" operator="arithmetic" k2="-1" k3="1"/>
<feColorMatrix type="matrix" values="0 0 0 0 0.415686 0 0 0 0 0.890196 0 0 0 0 0.580392 0 0 0 1 0"/>
<feBlend mode="normal" in2="shape" result="effect2_innerShadow_16685_44779"/>
</filter>
<filter id="filter1_di_16685_44779" x="62.8554" y="33.2607" width="68.9728" height="68.9708" filterUnits="userSpaceOnUse" color-interpolation-filters="sRGB">
<feFlood flood-opacity="0" result="BackgroundImageFix"/>
<feColorMatrix in="SourceAlpha" type="matrix" values="0 0 0 0 0 0 0 0 0 0 0 0 0 0 0 0 0 0 127 0" result="hardAlpha"/>
<feOffset/>
<feGaussianBlur stdDeviation="14.7798"/>
<feComposite in2="hardAlpha" operator="out"/>
<feColorMatrix type="matrix" values="0 0 0 0 0.415686 0 0 0 0 0.890196 0 0 0 0 0.580392 0 0 0 1 0"/>
<feBlend mode="normal" in2="BackgroundImageFix" result="effect1_dropShadow_16685_44779"/>
<feBlend mode="normal" in="SourceGraphic" in2="effect1_dropShadow_16685_44779" result="shape"/>
<feColorMatrix in="SourceAlpha" type="matrix" values="0 0 0 0 0 0 0 0 0 0 0 0 0 0 0 0 0 0 127 0" result="hardAlpha"/>
<feOffset/>
<feGaussianBlur stdDeviation="1.23165"/>
<feComposite in2="hardAlpha" operator="arithmetic" k2="-1" k3="1"/>
<feColorMatrix type="matrix" values="0 0 0 0 0.415686 0 0 0 0 0.890196 0 0 0 0 0.580392 0 0 0 1 0"/>
<feBlend mode="normal" in2="shape" result="effect2_innerShadow_16685_44779"/>
</filter>
<linearGradient id="paint0_linear_16685_44779" x1="-127.197" y1="-15.8828" x2="-127.197" y2="415.117" gradientUnits="userSpaceOnUse">
<stop offset="0.428818" stop-color="#12131B" stop-opacity="0"/>
<stop offset="1" stop-color="#12131B"/>
</linearGradient>
<linearGradient id="paint1_linear_16685_44779" x1="141.575" y1="-37.344" x2="-243.995" y2="-37.3441" gradientUnits="userSpaceOnUse">
<stop offset="0.484506" stop-color="#12131B" stop-opacity="0"/>
<stop offset="0.975902" stop-color="#12131B"/>
</linearGradient>
<clipPath id="clip0_16685_44779">
<rect width="342" height="419" fill="white"/>
</clipPath>
<clipPath id="clip1_16685_44779">
<rect x="-53" width="395" height="419" rx="19.7064" fill="white"/>
</clipPath>
</defs>
</svg>
